<svg width="250" height="46" viewBox="0 0 250 46" fill="none" xmlns="http://www.w3.org/2000/svg">
<g clip-path="url(#clip0_6_2859)">
<g clip-path="url(#clip1_6_2859)">
<path fill-rule="evenodd" clip-rule="evenodd" d="M20.6287 14.7714L19.7715 14.4286C19.6001 14.7714 19.6001 15.2857 19.6001 15.6286C19.7715 16.3143 20.1144 17 20.4572 17.5143L21.143 16.8286C20.9715 16.4857 20.8001 15.9714 20.6287 15.4572C20.6287 15.2857 20.6287 14.9429 20.6287 14.7714Z" fill="#6B6B6B"/>
<path fill-rule="evenodd" clip-rule="evenodd" d="M37.4286 13.2286C37.2572 12.8857 37.0858 12.5429 36.7429 12.2C36.4001 12.0286 36.0572 12.0286 35.8858 12.0286C35.7144 11.6857 35.5429 11.5143 35.2001 11.3429C34.8572 11 34.3429 11 34.0001 11C33.1429 11.1714 32.6286 12.0286 32.8001 12.8857C32.8001 13.0571 32.9715 13.4 33.1429 13.5714L32.2858 14.7714C32.1144 14.6 31.7715 14.7714 31.6001 14.9429C31.6001 14.9429 30.4001 16.4857 28.6858 17C28.3429 17.1714 28.0001 17.3429 27.6572 17.5143C27.1429 16.4857 27.1429 15.2857 27.1429 15.2857C26.8001 13.0571 24.9144 11.1714 22.5144 11C21.3144 11 20.1144 11.3429 19.0858 12.3714C18.4001 13.2286 17.8858 14.4286 18.0572 15.6286C18.2286 16.6571 18.5715 17.5143 19.2572 18.3714C18.4001 18.3714 17.7144 19.0571 17.7144 19.7429V20.7714C17.7144 21.6286 18.4001 22.3143 19.2572 22.3143H19.4286L21.1429 33.4571C21.3144 34.1429 21.8286 34.6571 22.5144 34.6571H31.9429C32.6286 34.6571 33.3144 34.1429 33.3144 33.4571L35.0286 22.3143H35.2001C36.0572 22.3143 36.7429 21.6286 36.7429 20.7714V19.7429C36.7429 18.8857 36.0572 18.2 35.2001 18.2H34.3429C34.5144 17.8571 34.6858 17.3429 34.8572 17C34.8572 16.8286 35.0286 16.8286 34.8572 16.6571C34.6858 16.4857 34.8572 16.3143 34.6858 16.3143L33.1429 15.2857L34.1715 13.5714C34.1715 13.4 34.3429 13.2286 34.1715 13.2286C34.0001 13.2286 34.1715 13.0571 34.1715 13.0571C34.0001 12.8857 33.8286 12.8857 33.8286 12.7143C33.8286 12.3714 34.0001 12.2 34.1715 12.0286C34.5144 12.0286 34.6858 12.2 34.8572 12.3714V12.5429C34.8572 12.7143 34.8572 12.8857 35.0286 13.0571C35.2001 13.2286 35.3715 13.2286 35.5429 13.0571H35.7144C35.8858 13.0571 36.0572 13.0571 36.0572 13.0571C36.2286 13.0571 36.2286 13.2286 36.2286 13.4C36.2286 13.5714 36.2286 13.7429 36.2286 13.7429C36.2286 13.9143 36.0572 13.9143 35.8858 13.9143C35.7144 13.9143 35.5429 13.9143 35.5429 13.9143C35.3715 13.7429 35.0286 13.9143 34.8572 14.0857L34.1715 15.4571L35.0286 15.9714L35.5429 15.1143C35.7144 15.1143 36.0572 15.1143 36.2286 15.1143C36.5715 14.9429 36.9144 14.7714 37.2572 14.4286C37.4286 14.0857 37.4286 13.5714 37.4286 13.2286ZM20.2858 17.8571C19.7715 17.3429 19.2572 16.4857 19.0858 15.4571C18.9144 14.6 19.2572 13.7429 19.7715 13.0571C20.4572 12.3714 21.3144 12.0286 22.3429 12.0286C23.8858 12.2 25.6001 13.2286 25.9429 15.2857C25.9429 15.2857 26.1144 16.8286 26.8001 18.2C26.8001 18.2 26.8001 18.2 26.6286 18.3714H20.8001C20.6286 18.2 20.4572 18.0286 20.2858 17.8571ZM35.5429 19.7429V20.7714C35.5429 20.9429 35.3715 21.2857 35.0286 21.2857H34.5144H32.1144V22.3143H33.8286L32.1144 33.2857C32.1144 33.4571 31.9429 33.6286 31.7715 33.6286H22.5144C22.3429 33.6286 22.1715 33.4571 22.1715 33.2857L20.6286 22.3143H28.1715V21.2857H19.9429H19.2572C18.9144 21.2857 18.7429 21.1143 18.7429 20.7714V19.7429C18.7429 19.5714 18.9144 19.2286 19.2572 19.2286H35.2001C35.3715 19.4 35.5429 19.5714 35.5429 19.7429ZM33.3144 18.3714H28.3429C28.5144 18.2 28.8572 18.2 29.0286 18.0286C30.5715 17.6857 31.6001 16.4857 32.1144 15.9714L33.6572 17C33.4858 17.3429 33.4858 17.8571 33.3144 18.3714Z" fill="#6B6B6B"/>
<path fill-rule="evenodd" clip-rule="evenodd" d="M30.2286 22.3143C30.5715 22.3143 30.7429 22.1429 30.7429 21.8001C30.7429 21.4572 30.4001 21.2858 30.2286 21.2858C29.8858 21.2858 29.7144 21.4572 29.7144 21.8001C29.7144 22.1429 29.8858 22.3143 30.2286 22.3143Z" fill="#6B6B6B"/>
</g>
</g>
<g clip-path="url(#clip2_6_2859)">
<g filter="url(#filter0_d_6_2859)">
<path d="M49.332 31V20H53.1777C53.944 20 54.576 20.1325 55.0737 20.3975C55.5715 20.6589 55.9421 21.0116 56.1855 21.4556C56.429 21.896 56.5508 22.3848 56.5508 22.9219C56.5508 23.3945 56.4666 23.7848 56.2983 24.0928C56.1336 24.4007 55.9152 24.6442 55.6431 24.8232C55.3745 25.0023 55.0827 25.1348 54.7676 25.2207V25.3281C55.1042 25.3496 55.4425 25.4678 55.7827 25.6826C56.1229 25.8975 56.4076 26.2054 56.6367 26.6064C56.8659 27.0075 56.9805 27.498 56.9805 28.0781C56.9805 28.6296 56.8551 29.1255 56.6045 29.5659C56.3538 30.0063 55.9582 30.3555 55.4175 30.6133C54.8768 30.8711 54.1732 31 53.3066 31H49.332ZM50.6641 29.8184H53.3066C54.1768 29.8184 54.7944 29.6501 55.1597 29.3135C55.5285 28.9733 55.7129 28.5615 55.7129 28.0781C55.7129 27.7057 55.618 27.362 55.4282 27.0469C55.2384 26.7282 54.9681 26.474 54.6172 26.2842C54.2663 26.0908 53.8509 25.9941 53.3711 25.9941H50.6641V29.8184ZM50.6641 24.834H53.1348C53.5358 24.834 53.8975 24.7552 54.2197 24.5977C54.5456 24.4401 54.8034 24.2181 54.9932 23.9316C55.1865 23.6452 55.2832 23.3086 55.2832 22.9219C55.2832 22.4385 55.1149 22.0285 54.7783 21.6919C54.4417 21.3517 53.9082 21.1816 53.1777 21.1816H50.6641V24.834ZM61.425 31.1934C60.9023 31.1934 60.4278 31.0949 60.0017 30.8979C59.5756 30.6974 59.2372 30.4092 58.9866 30.0332C58.7359 29.6536 58.6106 29.1953 58.6106 28.6582C58.6106 28.1855 58.7037 27.8024 58.8899 27.5088C59.0761 27.2116 59.325 26.9788 59.6365 26.8105C59.948 26.6423 60.2917 26.5169 60.6677 26.4346C61.0473 26.3486 61.4286 26.2806 61.8118 26.2305C62.3131 26.166 62.7195 26.1177 63.031 26.0854C63.3461 26.0496 63.5753 25.9906 63.7185 25.9082C63.8653 25.8258 63.9387 25.6826 63.9387 25.4785V25.4355C63.9387 24.9056 63.7937 24.4938 63.5037 24.2002C63.2172 23.9066 62.7821 23.7598 62.1985 23.7598C61.5933 23.7598 61.1189 23.8923 60.7751 24.1572C60.4314 24.4222 60.1897 24.7051 60.05 25.0059L58.8469 24.5762C59.0618 24.0749 59.3482 23.6846 59.7063 23.4053C60.068 23.1224 60.4618 22.9255 60.8879 22.8145C61.3176 22.6999 61.7402 22.6426 62.1555 22.6426C62.4205 22.6426 62.7249 22.6748 63.0686 22.7393C63.4159 22.8001 63.7507 22.9272 64.073 23.1206C64.3988 23.314 64.6692 23.6058 64.884 23.9961C65.0989 24.3864 65.2063 24.9092 65.2063 25.5645V31H63.9387V29.8828H63.8743C63.7883 30.0618 63.6451 30.2534 63.4446 30.4575C63.2441 30.6616 62.9773 30.8353 62.6443 30.9785C62.3113 31.1217 61.9049 31.1934 61.425 31.1934ZM61.6184 30.0547C62.1197 30.0547 62.5422 29.9562 62.886 29.7593C63.2333 29.5623 63.4947 29.3081 63.6702 28.9966C63.8492 28.6851 63.9387 28.3574 63.9387 28.0137V26.8535C63.885 26.918 63.7668 26.9771 63.5842 27.0308C63.4052 27.0809 63.1975 27.1257 62.9612 27.165C62.7284 27.2008 62.5011 27.2331 62.2791 27.2617C62.0606 27.2868 61.8834 27.3083 61.7473 27.3262C61.4179 27.3691 61.1099 27.439 60.8235 27.5356C60.5406 27.6287 60.3114 27.7702 60.136 27.96C59.9641 28.1462 59.8782 28.4004 59.8782 28.7227C59.8782 29.1631 60.0411 29.4961 60.3669 29.7217C60.6964 29.9437 61.1135 30.0547 61.6184 30.0547ZM73.3636 24.5977L72.225 24.9199C72.1534 24.7301 72.0477 24.5457 71.9081 24.3667C71.772 24.1841 71.5858 24.0337 71.3495 23.9155C71.1132 23.7974 70.8106 23.7383 70.4418 23.7383C69.9369 23.7383 69.5162 23.8547 69.1796 24.0874C68.8466 24.3166 68.6801 24.6084 68.6801 24.9629C68.6801 25.278 68.7946 25.5269 69.0238 25.7095C69.253 25.8921 69.611 26.0443 70.098 26.166L71.3226 26.4668C72.0603 26.6458 72.6099 26.9198 72.9716 27.2886C73.3332 27.6538 73.514 28.1247 73.514 28.7012C73.514 29.1738 73.378 29.5964 73.1058 29.9687C72.8373 30.3411 72.4613 30.6348 71.9779 30.8496C71.4945 31.0645 70.9323 31.1719 70.2914 31.1719C69.4499 31.1719 68.7535 30.9893 68.202 30.624C67.6506 30.2588 67.3015 29.7253 67.1547 29.0234L68.3578 28.7227C68.4724 29.1667 68.689 29.4997 69.0077 29.7217C69.33 29.9437 69.7507 30.0547 70.2699 30.0547C70.8607 30.0547 71.3298 29.9294 71.6771 29.6787C72.028 29.4245 72.2035 29.1201 72.2035 28.7656C72.2035 28.4792 72.1032 28.2393 71.9027 28.0459C71.7022 27.849 71.3942 27.7021 70.9789 27.6055L69.6039 27.2832C68.8483 27.1042 68.2933 26.8267 67.9388 26.4507C67.5879 26.0711 67.4125 25.5967 67.4125 25.0273C67.4125 24.5618 67.5432 24.1501 67.8046 23.792C68.0695 23.4339 68.4294 23.1528 68.8842 22.9487C69.3425 22.7446 69.8617 22.6426 70.4418 22.6426C71.2582 22.6426 71.8991 22.8216 72.3646 23.1797C72.8337 23.5378 73.1667 24.0104 73.3636 24.5977ZM76.6038 27.9922L76.5823 26.4238H76.8401L80.4495 22.75H82.0178L78.1721 26.6387H78.0647L76.6038 27.9922ZM75.4221 31V20H76.6897V31H75.4221ZM80.6643 31L77.4417 26.918L78.344 26.0371L82.2756 31H80.6643ZM86.7686 31.1719C85.9736 31.1719 85.2879 30.9964 84.7114 30.6455C84.1385 30.291 83.6963 29.7969 83.3848 29.1631C83.0768 28.5257 82.9229 27.7845 82.9229 26.9395C82.9229 26.0944 83.0768 25.3496 83.3848 24.7051C83.6963 24.057 84.1296 23.5521 84.6846 23.1904C85.2432 22.8252 85.8949 22.6426 86.6396 22.6426C87.0693 22.6426 87.4937 22.7142 87.9126 22.8574C88.3315 23.0007 88.7129 23.2334 89.0566 23.5557C89.4004 23.8743 89.6743 24.2969 89.8784 24.8232C90.0825 25.3496 90.1846 25.9977 90.1846 26.7676V27.3047H83.8252V26.209H88.8955C88.8955 25.7435 88.8024 25.3281 88.6162 24.9629C88.4336 24.5977 88.1722 24.3094 87.832 24.0981C87.4954 23.8869 87.098 23.7812 86.6396 23.7812C86.1348 23.7812 85.6979 23.9066 85.3291 24.1572C84.9639 24.4043 84.6828 24.7266 84.4858 25.124C84.2889 25.5215 84.1904 25.9476 84.1904 26.4023V27.1328C84.1904 27.7559 84.2979 28.284 84.5127 28.7173C84.7311 29.147 85.0337 29.4746 85.4204 29.7002C85.8071 29.9222 86.2565 30.0332 86.7686 30.0332C87.1016 30.0332 87.4023 29.9867 87.6709 29.8936C87.943 29.7969 88.1776 29.6536 88.3745 29.4639C88.5715 29.2705 88.7236 29.0306 88.8311 28.7441L90.0557 29.0879C89.9268 29.5033 89.7101 29.8685 89.4058 30.1836C89.1014 30.4951 88.7254 30.7386 88.2778 30.9141C87.8302 31.0859 87.3271 31.1719 86.7686 31.1719ZM95.7007 22.75V23.8242H91.4253V22.75H95.7007ZM92.6714 20.7734H93.939V28.6367C93.939 28.9948 93.9909 29.2633 94.0947 29.4424C94.2021 29.6178 94.3382 29.736 94.5029 29.7969C94.6712 29.8542 94.8485 29.8828 95.0347 29.8828C95.1743 29.8828 95.2889 29.8757 95.3784 29.8613C95.4679 29.8434 95.5396 29.8291 95.5933 29.8184L95.8511 30.957C95.7651 30.9893 95.6452 31.0215 95.4912 31.0537C95.3372 31.0895 95.1421 31.1074 94.9058 31.1074C94.5477 31.1074 94.1968 31.0304 93.853 30.8765C93.5129 30.7225 93.23 30.488 93.0044 30.1729C92.7824 29.8577 92.6714 29.4603 92.6714 28.9805V20.7734ZM99.0522 20V31H97.7847V20H99.0522ZM103.802 31.1934C103.279 31.1934 102.804 31.0949 102.378 30.8979C101.952 30.6974 101.614 30.4092 101.363 30.0332C101.113 29.6536 100.987 29.1953 100.987 28.6582C100.987 28.1855 101.08 27.8024 101.266 27.5088C101.453 27.2116 101.702 26.9788 102.013 26.8105C102.325 26.6423 102.668 26.5169 103.044 26.4346C103.424 26.3486 103.805 26.2806 104.188 26.2305C104.69 26.166 105.096 26.1177 105.408 26.0854C105.723 26.0496 105.952 25.9906 106.095 25.9082C106.242 25.8258 106.315 25.6826 106.315 25.4785V25.4355C106.315 24.9056 106.17 24.4938 105.88 24.2002C105.594 23.9066 105.159 23.7598 104.575 23.7598C103.97 23.7598 103.495 23.8923 103.152 24.1572C102.808 24.4222 102.566 24.7051 102.427 25.0059L101.224 24.5762C101.438 24.0749 101.725 23.6846 102.083 23.4053C102.445 23.1224 102.838 22.9255 103.265 22.8145C103.694 22.6999 104.117 22.6426 104.532 22.6426C104.797 22.6426 105.101 22.6748 105.445 22.7393C105.793 22.8001 106.127 22.9272 106.45 23.1206C106.775 23.314 107.046 23.6058 107.261 23.9961C107.475 24.3864 107.583 24.9092 107.583 25.5645V31H106.315V29.8828H106.251C106.165 30.0618 106.022 30.2534 105.821 30.4575C105.621 30.6616 105.354 30.8353 105.021 30.9785C104.688 31.1217 104.281 31.1934 103.802 31.1934ZM103.995 30.0547C104.496 30.0547 104.919 29.9562 105.263 29.7593C105.61 29.5623 105.871 29.3081 106.047 28.9966C106.226 28.6851 106.315 28.3574 106.315 28.0137V26.8535C106.262 26.918 106.143 26.9771 105.961 27.0308C105.782 27.0809 105.574 27.1257 105.338 27.165C105.105 27.2008 104.878 27.2331 104.656 27.2617C104.437 27.2868 104.26 27.3083 104.124 27.3262C103.794 27.3691 103.487 27.439 103.2 27.5356C102.917 27.6287 102.688 27.7702 102.513 27.96C102.341 28.1462 102.255 28.4004 102.255 28.7227C102.255 29.1631 102.418 29.4961 102.744 29.7217C103.073 29.9437 103.49 30.0547 103.995 30.0547ZM109.896 31V22.75H111.121V23.9961H111.207C111.357 23.5879 111.63 23.2567 112.023 23.0024C112.417 22.7482 112.861 22.6211 113.355 22.6211C113.449 22.6211 113.565 22.6229 113.705 22.6265C113.844 22.63 113.95 22.6354 114.021 22.6426V23.9316C113.979 23.9209 113.88 23.9048 113.726 23.8833C113.576 23.8582 113.416 23.8457 113.248 23.8457C112.847 23.8457 112.489 23.9299 112.174 24.0981C111.862 24.2629 111.615 24.492 111.433 24.7856C111.254 25.0757 111.164 25.4069 111.164 25.7793V31H109.896Z" fill="#525252"/>
</g>
</g>
<defs>
<filter id="filter0_d_6_2859" x="48.332" y="19" width="66.6895" height="13.1934" filterUnits="userSpaceOnUse" color-interpolation-filters="sRGB">
<feFlood flood-opacity="0" result="BackgroundImageFix"/>
<feColorMatrix in="SourceAlpha" type="matrix" values="0 0 0 0 0 0 0 0 0 0 0 0 0 0 0 0 0 0 127 0" result="hardAlpha"/>
<feOffset/>
<feGaussianBlur stdDeviation="0.5"/>
<feComposite in2="hardAlpha" operator="out"/>
<feColorMatrix type="matrix" values="0 0 0 0 0 0 0 0 0 0 0 0 0 0 0 0 0 0 0.01 0"/>
<feBlend mode="normal" in2="BackgroundImageFix" result="effect1_dropShadow_6_2859"/>
<feBlend mode="normal" in="SourceGraphic" in2="effect1_dropShadow_6_2859" result="shape"/>
</filter>
<clipPath id="clip0_6_2859">
<rect width="24" height="24" fill="white" transform="translate(16 11)"/>
</clipPath>
<clipPath id="clip1_6_2859">
<rect width="20.5714" height="24" fill="white" transform="translate(17.7144 11)"/>
</clipPath>
<clipPath id="clip2_6_2859">
<rect width="66.77" height="20" fill="white" transform="translate(48 13)"/>
</clipPath>
</defs>
</svg>
