<svg width="250" height="46" viewBox="0 0 250 46" fill="none" xmlns="http://www.w3.org/2000/svg">
<g clip-path="url(#clip0_6_2885)">
<path d="M36.2443 16.4352C36.4055 16.4352 36.5481 16.5315 36.6107 16.6748L36.6351 16.7501L37.8043 22.1575L39.0221 22.1576C39.243 22.1577 39.422 22.3368 39.422 22.5577C39.422 22.751 39.2848 22.9122 39.1025 22.9495L39.0219 22.9576L37.8215 22.9575L36.6375 29.3155C36.6073 29.4778 36.4815 29.6019 36.3249 29.6341L36.2443 29.6422H20.0416C19.8749 29.6422 19.729 29.5395 19.6697 29.3895L19.6475 29.3108L18.5472 22.9518L17.2637 22.9528C17.0704 22.9527 16.9091 22.8155 16.8719 22.6333L16.8638 22.5526C16.8638 22.3593 17.001 22.1981 17.1833 22.1609L17.2639 22.1528L18.5518 22.1518L19.6496 16.7555C19.6821 16.5957 19.8072 16.4745 19.962 16.4431L20.0416 16.4352H36.2443ZM19.3541 22.9529L20.3783 28.8412H35.912L37.0146 22.9563L30.9897 22.9543L30.9224 23.0882C30.4092 24.023 29.4494 24.6499 28.362 24.7246L28.1429 24.7321C26.9645 24.7321 25.9087 24.0856 25.361 23.0883L25.2926 22.9543L19.3541 22.9529ZM35.9212 17.2343H20.368L19.3609 22.1529L25.5538 22.1552C25.7194 22.1552 25.8678 22.2573 25.9271 22.4119C26.2757 23.3203 27.151 23.9321 28.1429 23.9321C29.1327 23.9321 30.0078 23.3201 30.3563 22.4119C30.4057 22.283 30.5171 22.1906 30.6487 22.1634L30.7298 22.1552L36.9929 22.1575L35.9212 17.2343Z" fill="#6B6B6B"/>
</g>
<g clip-path="url(#clip1_6_2885)">
<g filter="url(#filter0_d_6_2885)">
<path d="M49.3651 31V19.7273H53.3061C54.0914 19.7273 54.7391 19.863 55.2491 20.1346C55.7592 20.4025 56.139 20.7639 56.3885 21.2189C56.638 21.6703 56.7628 22.1712 56.7628 22.7216C56.7628 23.206 56.6766 23.6059 56.5041 23.9215C56.3353 24.2371 56.1114 24.4866 55.8326 24.6701C55.5574 24.8536 55.2583 24.9893 54.9354 25.0774V25.1875C55.2803 25.2095 55.6271 25.3306 55.9757 25.5508C56.3243 25.771 56.616 26.0865 56.8509 26.4975C57.0857 26.9085 57.2031 27.4112 57.2031 28.0057C57.2031 28.5708 57.0747 29.079 56.8178 29.5304C56.561 29.9817 56.1555 30.3395 55.6014 30.6037C55.0473 30.8679 54.3262 31 53.4382 31H49.3651ZM50.7301 29.7891H53.4382C54.3299 29.7891 54.9629 29.6166 55.3372 29.2717C55.7151 28.9231 55.9041 28.5011 55.9041 28.0057C55.9041 27.6241 55.8069 27.2718 55.6124 26.9489C55.4179 26.6223 55.1409 26.3617 54.7812 26.1673C54.4216 25.9691 53.996 25.87 53.5043 25.87H50.7301V29.7891ZM50.7301 24.6811H53.2621C53.6731 24.6811 54.0437 24.6004 54.3739 24.4389C54.7079 24.2775 54.9721 24.05 55.1665 23.7564C55.3647 23.4628 55.4638 23.1179 55.4638 22.7216C55.4638 22.2262 55.2913 21.806 54.9464 21.4611C54.6014 21.1125 54.0547 20.9382 53.3061 20.9382H50.7301V24.6811ZM62.7046 31.1761C61.9414 31.1761 61.2717 30.9945 60.6956 30.6312C60.1231 30.2679 59.6755 29.7597 59.3525 29.1065C59.0333 28.4534 58.8737 27.6901 58.8737 26.8168C58.8737 25.9361 59.0333 25.1673 59.3525 24.5105C59.6755 23.8536 60.1231 23.3436 60.6956 22.9803C61.2717 22.617 61.9414 22.4354 62.7046 22.4354C63.4679 22.4354 64.1357 22.617 64.7082 22.9803C65.2843 23.3436 65.732 23.8536 66.0512 24.5105C66.3741 25.1673 66.5356 25.9361 66.5356 26.8168C66.5356 27.6901 66.3741 28.4534 66.0512 29.1065C65.732 29.7597 65.2843 30.2679 64.7082 30.6312C64.1357 30.9945 63.4679 31.1761 62.7046 31.1761ZM62.7046 30.0092C63.2844 30.0092 63.7615 29.8606 64.1357 29.5634C64.51 29.2662 64.7871 28.8754 64.9669 28.391C65.1467 27.9066 65.2366 27.3819 65.2366 26.8168C65.2366 26.2517 65.1467 25.7251 64.9669 25.237C64.7871 24.749 64.51 24.3545 64.1357 24.0536C63.7615 23.7527 63.2844 23.6023 62.7046 23.6023C62.1249 23.6023 61.6478 23.7527 61.2735 24.0536C60.8992 24.3545 60.6222 24.749 60.4424 25.237C60.2626 25.7251 60.1727 26.2517 60.1727 26.8168C60.1727 27.3819 60.2626 27.9066 60.4424 28.391C60.6222 28.8754 60.8992 29.2662 61.2735 29.5634C61.6478 29.8606 62.1249 30.0092 62.7046 30.0092ZM69.7294 27.9176L69.7074 26.3104H69.9716L73.6705 22.5455H75.2777L71.3367 26.5305H71.2266L69.7294 27.9176ZM68.5185 31V19.7273H69.8175V31H68.5185ZM73.8907 31L70.5881 26.8168L71.5128 25.9141L75.5419 31H73.8907ZM82.9383 24.4389L81.7714 24.7692C81.698 24.5747 81.5898 24.3857 81.4466 24.2022C81.3072 24.0151 81.1164 23.861 80.8742 23.7399C80.632 23.6188 80.3219 23.5582 79.944 23.5582C79.4266 23.5582 78.9954 23.6775 78.6505 23.916C78.3092 24.1509 78.1386 24.4499 78.1386 24.8132C78.1386 25.1361 78.256 25.3912 78.4909 25.5783C78.7257 25.7654 79.0927 25.9214 79.5917 26.0462L80.8467 26.3544C81.6026 26.5379 82.1659 26.8186 82.5365 27.1966C82.9071 27.5708 83.0924 28.0534 83.0924 28.6442C83.0924 29.1286 82.953 29.5616 82.6741 29.9432C82.3989 30.3248 82.0136 30.6257 81.5182 30.8459C81.0228 31.0661 80.4467 31.1761 79.7899 31.1761C78.9275 31.1761 78.2138 30.989 77.6487 30.6147C77.0836 30.2404 76.7258 29.6937 76.5754 28.9744L77.8083 28.6662C77.9258 29.1212 78.1478 29.4625 78.4743 29.69C78.8046 29.9175 79.2358 30.0312 79.7678 30.0312C80.3733 30.0312 80.854 29.9028 81.21 29.646C81.5696 29.3854 81.7494 29.0735 81.7494 28.7102C81.7494 28.4167 81.6466 28.1708 81.4411 27.9727C81.2356 27.7708 80.9201 27.6204 80.4944 27.5213L79.0853 27.1911C78.311 27.0076 77.7423 26.7232 77.379 26.3379C77.0194 25.9489 76.8396 25.4627 76.8396 24.8793C76.8396 24.4022 76.9735 23.9802 77.2414 23.6133C77.5129 23.2463 77.8817 22.9583 78.3477 22.7491C78.8174 22.54 79.3495 22.4354 79.944 22.4354C80.7806 22.4354 81.4375 22.6188 81.9145 22.9858C82.3952 23.3527 82.7365 23.8371 82.9383 24.4389ZM86.3468 19.7273V31H85.0478V19.7273H86.3468ZM91.214 31.1982C90.6782 31.1982 90.192 31.0972 89.7553 30.8954C89.3187 30.6899 88.9719 30.3945 88.715 30.0092C88.4582 29.6203 88.3297 29.1506 88.3297 28.6001C88.3297 28.1158 88.4251 27.7231 88.6159 27.4222C88.8068 27.1177 89.0618 26.8791 89.381 26.7067C89.7003 26.5342 90.0526 26.4058 90.4379 26.3214C90.8268 26.2333 91.2176 26.1636 91.6103 26.1122C92.124 26.0462 92.5405 25.9966 92.8597 25.9636C93.1826 25.9269 93.4175 25.8664 93.5643 25.782C93.7147 25.6976 93.79 25.5508 93.79 25.3416V25.2976C93.79 24.7545 93.6413 24.3325 93.3441 24.0316C93.0505 23.7307 92.6047 23.5803 92.0066 23.5803C91.3864 23.5803 90.9002 23.716 90.5479 23.9876C90.1957 24.2591 89.948 24.549 89.8049 24.8572L88.5719 24.4169C88.7921 23.9032 89.0856 23.5032 89.4526 23.217C89.8232 22.9271 90.2269 22.7253 90.6635 22.6115C91.1039 22.4941 91.5369 22.4354 91.9625 22.4354C92.2341 22.4354 92.546 22.4684 92.8983 22.5344C93.2542 22.5968 93.5973 22.7271 93.9276 22.9252C94.2615 23.1234 94.5385 23.4225 94.7587 23.8224C94.9789 24.2224 95.089 24.7582 95.089 25.4297V31H93.79V29.8551H93.7239C93.6358 30.0386 93.4891 30.2349 93.2836 30.4441C93.0781 30.6532 92.8047 30.8312 92.4634 30.978C92.1222 31.1248 91.7057 31.1982 91.214 31.1982ZM91.4121 30.0312C91.9258 30.0312 92.3588 29.9303 92.7111 29.7285C93.0671 29.5267 93.3349 29.2662 93.5147 28.9469C93.6982 28.6277 93.79 28.2919 93.79 27.9396V26.7507C93.7349 26.8168 93.6138 26.8773 93.4267 26.9324C93.2432 26.9837 93.0304 27.0296 92.7882 27.07C92.5497 27.1067 92.3166 27.1397 92.0891 27.169C91.8653 27.1947 91.6837 27.2167 91.5442 27.2351C91.2066 27.2791 90.891 27.3507 90.5975 27.4498C90.3076 27.5452 90.0727 27.6901 89.8929 27.8846C89.7168 28.0754 89.6287 28.3359 89.6287 28.6662C89.6287 29.1175 89.7957 29.4588 90.1296 29.69C90.4672 29.9175 90.8947 30.0312 91.4121 30.0312ZM97.4599 31V22.5455H98.7149V23.8224H98.803C98.9571 23.4041 99.236 23.0647 99.6396 22.8042C100.043 22.5436 100.498 22.4134 101.005 22.4134C101.1 22.4134 101.219 22.4152 101.362 22.4189C101.506 22.4225 101.614 22.428 101.687 22.4354V23.7564C101.643 23.7454 101.542 23.7289 101.384 23.7069C101.23 23.6812 101.067 23.6683 100.895 23.6683C100.484 23.6683 100.117 23.7546 99.7937 23.927C99.4745 24.0958 99.2213 24.3307 99.0341 24.6316C98.8507 24.9288 98.7589 25.2682 98.7589 25.6499V31H97.4599ZM114.5 22.5455L111.373 31H110.052L106.926 22.5455H108.335L110.669 29.2827H110.757L113.091 22.5455H114.5ZM118.445 31.1982C117.909 31.1982 117.423 31.0972 116.986 30.8954C116.55 30.6899 116.203 30.3945 115.946 30.0092C115.689 29.6203 115.561 29.1506 115.561 28.6001C115.561 28.1158 115.656 27.7231 115.847 27.4222C116.038 27.1177 116.293 26.8791 116.612 26.7067C116.931 26.5342 117.284 26.4058 117.669 26.3214C118.058 26.2333 118.449 26.1636 118.841 26.1122C119.355 26.0462 119.771 25.9966 120.091 25.9636C120.414 25.9269 120.648 25.8664 120.795 25.782C120.946 25.6976 121.021 25.5508 121.021 25.3416V25.2976C121.021 24.7545 120.872 24.3325 120.575 24.0316C120.282 23.7307 119.836 23.5803 119.238 23.5803C118.617 23.5803 118.131 23.716 117.779 23.9876C117.427 24.2591 117.179 24.549 117.036 24.8572L115.803 24.4169C116.023 23.9032 116.317 23.5032 116.684 23.217C117.054 22.9271 117.458 22.7253 117.894 22.6115C118.335 22.4941 118.768 22.4354 119.193 22.4354C119.465 22.4354 119.777 22.4684 120.129 22.5344C120.485 22.5968 120.828 22.7271 121.159 22.9252C121.492 23.1234 121.769 23.4225 121.99 23.8224C122.21 24.2224 122.32 24.7582 122.32 25.4297V31H121.021V29.8551H120.955C120.867 30.0386 120.72 30.2349 120.515 30.4441C120.309 30.6532 120.036 30.8312 119.694 30.978C119.353 31.1248 118.937 31.1982 118.445 31.1982ZM118.643 30.0312C119.157 30.0312 119.59 29.9303 119.942 29.7285C120.298 29.5267 120.566 29.2662 120.746 28.9469C120.929 28.6277 121.021 28.2919 121.021 27.9396V26.7507C120.966 26.8168 120.845 26.8773 120.658 26.9324C120.474 26.9837 120.261 27.0296 120.019 27.07C119.781 27.1067 119.548 27.1397 119.32 27.169C119.096 27.1947 118.915 27.2167 118.775 27.2351C118.438 27.2791 118.122 27.3507 117.828 27.4498C117.539 27.5452 117.304 27.6901 117.124 27.8846C116.948 28.0754 116.86 28.3359 116.86 28.6662C116.86 29.1175 117.027 29.4588 117.361 29.69C117.698 29.9175 118.126 30.0312 118.643 30.0312ZM130.261 27.9176L130.239 26.3104H130.503L134.202 22.5455H135.809L131.868 26.5305H131.758L130.261 27.9176ZM129.05 31V19.7273H130.349V31H129.05ZM134.422 31L131.12 26.8168L132.045 25.9141L136.074 31H134.422ZM140.568 31.1761C139.805 31.1761 139.135 30.9945 138.559 30.6312C137.986 30.2679 137.539 29.7597 137.216 29.1065C136.897 28.4534 136.737 27.6901 136.737 26.8168C136.737 25.9361 136.897 25.1673 137.216 24.5105C137.539 23.8536 137.986 23.3436 138.559 22.9803C139.135 22.617 139.805 22.4354 140.568 22.4354C141.331 22.4354 141.999 22.617 142.571 22.9803C143.148 23.3436 143.595 23.8536 143.915 24.5105C144.237 25.1673 144.399 25.9361 144.399 26.8168C144.399 27.6901 144.237 28.4534 143.915 29.1065C143.595 29.7597 143.148 30.2679 142.571 30.6312C141.999 30.9945 141.331 31.1761 140.568 31.1761ZM140.568 30.0092C141.148 30.0092 141.625 29.8606 141.999 29.5634C142.373 29.2662 142.65 28.8754 142.83 28.391C143.01 27.9066 143.1 27.3819 143.1 26.8168C143.1 26.2517 143.01 25.7251 142.83 25.237C142.65 24.749 142.373 24.3545 141.999 24.0536C141.625 23.7527 141.148 23.6023 140.568 23.6023C139.988 23.6023 139.511 23.7527 139.137 24.0536C138.763 24.3545 138.485 24.749 138.306 25.237C138.126 25.7251 138.036 26.2517 138.036 26.8168C138.036 27.3819 138.126 27.9066 138.306 28.391C138.485 28.8754 138.763 29.2662 139.137 29.5634C139.511 29.8606 139.988 30.0092 140.568 30.0092ZM146.382 31V22.5455H147.637V23.8665H147.747C147.923 23.4151 148.207 23.0647 148.6 22.8152C148.993 22.562 149.464 22.4354 150.015 22.4354C150.572 22.4354 151.037 22.562 151.407 22.8152C151.781 23.0647 152.073 23.4151 152.282 23.8665H152.37C152.587 23.4298 152.912 23.083 153.345 22.8262C153.778 22.5656 154.297 22.4354 154.902 22.4354C155.658 22.4354 156.277 22.6721 156.757 23.1454C157.238 23.6151 157.478 24.3472 157.478 25.3416V31H156.179V25.3416C156.179 24.7178 156.009 24.272 155.667 24.0041C155.326 23.7362 154.924 23.6023 154.462 23.6023C153.868 23.6023 153.407 23.7821 153.08 24.1417C152.754 24.4976 152.591 24.949 152.591 25.4957V31H151.27V25.2095C151.27 24.7288 151.114 24.3417 150.802 24.0481C150.49 23.7509 150.088 23.6023 149.596 23.6023C149.259 23.6023 148.943 23.6922 148.65 23.872C148.36 24.0518 148.125 24.3013 147.945 24.6206C147.769 24.9361 147.681 25.3013 147.681 25.7159V31H146.382ZM160.03 31V19.7273H161.329V23.8885H161.439C161.534 23.7417 161.666 23.5546 161.835 23.3271C162.007 23.0959 162.253 22.8904 162.573 22.7106C162.895 22.5271 163.332 22.4354 163.883 22.4354C164.594 22.4354 165.222 22.6133 165.765 22.9693C166.308 23.3252 166.732 23.8298 167.037 24.483C167.341 25.1361 167.493 25.9067 167.493 26.7947C167.493 27.6901 167.341 28.4662 167.037 29.123C166.732 29.7762 166.31 30.2826 165.771 30.6422C165.231 30.9982 164.609 31.1761 163.905 31.1761C163.362 31.1761 162.927 31.0862 162.6 30.9064C162.274 30.723 162.022 30.5156 161.846 30.2844C161.67 30.0496 161.534 29.8551 161.439 29.701H161.285V31H160.03ZM161.307 26.7727C161.307 27.4112 161.4 27.9745 161.587 28.4625C161.774 28.9469 162.048 29.3267 162.407 29.6019C162.767 29.8735 163.207 30.0092 163.728 30.0092C164.272 30.0092 164.725 29.8661 165.088 29.5799C165.455 29.29 165.73 28.901 165.914 28.413C166.101 27.9213 166.194 27.3745 166.194 26.7727C166.194 26.1783 166.103 25.6425 165.919 25.1655C165.739 24.6848 165.466 24.305 165.099 24.0261C164.736 23.7435 164.279 23.6023 163.728 23.6023C163.2 23.6023 162.756 23.7362 162.396 24.0041C162.037 24.2683 161.765 24.6389 161.582 25.1159C161.398 25.5893 161.307 26.1416 161.307 26.7727ZM172.915 31.1761C172.152 31.1761 171.482 30.9945 170.906 30.6312C170.334 30.2679 169.886 29.7597 169.563 29.1065C169.244 28.4534 169.084 27.6901 169.084 26.8168C169.084 25.9361 169.244 25.1673 169.563 24.5105C169.886 23.8536 170.334 23.3436 170.906 22.9803C171.482 22.617 172.152 22.4354 172.915 22.4354C173.678 22.4354 174.346 22.617 174.919 22.9803C175.495 23.3436 175.942 23.8536 176.262 24.5105C176.585 25.1673 176.746 25.9361 176.746 26.8168C176.746 27.6901 176.585 28.4534 176.262 29.1065C175.942 29.7597 175.495 30.2679 174.919 30.6312C174.346 30.9945 173.678 31.1761 172.915 31.1761ZM172.915 30.0092C173.495 30.0092 173.972 29.8606 174.346 29.5634C174.72 29.2662 174.998 28.8754 175.177 28.391C175.357 27.9066 175.447 27.3819 175.447 26.8168C175.447 26.2517 175.357 25.7251 175.177 25.237C174.998 24.749 174.72 24.3545 174.346 24.0536C173.972 23.7527 173.495 23.6023 172.915 23.6023C172.335 23.6023 171.858 23.7527 171.484 24.0536C171.11 24.3545 170.833 24.749 170.653 25.237C170.473 25.7251 170.383 26.2517 170.383 26.8168C170.383 27.3819 170.473 27.9066 170.653 28.391C170.833 28.8754 171.11 29.2662 171.484 29.5634C171.858 29.8606 172.335 30.0092 172.915 30.0092Z" fill="#525252"/>
</g>
</g>
<defs>
<filter id="filter0_d_6_2885" x="48.3652" y="18.7273" width="129.381" height="13.4708" filterUnits="userSpaceOnUse" color-interpolation-filters="sRGB">
<feFlood flood-opacity="0" result="BackgroundImageFix"/>
<feColorMatrix in="SourceAlpha" type="matrix" values="0 0 0 0 0 0 0 0 0 0 0 0 0 0 0 0 0 0 127 0" result="hardAlpha"/>
<feOffset/>
<feGaussianBlur stdDeviation="0.5"/>
<feComposite in2="hardAlpha" operator="out"/>
<feColorMatrix type="matrix" values="0 0 0 0 0 0 0 0 0 0 0 0 0 0 0 0 0 0 0.01 0"/>
<feBlend mode="normal" in2="BackgroundImageFix" result="effect1_dropShadow_6_2885"/>
<feBlend mode="normal" in="SourceGraphic" in2="effect1_dropShadow_6_2885" result="shape"/>
</filter>
<clipPath id="clip0_6_2885">
<rect width="24" height="24" fill="white" transform="translate(16 11)"/>
</clipPath>
<clipPath id="clip1_6_2885">
<rect width="129.78" height="20" fill="white" transform="translate(48 13)"/>
</clipPath>
</defs>
</svg>
