<svg width="250" height="46" viewBox="0 0 250 46" fill="none" xmlns="http://www.w3.org/2000/svg">
<g clip-path="url(#clip0_6_2897)">
<path d="M36.2443 16.4352C36.4055 16.4352 36.5481 16.5315 36.6107 16.6748L36.6351 16.7501L37.8043 22.1575L39.0221 22.1576C39.243 22.1577 39.422 22.3368 39.422 22.5577C39.422 22.751 39.2848 22.9122 39.1025 22.9495L39.0219 22.9576L37.8215 22.9575L36.6375 29.3155C36.6073 29.4778 36.4815 29.6019 36.3249 29.6341L36.2443 29.6422H20.0416C19.8749 29.6422 19.729 29.5395 19.6697 29.3895L19.6475 29.3108L18.5472 22.9518L17.2637 22.9528C17.0704 22.9527 16.9091 22.8155 16.8719 22.6333L16.8638 22.5526C16.8638 22.3593 17.001 22.1981 17.1833 22.1609L17.2639 22.1528L18.5518 22.1518L19.6496 16.7555C19.6821 16.5957 19.8072 16.4745 19.962 16.4431L20.0416 16.4352H36.2443ZM19.3541 22.9529L20.3783 28.8412H35.912L37.0146 22.9563L30.9897 22.9543L30.9224 23.0882C30.4092 24.023 29.4494 24.6499 28.362 24.7246L28.1429 24.7321C26.9645 24.7321 25.9087 24.0856 25.361 23.0883L25.2926 22.9543L19.3541 22.9529ZM35.9212 17.2343H20.368L19.3609 22.1529L25.5538 22.1552C25.7194 22.1552 25.8678 22.2573 25.9271 22.4119C26.2757 23.3203 27.151 23.9321 28.1429 23.9321C29.1327 23.9321 30.0078 23.3201 30.3563 22.4119C30.4057 22.283 30.5171 22.1906 30.6487 22.1634L30.7298 22.1552L36.9929 22.1575L35.9212 17.2343Z" fill="#6B6B6B"/>
</g>
<g clip-path="url(#clip1_6_2897)">
<g filter="url(#filter0_d_6_2897)">
<path d="M49.343 31V19.9091H50.6861V29.8086H55.8416V31H49.343ZM60.1957 31.195C59.6686 31.195 59.1902 31.0957 58.7606 30.8971C58.3309 30.6949 57.9898 30.4043 57.737 30.0252C57.4843 29.6425 57.358 29.1804 57.358 28.6388C57.358 28.1623 57.4518 27.776 57.6396 27.4799C57.8273 27.1803 58.0782 26.9456 58.3923 26.7759C58.7064 26.6062 59.053 26.4799 59.4321 26.3968C59.8148 26.3102 60.1993 26.2416 60.5856 26.1911C61.091 26.1261 61.5008 26.0773 61.8149 26.0448C62.1326 26.0087 62.3637 25.9492 62.5081 25.8661C62.6561 25.7831 62.7301 25.6387 62.7301 25.4329V25.3896C62.7301 24.8552 62.5839 24.44 62.2915 24.144C62.0026 23.848 61.564 23.6999 60.9755 23.6999C60.3654 23.6999 59.887 23.8335 59.5404 24.1007C59.1938 24.3678 58.9501 24.6531 58.8093 24.9563L57.5962 24.5231C57.8129 24.0176 58.1017 23.6241 58.4627 23.3425C58.8274 23.0573 59.2245 22.8587 59.6541 22.7468C60.0874 22.6313 60.5134 22.5735 60.9322 22.5735C61.1993 22.5735 61.5062 22.606 61.8528 22.671C62.203 22.7324 62.5406 22.8605 62.8655 23.0555C63.194 23.2504 63.4666 23.5447 63.6832 23.9382C63.8999 24.3317 64.0082 24.8588 64.0082 25.5195V31H62.7301V29.8736H62.6651C62.5785 30.0541 62.4341 30.2472 62.2319 30.453C62.0297 30.6588 61.7607 30.8339 61.425 30.9783C61.0892 31.1228 60.6795 31.195 60.1957 31.195ZM60.3906 30.0469C60.8961 30.0469 61.3221 29.9476 61.6687 29.749C62.0189 29.5505 62.2824 29.2941 62.4593 28.98C62.6399 28.6659 62.7301 28.3356 62.7301 27.989V26.8192C62.676 26.8842 62.5568 26.9438 62.3727 26.998C62.1922 27.0485 61.9828 27.0936 61.7445 27.1333C61.5098 27.1694 61.2806 27.2019 61.0567 27.2308C60.8365 27.2561 60.6578 27.2778 60.5206 27.2958C60.1884 27.3391 59.878 27.4095 59.5891 27.507C59.3039 27.6009 59.0729 27.7435 58.896 27.9348C58.7227 28.1226 58.636 28.3789 58.636 28.7038C58.636 29.1479 58.8003 29.4837 59.1288 29.7111C59.461 29.935 59.8816 30.0469 60.3906 30.0469ZM67.6189 25.9961V31H66.3409V22.6818H67.5756V23.9815H67.6839C67.8789 23.5591 68.1749 23.2198 68.5721 22.9634C68.9692 22.7035 69.4819 22.5735 70.1101 22.5735C70.6733 22.5735 71.1661 22.689 71.5885 22.9201C72.0109 23.1475 72.3394 23.4941 72.5741 23.9599C72.8088 24.422 72.9261 25.0069 72.9261 25.7145V31H71.6481V25.8011C71.6481 25.1477 71.4784 24.6386 71.139 24.274C70.7996 23.9057 70.3339 23.7216 69.7418 23.7216C69.3338 23.7216 68.9692 23.81 68.6479 23.9869C68.3302 24.1639 68.0793 24.422 67.8951 24.7614C67.711 25.1007 67.6189 25.5123 67.6189 25.9961ZM78.6408 31.1733C77.861 31.1733 77.1895 30.9892 76.6262 30.6209C76.063 30.2527 75.6298 29.7454 75.3265 29.0992C75.0233 28.4529 74.8716 27.7146 74.8716 26.8842C74.8716 26.0394 75.0269 25.2939 75.3374 24.6476C75.6515 23.9978 76.0883 23.4905 76.6479 23.1259C77.2111 22.7576 77.8682 22.5735 78.6191 22.5735C79.204 22.5735 79.7311 22.6818 80.2005 22.8984C80.6698 23.1151 81.0543 23.4183 81.354 23.8082C81.6536 24.1982 81.8395 24.6531 81.9118 25.1729H80.6337C80.5362 24.7939 80.3196 24.4581 79.9838 24.1657C79.6517 23.8696 79.204 23.7216 78.6408 23.7216C78.1426 23.7216 77.7057 23.8516 77.3303 24.1115C76.9584 24.3678 76.6678 24.7307 76.4584 25.2C76.2526 25.6657 76.1497 26.2127 76.1497 26.8409C76.1497 27.4835 76.2508 28.0431 76.4529 28.5197C76.6587 28.9963 76.9476 29.3663 77.3194 29.6299C77.6949 29.8934 78.1354 30.0252 78.6408 30.0252C78.973 30.0252 79.2744 29.9674 79.5452 29.8519C79.816 29.7364 80.0452 29.5703 80.233 29.3537C80.4207 29.1371 80.5543 28.8771 80.6337 28.5739H81.9118C81.8395 29.0649 81.6608 29.5071 81.3756 29.9007C81.094 30.2906 80.7203 30.6011 80.2546 30.8321C79.7925 31.0596 79.2546 31.1733 78.6408 31.1733ZM85.0582 25.9961V31H83.7801V19.9091H85.0582V23.9815H85.1665C85.3614 23.5519 85.6539 23.2107 86.0438 22.958C86.4373 22.7017 86.9608 22.5735 87.6143 22.5735C88.1811 22.5735 88.6775 22.6872 89.1035 22.9147C89.5295 23.1385 89.8599 23.4833 90.0945 23.949C90.3328 24.4112 90.452 24.9996 90.452 25.7145V31H89.1739V25.8011C89.1739 25.1404 89.0024 24.6296 88.6594 24.2686C88.3201 23.9039 87.8489 23.7216 87.246 23.7216C86.8272 23.7216 86.4517 23.81 86.1196 23.9869C85.791 24.1639 85.5311 24.422 85.3398 24.7614C85.152 25.1007 85.0582 25.5123 85.0582 25.9961ZM92.9634 31V19.9091H94.2415V24.0032H94.3498C94.4436 23.8588 94.5736 23.6747 94.7397 23.4508C94.9094 23.2234 95.1513 23.0212 95.4654 22.8443C95.7831 22.6638 96.2127 22.5735 96.7542 22.5735C97.4546 22.5735 98.072 22.7486 98.6063 23.0988C99.1407 23.449 99.5577 23.9454 99.8573 24.5881C100.157 25.2307 100.307 25.9889 100.307 26.8626C100.307 27.7435 100.157 28.5071 99.8573 29.1533C99.5577 29.796 99.1425 30.2942 98.6118 30.648C98.081 30.9982 97.4691 31.1733 96.7759 31.1733C96.2416 31.1733 95.8138 31.0848 95.4924 30.9079C95.1711 30.7274 94.9238 30.5234 94.7505 30.296C94.5772 30.0649 94.4436 29.8736 94.3498 29.7219H94.1981V31H92.9634ZM94.2198 26.8409C94.2198 27.4691 94.3119 28.0233 94.496 28.5035C94.6801 28.98 94.9491 29.3537 95.3029 29.6245C95.6567 29.8916 96.0899 30.0252 96.6026 30.0252C97.1369 30.0252 97.5828 29.8844 97.9402 29.6028C98.3013 29.3176 98.572 28.9349 98.7526 28.4547C98.9367 27.9709 99.0287 27.433 99.0287 26.8409C99.0287 26.256 98.9385 25.7289 98.758 25.2596C98.5811 24.7866 98.3121 24.413 97.9511 24.1386C97.5936 23.8606 97.1442 23.7216 96.6026 23.7216C96.0827 23.7216 95.6459 23.8534 95.2921 24.1169C94.9382 24.3769 94.6711 24.7415 94.4906 25.2108C94.3101 25.6766 94.2198 26.2199 94.2198 26.8409ZM105.641 31.1733C104.89 31.1733 104.231 30.9946 103.664 30.6372C103.101 30.2797 102.661 29.7797 102.343 29.1371C102.029 28.4944 101.872 27.7435 101.872 26.8842C101.872 26.0178 102.029 25.2614 102.343 24.6151C102.661 23.9689 103.101 23.4671 103.664 23.1096C104.231 22.7522 104.89 22.5735 105.641 22.5735C106.392 22.5735 107.049 22.7522 107.612 23.1096C108.179 23.4671 108.62 23.9689 108.934 24.6151C109.251 25.2614 109.41 26.0178 109.41 26.8842C109.41 27.7435 109.251 28.4944 108.934 29.1371C108.62 29.7797 108.179 30.2797 107.612 30.6372C107.049 30.9946 106.392 31.1733 105.641 31.1733ZM105.641 30.0252C106.211 30.0252 106.681 29.879 107.049 29.5866C107.417 29.2941 107.69 28.9096 107.867 28.4331C108.044 27.9565 108.132 27.4402 108.132 26.8842C108.132 26.3282 108.044 25.8102 107.867 25.33C107.69 24.8498 107.417 24.4617 107.049 24.1657C106.681 23.8696 106.211 23.7216 105.641 23.7216C105.071 23.7216 104.601 23.8696 104.233 24.1657C103.865 24.4617 103.592 24.8498 103.415 25.33C103.238 25.8102 103.15 26.3282 103.15 26.8842C103.15 27.4402 103.238 27.9565 103.415 28.4331C103.592 28.9096 103.865 29.2941 104.233 29.5866C104.601 29.879 105.071 30.0252 105.641 30.0252ZM112.553 27.9673L112.531 26.386H112.791L116.43 22.6818H118.011L114.134 26.6026H114.026L112.553 27.9673ZM111.361 31V19.9091H112.639V31H111.361ZM116.647 31L113.397 26.8842L114.307 25.9961L118.271 31H116.647ZM125.548 24.5447L124.4 24.8697C124.328 24.6783 124.222 24.4924 124.081 24.3119C123.944 24.1278 123.756 23.9761 123.518 23.857C123.279 23.7378 122.974 23.6783 122.602 23.6783C122.093 23.6783 121.669 23.7956 121.33 24.0303C120.994 24.2613 120.826 24.5556 120.826 24.913C120.826 25.2307 120.942 25.4816 121.173 25.6657C121.404 25.8499 121.765 26.0033 122.256 26.1261L123.49 26.4293C124.234 26.6098 124.788 26.886 125.153 27.2579C125.518 27.6262 125.7 28.1009 125.7 28.6822C125.7 29.1587 125.563 29.5848 125.288 29.9602C125.018 30.3357 124.639 30.6317 124.151 30.8484C123.664 31.065 123.097 31.1733 122.451 31.1733C121.602 31.1733 120.9 30.9892 120.344 30.6209C119.788 30.2527 119.436 29.7147 119.288 29.0071L120.501 28.7038C120.617 29.1515 120.835 29.4873 121.156 29.7111C121.481 29.935 121.906 30.0469 122.429 30.0469C123.025 30.0469 123.498 29.9205 123.848 29.6678C124.202 29.4115 124.379 29.1046 124.379 28.7472C124.379 28.4583 124.278 28.2164 124.075 28.0215C123.873 27.8229 123.563 27.6749 123.144 27.5774L121.758 27.2525C120.996 27.072 120.436 26.7922 120.079 26.4131C119.725 26.0304 119.548 25.552 119.548 24.978C119.548 24.5086 119.68 24.0935 119.943 23.7324C120.211 23.3714 120.573 23.088 121.032 22.8822C121.494 22.6764 122.017 22.5735 122.602 22.5735C123.425 22.5735 124.072 22.754 124.541 23.1151C125.014 23.4761 125.35 23.9527 125.548 24.5447ZM128.902 19.9091V31H127.624V19.9091H128.902ZM133.691 31.195C133.163 31.195 132.685 31.0957 132.255 30.8971C131.826 30.6949 131.485 30.4043 131.232 30.0252C130.979 29.6425 130.853 29.1804 130.853 28.6388C130.853 28.1623 130.947 27.776 131.134 27.4799C131.322 27.1803 131.573 26.9456 131.887 26.7759C132.201 26.6062 132.548 26.4799 132.927 26.3968C133.31 26.3102 133.694 26.2416 134.08 26.1911C134.586 26.1261 134.996 26.0773 135.31 26.0448C135.627 26.0087 135.859 25.9492 136.003 25.8661C136.151 25.7831 136.225 25.6387 136.225 25.4329V25.3896C136.225 24.8552 136.079 24.44 135.786 24.144C135.498 23.848 135.059 23.6999 134.47 23.6999C133.86 23.6999 133.382 23.8335 133.035 24.1007C132.689 24.3678 132.445 24.6531 132.304 24.9563L131.091 24.5231C131.308 24.0176 131.597 23.6241 131.958 23.3425C132.322 23.0573 132.719 22.8587 133.149 22.7468C133.582 22.6313 134.008 22.5735 134.427 22.5735C134.694 22.5735 135.001 22.606 135.348 22.671C135.698 22.7324 136.035 22.8605 136.36 23.0555C136.689 23.2504 136.961 23.5447 137.178 23.9382C137.395 24.3317 137.503 24.8588 137.503 25.5195V31H136.225V29.8736H136.16C136.073 30.0541 135.929 30.2472 135.727 30.453C135.525 30.6588 135.256 30.8339 134.92 30.9783C134.584 31.1228 134.174 31.195 133.691 31.195ZM133.885 30.0469C134.391 30.0469 134.817 29.9476 135.164 29.749C135.514 29.5505 135.777 29.2941 135.954 28.98C136.135 28.6659 136.225 28.3356 136.225 27.989V26.8192C136.171 26.8842 136.052 26.9438 135.868 26.998C135.687 27.0485 135.478 27.0936 135.239 27.1333C135.005 27.1694 134.775 27.2019 134.552 27.2308C134.331 27.2561 134.153 27.2778 134.015 27.2958C133.683 27.3391 133.373 27.4095 133.084 27.507C132.799 27.6009 132.568 27.7435 132.391 27.9348C132.218 28.1226 132.131 28.3789 132.131 28.7038C132.131 29.1479 132.295 29.4837 132.624 29.7111C132.956 29.935 133.376 30.0469 133.885 30.0469ZM139.836 31V22.6818H141.07V23.9382H141.157C141.309 23.5266 141.583 23.1927 141.98 22.9363C142.377 22.68 142.825 22.5518 143.323 22.5518C143.417 22.5518 143.535 22.5537 143.675 22.5573C143.816 22.5609 143.923 22.5663 143.995 22.5735V23.8732C143.952 23.8624 143.852 23.8461 143.697 23.8245C143.545 23.7992 143.385 23.7866 143.215 23.7866C142.811 23.7866 142.45 23.8714 142.132 24.0411C141.818 24.2072 141.569 24.4382 141.385 24.7343C141.204 25.0267 141.114 25.3607 141.114 25.7362V31H139.836Z" fill="#525252"/>
</g>
</g>
<defs>
<filter id="filter0_d_6_2897" x="48.3433" y="18.9091" width="96.6514" height="13.2859" filterUnits="userSpaceOnUse" color-interpolation-filters="sRGB">
<feFlood flood-opacity="0" result="BackgroundImageFix"/>
<feColorMatrix in="SourceAlpha" type="matrix" values="0 0 0 0 0 0 0 0 0 0 0 0 0 0 0 0 0 0 127 0" result="hardAlpha"/>
<feOffset/>
<feGaussianBlur stdDeviation="0.5"/>
<feComposite in2="hardAlpha" operator="out"/>
<feColorMatrix type="matrix" values="0 0 0 0 0 0 0 0 0 0 0 0 0 0 0 0 0 0 0.01 0"/>
<feBlend mode="normal" in2="BackgroundImageFix" result="effect1_dropShadow_6_2897"/>
<feBlend mode="normal" in="SourceGraphic" in2="effect1_dropShadow_6_2897" result="shape"/>
</filter>
<clipPath id="clip0_6_2897">
<rect width="24" height="24" fill="white" transform="translate(16 11)"/>
</clipPath>
<clipPath id="clip1_6_2897">
<rect width="96.89" height="20" fill="white" transform="translate(48 13)"/>
</clipPath>
</defs>
</svg>
