<svg width="250" height="46" viewBox="0 0 250 46" fill="none" xmlns="http://www.w3.org/2000/svg">
<g clip-path="url(#clip0_6_2813)">
<path d="M28.7007 13.7535C23.0688 13.7535 18.7039 17.1102 18.2005 21.8623L18.1304 22.6669H39.1932L39.1616 22.1953C38.8323 17.28 34.4361 13.7535 28.7007 13.7535ZM29.0443 14.6423C33.9411 14.7713 37.6476 17.6568 38.22 21.685L38.2316 21.7824H19.0998L19.0806 21.9472C19.5322 17.6849 23.4946 14.6378 28.7007 14.6378L29.0443 14.6423Z" fill="#6B6B6B"/>
<path d="M27.0498 18.7693L26.3478 18.7987C25.9713 18.8146 25.6189 19.0588 25.667 19.4719C25.7108 19.8476 26.067 20.0341 26.4242 20.0191L27.1262 19.9896C27.5041 19.9737 27.8574 19.7292 27.8067 19.314C27.7632 18.9408 27.407 18.7543 27.0498 18.7693Z" fill="#6B6B6B"/>
<path d="M31.1763 19.1291L30.6271 18.6908C30.3325 18.4558 29.9064 18.4088 29.6717 18.7522C29.4583 19.0644 29.6047 19.4389 29.8842 19.6619L30.4333 20.1002C30.729 20.3362 31.156 20.3834 31.3901 20.0368C31.6022 19.7266 31.4557 19.3521 31.1763 19.1291Z" fill="#6B6B6B"/>
<path d="M25.4495 16.3039L24.8124 16.5514C24.3804 16.7191 24.2225 17.2428 24.6361 17.553C24.8663 17.7257 25.2224 17.7569 25.4983 17.6498L26.1354 17.4024C26.5674 17.2346 26.7253 16.7109 26.3117 16.4008C26.0815 16.2281 25.7253 16.1968 25.4495 16.3039Z" fill="#6B6B6B"/>
<path d="M22.1902 18.8775C21.7419 19.1251 21.7822 19.6889 22.2316 19.9024L22.8358 20.1903C23.097 20.3144 23.4558 20.308 23.7058 20.1692C24.1531 19.9209 24.1129 19.3578 23.6636 19.1444L23.0588 18.8562C22.7984 18.7325 22.44 18.7395 22.1902 18.8775Z" fill="#6B6B6B"/>
<path d="M28.5229 16.3103C28.2184 16.4663 28.0994 16.8405 28.2632 17.1427L28.4165 17.4255C28.577 17.7203 28.9444 17.8311 29.2415 17.6788C29.546 17.5228 29.665 17.1486 29.5012 16.8464L29.3479 16.5637C29.1879 16.2685 28.8201 16.158 28.5229 16.3103Z" fill="#6B6B6B"/>
<path d="M32.0966 16.2422H31.4824C31.0913 16.2422 30.7158 16.4377 30.7158 16.8533C30.7158 17.2688 31.0913 17.4643 31.4824 17.4643H32.0966C32.488 17.4643 32.8632 17.2692 32.8632 16.8533C32.8632 16.4377 32.4877 16.2422 32.0966 16.2422Z" fill="#6B6B6B"/>
<path d="M33.4261 18.9438C33.1808 19.1835 33.1808 19.5766 33.4269 19.8159L33.6592 20.0417C33.8988 20.2747 34.282 20.2743 34.5212 20.0417C34.7675 19.8023 34.7675 19.4083 34.5212 19.1689L34.2881 18.9422C34.0484 18.7104 33.6653 18.71 33.4261 18.9438Z" fill="#6B6B6B"/>
<path d="M37.9676 23.7924H18.6127C17.6325 23.7924 16.8325 24.5701 16.8325 25.5354C16.8325 26.5008 17.6325 27.2785 18.6127 27.2785H37.9676C38.9479 27.2785 39.7478 26.5008 39.7478 25.5354C39.7478 24.5701 38.9479 23.7924 37.9676 23.7924ZM18.6127 24.6766H37.9676C38.4651 24.6766 38.8636 25.0641 38.8636 25.5354C38.8636 26.0068 38.4651 26.3943 37.9676 26.3943H18.6127C18.1153 26.3943 17.7167 26.0068 17.7167 25.5354C17.7167 25.0641 18.1153 24.6766 18.6127 24.6766Z" fill="#6B6B6B"/>
<path d="M31.0354 27.8248C30.3721 27.8248 29.9931 28.1146 29.7892 28.5756L29.7281 28.7338L29.6527 28.9667C29.6244 29.0521 29.5991 29.1195 29.5712 29.1815C29.4149 29.5294 29.1803 29.694 28.6489 29.694C28.0921 29.694 27.7391 29.4647 27.5081 29.0609C27.3617 28.8048 27.2961 28.5417 27.2823 28.3858L27.2468 27.9825H19.2827C18.5581 27.9812 18.1113 28.7739 18.5097 29.3818L19.6688 31.149C20.1221 31.8393 20.903 32.2555 21.7404 32.2555H35.7068C36.4984 32.2555 37.2423 31.8831 37.7056 31.2536L38.8207 29.3856C39.2409 28.8177 38.7986 27.9818 38.0517 27.9818H35.3075L35.2542 28.3626C35.2279 28.55 35.1411 28.857 34.9704 29.157C34.7047 29.624 34.3319 29.8852 33.7927 29.8852C32.9877 29.8852 32.6405 29.6934 32.4569 29.2989L32.3833 29.1098L32.2858 28.7404C32.1431 28.1906 31.7729 27.8248 31.0354 27.8248ZM36.0075 28.9927L36.0442 28.8649L38.0517 28.866C38.0832 28.866 38.0935 28.8855 38.0847 28.8975L36.9697 30.7653C36.6976 31.1315 36.2186 31.3713 35.7068 31.3713H21.7404C21.1991 31.3713 20.6967 31.1036 20.4081 30.6639L19.2491 28.897L19.2475 28.8839C19.2505 28.8749 19.2619 28.8667 19.2819 28.8667L26.477 28.8662L26.4973 28.9389C26.5515 29.1158 26.6303 29.307 26.7406 29.4998C27.1214 30.1657 27.7565 30.5782 28.6489 30.5782C29.5421 30.5782 30.0837 30.1983 30.3777 29.544L30.4367 29.4014L30.5721 28.9983C30.6467 28.7866 30.7333 28.709 31.0354 28.709C31.2791 28.709 31.3579 28.7524 31.4073 28.8878L31.5533 29.4172C31.5615 29.4403 31.5711 29.4654 31.5848 29.5026C31.8868 30.3194 32.5562 30.7695 33.7927 30.7695C34.6822 30.7695 35.3278 30.3169 35.7389 29.5942C35.8566 29.3873 35.9443 29.1822 36.0075 28.9927Z" fill="#6B6B6B"/>
</g>
<g clip-path="url(#clip1_6_2813)">
<g filter="url(#filter0_d_6_2813)">
<path d="M49.3651 31V19.7273H53.3061C54.0914 19.7273 54.7391 19.863 55.2491 20.1346C55.7592 20.4025 56.139 20.7639 56.3885 21.2189C56.638 21.6703 56.7628 22.1712 56.7628 22.7216C56.7628 23.206 56.6766 23.6059 56.5041 23.9215C56.3353 24.2371 56.1114 24.4866 55.8326 24.6701C55.5574 24.8536 55.2583 24.9893 54.9354 25.0774V25.1875C55.2803 25.2095 55.6271 25.3306 55.9757 25.5508C56.3243 25.771 56.616 26.0865 56.8509 26.4975C57.0857 26.9085 57.2031 27.4112 57.2031 28.0057C57.2031 28.5708 57.0747 29.079 56.8178 29.5304C56.561 29.9817 56.1555 30.3395 55.6014 30.6037C55.0473 30.8679 54.3262 31 53.4382 31H49.3651ZM50.7301 29.7891H53.4382C54.3299 29.7891 54.9629 29.6166 55.3372 29.2717C55.7151 28.9231 55.9041 28.5011 55.9041 28.0057C55.9041 27.6241 55.8069 27.2718 55.6124 26.9489C55.4179 26.6223 55.1409 26.3617 54.7812 26.1673C54.4216 25.9691 53.996 25.87 53.5043 25.87H50.7301V29.7891ZM50.7301 24.6811H53.2621C53.6731 24.6811 54.0437 24.6004 54.3739 24.4389C54.7079 24.2775 54.9721 24.05 55.1665 23.7564C55.3647 23.4628 55.4638 23.1179 55.4638 22.7216C55.4638 22.2262 55.2913 21.806 54.9464 21.4611C54.6014 21.1125 54.0547 20.9382 53.3061 20.9382H50.7301V24.6811ZM64.5981 27.5433V22.5455H65.8971V31H64.5981V29.5689H64.51C64.3119 29.9982 64.0036 30.3633 63.5853 30.6642C63.167 30.9615 62.6386 31.1101 62.0001 31.1101C61.4717 31.1101 61.002 30.9945 60.591 30.7633C60.18 30.5285 59.8571 30.1762 59.6222 29.7065C59.3874 29.2331 59.27 28.6368 59.27 27.9176V22.5455H60.569V27.8295C60.569 28.446 60.7414 28.9377 61.0864 29.3047C61.435 29.6716 61.879 29.8551 62.4184 29.8551C62.7413 29.8551 63.0698 29.7725 63.4037 29.6074C63.7413 29.4423 64.0238 29.1891 64.2513 28.8478C64.4825 28.5066 64.5981 28.0717 64.5981 27.5433ZM68.2763 31V22.5455H69.5313V23.8224H69.6194C69.7735 23.4041 70.0524 23.0647 70.456 22.8042C70.8597 22.5436 71.3147 22.4134 71.8211 22.4134C71.9165 22.4134 72.0357 22.4152 72.1788 22.4189C72.322 22.4225 72.4302 22.428 72.5036 22.4354V23.7564C72.4596 23.7454 72.3587 23.7289 72.2009 23.7069C72.0467 23.6812 71.8834 23.6683 71.711 23.6683C71.3 23.6683 70.933 23.7546 70.6101 23.927C70.2909 24.0958 70.0377 24.3307 69.8505 24.6316C69.6671 24.9288 69.5753 25.2682 69.5753 25.6499V31H68.2763ZM77.1987 34.3466C76.5712 34.3466 76.0318 34.2659 75.5805 34.1044C75.1291 33.9466 74.753 33.7375 74.4521 33.4769C74.1549 33.2201 73.9182 32.9448 73.7421 32.6513L74.7769 31.9247C74.8943 32.0788 75.0429 32.255 75.2227 32.4531C75.4025 32.6549 75.6484 32.8292 75.9603 32.976C76.2758 33.1265 76.6887 33.2017 77.1987 33.2017C77.8813 33.2017 78.4445 33.0366 78.8885 32.7063C79.3325 32.3761 79.5546 31.8587 79.5546 31.1541V29.4368H79.4445C79.3491 29.5909 79.2133 29.7817 79.0372 30.0092C78.8647 30.2331 78.6152 30.4331 78.2886 30.6092C77.9657 30.7817 77.529 30.8679 76.9786 30.8679C76.296 30.8679 75.6832 30.7064 75.1401 30.3835C74.6007 30.0606 74.1732 29.5909 73.8576 28.9744C73.5457 28.358 73.3898 27.6094 73.3898 26.7287C73.3898 25.8627 73.5421 25.1086 73.8466 24.4664C74.1512 23.8206 74.575 23.3216 75.1181 22.9693C75.6612 22.6133 76.2887 22.4354 77.0006 22.4354C77.551 22.4354 77.9877 22.5271 78.3106 22.7106C78.6372 22.8904 78.8867 23.0959 79.0592 23.3271C79.2353 23.5546 79.3711 23.7417 79.4665 23.8885H79.5986V22.5455H80.8536V31.2422C80.8536 31.9688 80.6884 32.5595 80.3582 33.0146C80.0316 33.4732 79.5912 33.809 79.0372 34.0218C78.4867 34.2383 77.8739 34.3466 77.1987 34.3466ZM77.1547 29.701C77.6758 29.701 78.1161 29.5817 78.4757 29.3432C78.8353 29.1047 79.1087 28.7616 79.2959 28.3139C79.483 27.8662 79.5766 27.3305 79.5766 26.7067C79.5766 26.0975 79.4848 25.56 79.3014 25.0939C79.1179 24.6279 78.8463 24.2628 78.4867 23.9986C78.1271 23.7344 77.6831 23.6023 77.1547 23.6023C76.6043 23.6023 76.1456 23.7417 75.7786 24.0206C75.4153 24.2995 75.142 24.6738 74.9585 25.1435C74.7787 25.6132 74.6888 26.1342 74.6888 26.7067C74.6888 27.2938 74.7805 27.813 74.964 28.2644C75.1511 28.7121 75.4264 29.0643 75.7896 29.3212C76.1566 29.5744 76.6116 29.701 77.1547 29.701ZM86.7761 31.1761C85.9615 31.1761 85.2588 30.9963 84.668 30.6367C84.0809 30.2734 83.6277 29.767 83.3085 29.1175C82.9929 28.4644 82.8351 27.7048 82.8351 26.8388C82.8351 25.9728 82.9929 25.2095 83.3085 24.549C83.6277 23.8848 84.0717 23.3674 84.6405 22.9968C85.2129 22.6225 85.8808 22.4354 86.644 22.4354C87.0844 22.4354 87.5192 22.5088 87.9486 22.6555C88.3779 22.8023 88.7687 23.0408 89.121 23.3711C89.4732 23.6977 89.754 24.1307 89.9631 24.6701C90.1723 25.2095 90.2769 25.8737 90.2769 26.6626V27.2131H83.7598V26.0902H88.9558C88.9558 25.6132 88.8604 25.1875 88.6696 24.8132C88.4825 24.4389 88.2146 24.1435 87.866 23.927C87.5211 23.7105 87.1137 23.6023 86.644 23.6023C86.1266 23.6023 85.679 23.7307 85.301 23.9876C84.9267 24.2408 84.6387 24.571 84.4368 24.9783C84.235 25.3857 84.1341 25.8223 84.1341 26.2884V27.0369C84.1341 27.6754 84.2442 28.2167 84.4644 28.6607C84.6882 29.101 84.9983 29.4368 85.3946 29.668C85.7909 29.8955 86.2514 30.0092 86.7761 30.0092C87.1174 30.0092 87.4256 29.9615 87.7009 29.8661C87.9797 29.767 88.2201 29.6203 88.4219 29.4258C88.6237 29.2276 88.7797 28.9818 88.8898 28.6882L90.1448 29.0405C90.0127 29.4661 89.7906 29.8404 89.4787 30.1634C89.1668 30.4826 88.7815 30.7321 88.3228 30.9119C87.8642 31.0881 87.3486 31.1761 86.7761 31.1761ZM92.2529 31V22.5455H93.5079V23.8224H93.5959C93.75 23.4041 94.0289 23.0647 94.4326 22.8042C94.8362 22.5436 95.2912 22.4134 95.7976 22.4134C95.893 22.4134 96.0123 22.4152 96.1554 22.4189C96.2985 22.4225 96.4068 22.428 96.4802 22.4354V23.7564C96.4361 23.7454 96.3352 23.7289 96.1774 23.7069C96.0233 23.6812 95.86 23.6683 95.6875 23.6683C95.2766 23.6683 94.9096 23.7546 94.5867 23.927C94.2674 24.0958 94.0142 24.3307 93.8271 24.6316C93.6436 24.9288 93.5519 25.2682 93.5519 25.6499V31H92.2529ZM99.319 19.7273V31H98.02V19.7273H99.319ZM104.186 31.1982C103.65 31.1982 103.164 31.0972 102.727 30.8954C102.291 30.6899 101.944 30.3945 101.687 30.0092C101.43 29.6203 101.302 29.1506 101.302 28.6001C101.302 28.1158 101.397 27.7231 101.588 27.4222C101.779 27.1177 102.034 26.8791 102.353 26.7067C102.672 26.5342 103.025 26.4058 103.41 26.3214C103.799 26.2333 104.19 26.1636 104.582 26.1122C105.096 26.0462 105.513 25.9966 105.832 25.9636C106.155 25.9269 106.39 25.8664 106.536 25.782C106.687 25.6976 106.762 25.5508 106.762 25.3416V25.2976C106.762 24.7545 106.614 24.3325 106.316 24.0316C106.023 23.7307 105.577 23.5803 104.979 23.5803C104.359 23.5803 103.872 23.716 103.52 23.9876C103.168 24.2591 102.92 24.549 102.777 24.8572L101.544 24.4169C101.764 23.9032 102.058 23.5032 102.425 23.217C102.795 22.9271 103.199 22.7253 103.636 22.6115C104.076 22.4941 104.509 22.4354 104.935 22.4354C105.206 22.4354 105.518 22.4684 105.87 22.5344C106.226 22.5968 106.569 22.7271 106.9 22.9252C107.234 23.1234 107.511 23.4225 107.731 23.8224C107.951 24.2224 108.061 24.7582 108.061 25.4297V31H106.762V29.8551H106.696C106.608 30.0386 106.461 30.2349 106.256 30.4441C106.05 30.6532 105.777 30.8312 105.436 30.978C105.094 31.1248 104.678 31.1982 104.186 31.1982ZM104.384 30.0312C104.898 30.0312 105.331 29.9303 105.683 29.7285C106.039 29.5267 106.307 29.2662 106.487 28.9469C106.67 28.6277 106.762 28.2919 106.762 27.9396V26.7507C106.707 26.8168 106.586 26.8773 106.399 26.9324C106.215 26.9837 106.003 27.0296 105.76 27.07C105.522 27.1067 105.289 27.1397 105.061 27.169C104.837 27.1947 104.656 27.2167 104.516 27.2351C104.179 27.2791 103.863 27.3507 103.57 27.4498C103.28 27.5452 103.045 27.6901 102.865 27.8846C102.689 28.0754 102.601 28.3359 102.601 28.6662C102.601 29.1175 102.768 29.4588 103.102 29.69C103.439 29.9175 103.867 30.0312 104.384 30.0312ZM110.432 31V22.5455H111.687V23.8224H111.775C111.929 23.4041 112.208 23.0647 112.612 22.8042C113.015 22.5436 113.47 22.4134 113.977 22.4134C114.072 22.4134 114.191 22.4152 114.335 22.4189C114.478 22.4225 114.586 22.428 114.659 22.4354V23.7564C114.615 23.7454 114.514 23.7289 114.357 23.7069C114.203 23.6812 114.039 23.6683 113.867 23.6683C113.456 23.6683 113.089 23.7546 112.766 23.927C112.447 24.0958 112.193 24.3307 112.006 24.6316C111.823 24.9288 111.731 25.2682 111.731 25.6499V31H110.432Z" fill="#525252"/>
</g>
</g>
<defs>
<filter id="filter0_d_6_2813" x="48.3652" y="18.7273" width="67.2939" height="16.6193" filterUnits="userSpaceOnUse" color-interpolation-filters="sRGB">
<feFlood flood-opacity="0" result="BackgroundImageFix"/>
<feColorMatrix in="SourceAlpha" type="matrix" values="0 0 0 0 0 0 0 0 0 0 0 0 0 0 0 0 0 0 127 0" result="hardAlpha"/>
<feOffset/>
<feGaussianBlur stdDeviation="0.5"/>
<feComposite in2="hardAlpha" operator="out"/>
<feColorMatrix type="matrix" values="0 0 0 0 0 0 0 0 0 0 0 0 0 0 0 0 0 0 0.01 0"/>
<feBlend mode="normal" in2="BackgroundImageFix" result="effect1_dropShadow_6_2813"/>
<feBlend mode="normal" in="SourceGraphic" in2="effect1_dropShadow_6_2813" result="shape"/>
</filter>
<clipPath id="clip0_6_2813">
<rect width="24" height="24" fill="white" transform="translate(16 11)"/>
</clipPath>
<clipPath id="clip1_6_2813">
<rect width="67.75" height="20" fill="white" transform="translate(48 13)"/>
</clipPath>
</defs>
</svg>
