<svg width="250" height="46" viewBox="0 0 250 46" fill="none" xmlns="http://www.w3.org/2000/svg">
<rect opacity="0.2" width="250" height="46" rx="23" fill="#E4002B"/>
<path d="M36.1224 30.6879C36.1224 30.8395 36.0622 30.9848 35.955 31.092C35.8478 31.1992 35.7025 31.2594 35.5509 31.2594H30.7944L28.1087 33.9451C28.0015 34.0522 27.8562 34.1124 27.7047 34.1124C27.5531 34.1124 27.4078 34.0522 27.3007 33.9451L24.6149 31.2594H19.8595C19.708 31.2594 19.5626 31.1992 19.4554 31.092C19.3483 30.9848 19.2881 30.8395 19.2881 30.6879V25.9314L16.6024 23.2457C16.4952 23.1385 16.4351 22.9932 16.4351 22.8417C16.4351 22.6901 16.4952 22.5448 16.6024 22.4377L19.2881 19.7519V14.9954C19.2881 14.8438 19.3483 14.6985 19.4554 14.5913C19.5626 14.4841 19.708 14.4239 19.8595 14.4239H24.6149L27.3007 11.7382C27.4078 11.6311 27.5531 11.5709 27.7047 11.5709C27.8562 11.5709 28.0015 11.6311 28.1087 11.7382L30.7944 14.4239H35.5509C35.7025 14.4239 35.8478 14.4841 35.955 14.5913C36.0622 14.6985 36.1224 14.8438 36.1224 14.9954V19.7519L38.8081 22.4377C38.9152 22.5448 38.9754 22.6901 38.9754 22.8417C38.9754 22.9932 38.9152 23.1385 38.8081 23.2457L36.1224 25.9314V30.6879ZM34.9795 30.1165V25.6948C34.9798 25.5434 35.0403 25.3983 35.1475 25.2914L37.5966 22.8422L35.1475 20.3931C35.0943 20.34 35.052 20.277 35.0232 20.2075C34.9944 20.1381 34.9795 20.0637 34.9795 19.9885V15.5668H30.5578C30.4065 15.5668 30.2615 15.5068 30.1544 15.3999L27.7052 12.9508L25.2561 15.3999C25.2029 15.453 25.1398 15.495 25.0704 15.5236C25.001 15.5523 24.9266 15.5669 24.8515 15.5668H20.4309V19.9897C20.4306 20.1411 20.3702 20.2862 20.2629 20.3931L17.8138 22.8422L20.2629 25.2914C20.3702 25.3983 20.4306 25.5434 20.4309 25.6948V30.1177H24.8515C24.9266 30.1175 25.001 30.1322 25.0704 30.1608C25.1398 30.1895 25.2029 30.2315 25.2561 30.2845L27.7052 32.7325L30.1544 30.2845C30.2613 30.1773 30.4064 30.1168 30.5578 30.1165H34.9795Z" fill="#E4002B"/>
<path d="M32.4389 27.0045C32.4389 27.1561 32.3787 27.3014 32.2715 27.4086C32.1643 27.5158 32.019 27.576 31.8674 27.576H29.456L28.1086 28.9234C28.0014 29.0305 27.8561 29.0907 27.7046 29.0907C27.5531 29.0907 27.4077 29.0305 27.3006 28.9234L25.9543 27.576H23.5429C23.3913 27.576 23.246 27.5158 23.1388 27.4086C23.0316 27.3014 22.9714 27.1561 22.9714 27.0045V24.5931L21.6229 23.2445C21.5157 23.1374 21.4556 22.9921 21.4556 22.8405C21.4556 22.689 21.5157 22.5437 21.6229 22.4365L22.9714 21.0914V18.68C22.9714 18.5284 23.0316 18.3831 23.1388 18.2759C23.246 18.1687 23.3913 18.1085 23.5429 18.1085H25.9543L27.3006 16.76C27.4077 16.6528 27.5531 16.5927 27.7046 16.5927C27.8561 16.5927 28.0014 16.6528 28.1086 16.76L29.456 18.1062H31.8674C32.019 18.1062 32.1643 18.1664 32.2715 18.2736C32.3787 18.3808 32.4389 18.5261 32.4389 18.6777V21.0914L33.7863 22.4377C33.8934 22.5448 33.9536 22.6901 33.9536 22.8417C33.9536 22.9932 33.8934 23.1385 33.7863 23.2457L32.4389 24.592V27.0045ZM31.296 24.3554C31.2964 24.204 31.3568 24.0589 31.464 23.952L32.5726 22.8422L31.464 21.7325C31.4108 21.6795 31.3685 21.6164 31.3397 21.547C31.3109 21.4776 31.296 21.4031 31.296 21.328V19.2514H29.2183C29.067 19.2514 28.922 19.1914 28.8149 19.0845L27.7052 17.9748L26.5954 19.0834C26.5424 19.1366 26.4793 19.1789 26.4099 19.2077C26.3405 19.2365 26.266 19.2514 26.1909 19.2514H24.1143V21.3291C24.1144 21.4042 24.0998 21.4786 24.0711 21.548C24.0425 21.6174 24.0005 21.6805 23.9474 21.7337L22.8377 22.8422L23.9463 23.9531C24.0535 24.06 24.114 24.2051 24.1143 24.3565V26.4342H26.192C26.2672 26.4343 26.3416 26.4491 26.411 26.4779C26.4805 26.5068 26.5435 26.549 26.5966 26.6022L27.7052 27.7108L28.816 26.6022C28.9229 26.495 29.068 26.4346 29.2194 26.4342H31.2972V24.3565L31.296 24.3554Z" fill="#E4002B"/>
<g clip-path="url(#clip0_6_2795)">
<g filter="url(#filter0_d_6_2795)">
<path d="M57.6043 23.5601H55.485C55.4463 23.2859 55.3673 23.0423 55.248 22.8295C55.1286 22.6133 54.9754 22.4295 54.7883 22.2779C54.6012 22.1263 54.3851 22.0101 54.14 21.9295C53.898 21.8489 53.6352 21.8085 53.3513 21.8085C52.8384 21.8085 52.3917 21.936 52.0111 22.1908C51.6304 22.4424 51.3353 22.8101 51.1256 23.2939C50.916 23.7746 50.8111 24.3584 50.8111 25.0455C50.8111 25.7519 50.916 26.3454 51.1256 26.826C51.3385 27.3066 51.6353 27.6695 52.0159 27.9146C52.3965 28.1598 52.8368 28.2824 53.3368 28.2824C53.6174 28.2824 53.8771 28.2453 54.1158 28.1711C54.3577 28.0969 54.5722 27.9888 54.7593 27.8469C54.9464 27.7017 55.1012 27.526 55.2238 27.3195C55.3496 27.1131 55.4367 26.8776 55.485 26.6131L57.6043 26.6228C57.5494 27.0776 57.4123 27.5163 57.193 27.9388C56.9769 28.3582 56.685 28.7339 56.3173 29.0662C55.9528 29.3952 55.5173 29.6565 55.0109 29.85C54.5077 30.0403 53.9384 30.1355 53.3029 30.1355C52.4191 30.1355 51.6288 29.9355 50.9321 29.5355C50.2386 29.1355 49.6902 28.5565 49.287 27.7985C48.887 27.0405 48.6871 26.1228 48.6871 25.0455C48.6871 23.9649 48.8903 23.0456 49.2967 22.2876C49.7031 21.5295 50.2547 20.9521 50.9514 20.5554C51.6482 20.1554 52.432 19.9554 53.3029 19.9554C53.8771 19.9554 54.4093 20.0361 54.8996 20.1974C55.3931 20.3586 55.8302 20.5941 56.2108 20.9038C56.5914 21.2102 56.9011 21.586 57.1398 22.0311C57.3817 22.4763 57.5365 22.9859 57.6043 23.5601ZM62.4258 30.1452C61.6742 30.1452 61.0242 29.9855 60.4759 29.6661C59.9307 29.3436 59.5098 28.8952 59.213 28.3211C58.9163 27.7437 58.7679 27.0744 58.7679 26.3131C58.7679 25.5454 58.9163 24.8745 59.213 24.3003C59.5098 23.723 59.9307 23.2746 60.4759 22.9553C61.0242 22.6327 61.6742 22.4714 62.4258 22.4714C63.1773 22.4714 63.8257 22.6327 64.3708 22.9553C64.9192 23.2746 65.3417 23.723 65.6385 24.3003C65.9352 24.8745 66.0836 25.5454 66.0836 26.3131C66.0836 27.0744 65.9352 27.7437 65.6385 28.3211C65.3417 28.8952 64.9192 29.3436 64.3708 29.6661C63.8257 29.9855 63.1773 30.1452 62.4258 30.1452ZM62.4354 28.5485C62.7774 28.5485 63.0628 28.4517 63.2918 28.2582C63.5209 28.0614 63.6934 27.7937 63.8095 27.455C63.9289 27.1163 63.9886 26.7308 63.9886 26.2986C63.9886 25.8664 63.9289 25.4809 63.8095 25.1422C63.6934 24.8035 63.5209 24.5358 63.2918 24.339C63.0628 24.1423 62.7774 24.0439 62.4354 24.0439C62.0903 24.0439 61.8 24.1423 61.5645 24.339C61.3323 24.5358 61.1565 24.8035 61.0371 25.1422C60.921 25.4809 60.8629 25.8664 60.8629 26.2986C60.8629 26.7308 60.921 27.1163 61.0371 27.455C61.1565 27.7937 61.3323 28.0614 61.5645 28.2582C61.8 28.4517 62.0903 28.5485 62.4354 28.5485ZM67.4239 30V22.5682H69.3883V23.8794H69.4753C69.6302 23.4439 69.8882 23.1004 70.2495 22.8488C70.6108 22.5972 71.043 22.4714 71.5462 22.4714C72.0558 22.4714 72.4897 22.5988 72.8477 22.8536C73.2058 23.1052 73.4445 23.4472 73.5638 23.8794H73.6412C73.7928 23.4536 74.067 23.1133 74.4638 22.8585C74.8637 22.6004 75.3363 22.4714 75.8814 22.4714C76.5749 22.4714 77.1378 22.6924 77.57 23.1343C78.0055 23.573 78.2232 24.1955 78.2232 25.0019V30H76.1669V25.4083C76.1669 24.9955 76.0572 24.6858 75.8379 24.4794C75.6185 24.2729 75.3443 24.1697 75.0153 24.1697C74.6412 24.1697 74.3492 24.289 74.1396 24.5277C73.9299 24.7632 73.8251 25.0745 73.8251 25.4616V30H71.8268V25.3648C71.8268 25.0003 71.722 24.71 71.5123 24.4939C71.3059 24.2778 71.0333 24.1697 70.6946 24.1697C70.4656 24.1697 70.2592 24.2278 70.0753 24.3439C69.8947 24.4568 69.7511 24.6164 69.6447 24.8229C69.5382 25.0261 69.485 25.2648 69.485 25.539V30H67.4239ZM79.89 30V20.0909H81.9512V23.8165H82.0141C82.1044 23.6165 82.2351 23.4133 82.406 23.2069C82.5802 22.9972 82.806 22.823 83.0834 22.6843C83.364 22.5424 83.7124 22.4714 84.1285 22.4714C84.6704 22.4714 85.1704 22.6133 85.6284 22.8972C86.0865 23.1778 86.4526 23.602 86.7267 24.1697C87.0009 24.7342 87.138 25.4422 87.138 26.2938C87.138 27.1228 87.0041 27.8227 86.7364 28.3936C86.4719 28.9614 86.1106 29.392 85.6526 29.6855C85.1978 29.9758 84.6882 30.121 84.1237 30.121C83.7237 30.121 83.3834 30.0548 83.1028 29.9226C82.8254 29.7903 82.598 29.6242 82.4205 29.4242C82.2431 29.221 82.1077 29.0162 82.0141 28.8097H81.9222V30H79.89ZM81.9077 26.2841C81.9077 26.726 81.969 27.1115 82.0915 27.4405C82.2141 27.7695 82.3915 28.0259 82.6238 28.2098C82.856 28.3904 83.1382 28.4807 83.4705 28.4807C83.8059 28.4807 84.0898 28.3888 84.322 28.2049C84.5543 28.0179 84.7301 27.7598 84.8494 27.4308C84.972 27.0986 85.0333 26.7163 85.0333 26.2841C85.0333 25.8551 84.9736 25.4777 84.8543 25.1519C84.7349 24.8261 84.5591 24.5713 84.3269 24.3874C84.0946 24.2036 83.8092 24.1116 83.4705 24.1116C83.135 24.1116 82.8512 24.2003 82.6189 24.3778C82.3899 24.5552 82.2141 24.8068 82.0915 25.1325C81.969 25.4583 81.9077 25.8422 81.9077 26.2841ZM91.8712 30.1452C91.1196 30.1452 90.4697 29.9855 89.9213 29.6661C89.3762 29.3436 88.9552 28.8952 88.6585 28.3211C88.3617 27.7437 88.2133 27.0744 88.2133 26.3131C88.2133 25.5454 88.3617 24.8745 88.6585 24.3003C88.9552 23.723 89.3762 23.2746 89.9213 22.9553C90.4697 22.6327 91.1196 22.4714 91.8712 22.4714C92.6228 22.4714 93.2711 22.6327 93.8162 22.9553C94.3646 23.2746 94.7872 23.723 95.0839 24.3003C95.3807 24.8745 95.529 25.5454 95.529 26.3131C95.529 27.0744 95.3807 27.7437 95.0839 28.3211C94.7872 28.8952 94.3646 29.3436 93.8162 29.6661C93.2711 29.9855 92.6228 30.1452 91.8712 30.1452ZM91.8809 28.5485C92.2228 28.5485 92.5083 28.4517 92.7373 28.2582C92.9663 28.0614 93.1389 27.7937 93.255 27.455C93.3743 27.1163 93.434 26.7308 93.434 26.2986C93.434 25.8664 93.3743 25.4809 93.255 25.1422C93.1389 24.8035 92.9663 24.5358 92.7373 24.339C92.5083 24.1423 92.2228 24.0439 91.8809 24.0439C91.5357 24.0439 91.2454 24.1423 91.01 24.339C90.7777 24.5358 90.6019 24.8035 90.4826 25.1422C90.3664 25.4809 90.3084 25.8664 90.3084 26.2986C90.3084 26.7308 90.3664 27.1163 90.4826 27.455C90.6019 27.7937 90.7777 28.0614 91.01 28.2582C91.2454 28.4517 91.5357 28.5485 91.8809 28.5485Z" fill="#E4002B"/>
</g>
</g>
<defs>
<filter id="filter0_d_6_2795" x="47.687" y="18.9554" width="48.8418" height="12.1897" filterUnits="userSpaceOnUse" color-interpolation-filters="sRGB">
<feFlood flood-opacity="0" result="BackgroundImageFix"/>
<feColorMatrix in="SourceAlpha" type="matrix" values="0 0 0 0 0 0 0 0 0 0 0 0 0 0 0 0 0 0 127 0" result="hardAlpha"/>
<feOffset/>
<feGaussianBlur stdDeviation="0.5"/>
<feComposite in2="hardAlpha" operator="out"/>
<feColorMatrix type="matrix" values="0 0 0 0 0 0 0 0 0 0 0 0 0 0 0 0 0 0 0.01 0"/>
<feBlend mode="normal" in2="BackgroundImageFix" result="effect1_dropShadow_6_2795"/>
<feBlend mode="normal" in="SourceGraphic" in2="effect1_dropShadow_6_2795" result="shape"/>
</filter>
<clipPath id="clip0_6_2795">
<rect width="48.91" height="20" fill="white" transform="translate(48 13)"/>
</clipPath>
</defs>
</svg>
