<svg width="33" height="33" viewBox="0 0 33 33" fill="none" xmlns="http://www.w3.org/2000/svg">
<g filter="url(#filter0_d_6_2755)">
<path d="M16.253 0.403198C9.57053 0.403198 4.15625 5.81748 4.15625 12.5C4.15625 19.1825 9.57053 24.5967 16.253 24.5967C22.9355 24.5967 28.3498 19.1825 28.3498 12.5C28.3498 5.81748 22.9355 0.403198 16.253 0.403198ZM16.253 5.08582C18.6236 5.08582 20.5454 7.00765 20.5454 9.3782C20.5454 11.7488 18.6236 13.6706 16.253 13.6706C13.8825 13.6706 11.9606 11.7488 11.9606 9.3782C11.9606 7.00765 13.8825 5.08582 16.253 5.08582ZM16.253 21.8652C13.3898 21.8652 10.8241 20.5677 9.10715 18.5386C10.0242 16.8119 11.8192 15.6217 13.9117 15.6217C14.0288 15.6217 14.1458 15.6413 14.258 15.6754C14.8921 15.8802 15.5555 16.0119 16.253 16.0119C16.9505 16.0119 17.6188 15.8802 18.248 15.6754C18.3602 15.6413 18.4773 15.6217 18.5943 15.6217C20.6869 15.6217 22.4819 16.8119 23.3989 18.5386C21.682 20.5677 19.1163 21.8652 16.253 21.8652Z" fill="#2F322C"/>
<path d="M16.2529 0.903198C22.6593 0.903198 27.8496 6.09357 27.8496 12.4999C27.8496 18.9062 22.6593 24.0966 16.2529 24.0966C9.84662 24.0965 4.65625 18.9062 4.65625 12.4999C4.6563 6.0936 9.84666 0.903251 16.2529 0.903198ZM18.5947 15.1219C18.4655 15.1219 18.3393 15.1381 18.2197 15.1659L18.1025 15.1971L18.0928 15.2001C17.5024 15.3922 16.887 15.5116 16.2529 15.5116C15.6983 15.5116 15.1612 15.4205 14.6357 15.2684L14.4121 15.1991L14.4033 15.1971L14.2861 15.1659C14.1667 15.1382 14.0411 15.122 13.9121 15.1219C11.6228 15.1219 9.66411 16.4252 8.66602 18.3046L8.50684 18.6034L8.72559 18.8612C10.5327 20.9968 13.2353 22.3651 16.2529 22.3651C19.2706 22.3651 21.9732 20.9969 23.7803 18.8612L23.999 18.6034L23.8408 18.3046C22.8428 16.4253 20.8839 15.1221 18.5947 15.1219ZM16.2529 4.58582C13.6064 4.58587 11.4611 6.73132 11.4609 9.37781C11.4609 12.0245 13.6063 14.1707 16.2529 14.1708C18.8996 14.1708 21.0459 12.0245 21.0459 9.37781C21.0457 6.73129 18.8995 4.58582 16.2529 4.58582Z" stroke="black"/>
</g>
<defs>
<filter id="filter0_d_6_2755" x="0.15625" y="0.403198" width="32.1934" height="32.1936" filterUnits="userSpaceOnUse" color-interpolation-filters="sRGB">
<feFlood flood-opacity="0" result="BackgroundImageFix"/>
<feColorMatrix in="SourceAlpha" type="matrix" values="0 0 0 0 0 0 0 0 0 0 0 0 0 0 0 0 0 0 127 0" result="hardAlpha"/>
<feOffset dy="4"/>
<feGaussianBlur stdDeviation="2"/>
<feComposite in2="hardAlpha" operator="out"/>
<feColorMatrix type="matrix" values="0 0 0 0 0 0 0 0 0 0 0 0 0 0 0 0 0 0 0.25 0"/>
<feBlend mode="normal" in2="BackgroundImageFix" result="effect1_dropShadow_6_2755"/>
<feBlend mode="normal" in="SourceGraphic" in2="effect1_dropShadow_6_2755" result="shape"/>
</filter>
</defs>
</svg>
