<svg width="250" height="46" viewBox="0 0 250 46" fill="none" xmlns="http://www.w3.org/2000/svg">
<g clip-path="url(#clip0_6_2935)">
<path d="M26.3574 13.8982C26.6396 13.8982 26.8713 14.1213 26.882 14.4032L26.9046 14.712C26.909 14.7578 26.9141 14.8069 26.9199 14.8591C26.9589 15.2068 27.0183 15.5538 27.1013 15.873L27.1473 16.0385L27.1976 16.1966C27.2766 16.4326 27.9203 18.0191 28.0964 18.4868C28.3948 19.2791 28.6284 19.9921 28.8012 20.6732C29.0216 21.5419 29.1321 22.3217 29.1135 23.0142C29.1056 23.3041 28.8643 23.5327 28.5745 23.5249C28.2847 23.5171 28.056 23.2758 28.0638 22.9859C28.0796 22.4024 27.9819 21.714 27.7834 20.9313C27.6539 20.4208 27.4859 19.8849 27.2776 19.3026L27.1138 18.8569C26.9478 18.4161 26.2934 16.8031 26.2027 16.5323C26.1598 16.406 26.1207 16.2742 26.0851 16.1372C26.0204 15.8887 25.9689 15.6304 25.9286 15.3692L25.8731 14.9481H23.9501L23.9454 15.024C23.9183 15.3405 23.8371 15.7748 23.6711 16.2864L23.581 16.5485C23.5428 16.6536 23.317 17.2482 23.2552 17.4136L22.9371 18.2942C22.8874 18.4372 22.8391 18.5796 22.7915 18.7229C22.5734 19.38 22.392 20.0016 22.2532 20.5863C22.0435 21.4703 21.941 22.2325 21.963 22.8384L22.0005 23.7712C22.0517 24.9028 22.1118 25.6375 22.2297 26.604L22.401 27.9702C22.4587 28.5035 22.4773 28.8751 22.4717 29.1071L22.4626 29.3435C22.4573 29.4374 22.4495 29.5458 22.4385 29.6673C22.4016 30.0723 22.3399 30.4782 22.2461 30.8618C22.1968 31.0639 22.1395 31.2551 22.0735 31.4338L21.9379 31.8157C21.8287 32.1415 21.7939 32.3123 21.7901 32.4485L21.7919 32.5455C21.7965 32.6763 21.8928 32.8557 22.0105 32.9119L22.0832 32.9294H28.5772C28.8672 32.9294 29.1022 33.1645 29.1022 33.4544C29.1022 33.7081 28.9223 33.9198 28.683 33.9688L28.5772 33.9794H22.0832C21.2852 33.9794 20.8378 33.342 20.7555 32.734L20.7415 32.5581C20.7269 32.2089 20.7989 31.8532 21.0886 31.0697C21.14 30.9307 21.1859 30.7776 21.2261 30.6127C21.3061 30.2852 21.3603 29.9291 21.3928 29.5722L21.414 29.2889L21.4219 29.0856L21.4224 28.9758C21.4193 28.7396 21.3923 28.3576 21.3256 27.809L21.1868 26.7258C21.0362 25.4897 20.977 24.6157 20.9137 22.8765C20.8877 22.1613 21.0019 21.3119 21.2316 20.3439C21.3781 19.7266 21.5679 19.0764 21.7949 18.3922C21.8931 18.0964 21.9943 17.8056 22.1028 17.5055L22.5942 16.1897C22.7861 15.662 22.873 15.226 22.898 14.9602L22.905 14.8569V14.4232C22.905 14.1695 23.0849 13.9578 23.3242 13.9089L23.43 13.8982H26.3574Z" fill="#6B6B6B"/>
<path d="M26.3744 12.0208C26.6297 12.0208 26.8422 12.203 26.8895 12.444L26.8993 12.5505L26.8822 14.428C26.8796 14.7179 26.6424 14.9508 26.3524 14.9482C26.0987 14.9459 25.8887 14.764 25.842 14.5243L25.8323 14.4184L25.8444 13.0701H23.9544L23.9548 14.4232C23.9548 14.6769 23.7748 14.8886 23.5356 14.9375L23.4298 14.9482C23.1761 14.9482 22.9644 14.7682 22.9155 14.529L22.9048 14.4232V12.5458C22.9048 12.292 23.0847 12.0804 23.324 12.0314L23.4298 12.0208H26.3744Z" fill="#6B6B6B"/>
<path d="M34.9514 22.4751H26.3517C26.0394 22.4751 25.7961 22.7461 25.8298 23.0566L26.8684 32.6436C26.9483 33.3898 27.5793 33.9566 28.3319 33.9566H33.2338C33.9864 33.9566 34.6174 33.3898 34.6974 32.643L35.4747 23.0425C35.4995 22.7368 35.2581 22.4751 34.9514 22.4751ZM26.9366 23.5236H34.3811L33.6521 32.5447C33.6305 32.7444 33.4499 32.9066 33.2338 32.9066H28.3319L28.2274 32.8936C28.06 32.8511 27.9314 32.7088 27.9123 32.5311L26.9366 23.5236Z" fill="#6B6B6B"/>
<path d="M34.4263 27.9363C34.7162 27.9363 34.9513 28.1713 34.9513 28.4613C34.9513 28.715 34.7713 28.9267 34.5321 28.9756L34.4263 28.9863H27.0763C26.7863 28.9863 26.5513 28.7512 26.5513 28.4613C26.5513 28.2076 26.7312 27.9959 26.9705 27.9469L27.0763 27.9363H34.4263Z" fill="#6B6B6B"/>
</g>
<g clip-path="url(#clip1_6_2935)">
<g filter="url(#filter0_d_6_2935)">
<path d="M55.5298 22.5455C55.4638 21.9877 55.1959 21.5547 54.7262 21.2464C54.2565 20.9382 53.6804 20.7841 52.9979 20.7841C52.4988 20.7841 52.0621 20.8648 51.6879 21.0263C51.3172 21.1877 51.0273 21.4097 50.8182 21.6923C50.6127 21.9748 50.5099 22.2959 50.5099 22.6555C50.5099 22.9564 50.5815 23.2151 50.7246 23.4316C50.8714 23.6445 51.0585 23.8224 51.286 23.9656C51.5136 24.105 51.7521 24.2206 52.0016 24.3123C52.2511 24.4004 52.4805 24.4719 52.6896 24.527L53.8345 24.8352C54.1281 24.9123 54.4547 25.0187 54.8143 25.1545C55.1776 25.2902 55.5243 25.4756 55.8546 25.7104C56.1885 25.9416 56.4637 26.2388 56.6802 26.6021C56.8967 26.9654 57.005 27.4112 57.005 27.9396C57.005 28.5488 56.8453 29.0992 56.5261 29.5909C56.2105 30.0826 55.7482 30.4734 55.139 30.7633C54.5336 31.0532 53.7978 31.1982 52.9318 31.1982C52.1245 31.1982 51.4255 31.0679 50.8347 30.8074C50.2476 30.5468 49.7852 30.1835 49.4476 29.7175C49.1137 29.2515 48.9247 28.7102 48.8807 28.0938H50.2898C50.3265 28.5194 50.4696 28.8717 50.7191 29.1506C50.9723 29.4258 51.2915 29.6313 51.6768 29.767C52.0658 29.8991 52.4841 29.9652 52.9318 29.9652C53.4529 29.9652 53.9208 29.8808 54.3354 29.712C54.7501 29.5395 55.0785 29.301 55.3207 28.9964C55.5629 28.6882 55.6839 28.3286 55.6839 27.9176C55.6839 27.5433 55.5794 27.2388 55.3702 27.0039C55.161 26.7691 54.8858 26.5782 54.5446 26.4315C54.2033 26.2847 53.8345 26.1562 53.4382 26.0462L52.0511 25.6499C51.1705 25.3967 50.4732 25.0352 49.9595 24.5655C49.4458 24.0958 49.1889 23.4812 49.1889 22.7216C49.1889 22.0904 49.3596 21.54 49.7008 21.0703C50.0458 20.5969 50.5081 20.23 51.0879 19.9695C51.6713 19.7053 52.3227 19.5732 53.0419 19.5732C53.7685 19.5732 54.4143 19.7034 54.9794 19.964C55.5445 20.2208 55.9922 20.5731 56.3224 21.0208C56.6564 21.4685 56.8325 21.9767 56.8509 22.5455H55.5298ZM62.5079 31.1761C61.7446 31.1761 61.0749 30.9945 60.4988 30.6312C59.9264 30.2679 59.4787 29.7597 59.1558 29.1065C58.8365 28.4534 58.6769 27.6901 58.6769 26.8168C58.6769 25.9361 58.8365 25.1673 59.1558 24.5105C59.4787 23.8536 59.9264 23.3436 60.4988 22.9803C61.0749 22.617 61.7446 22.4354 62.5079 22.4354C63.2711 22.4354 63.939 22.617 64.5114 22.9803C65.0875 23.3436 65.5352 23.8536 65.8544 24.5105C66.1774 25.1673 66.3388 25.9361 66.3388 26.8168C66.3388 27.6901 66.1774 28.4534 65.8544 29.1065C65.5352 29.7597 65.0875 30.2679 64.5114 30.6312C63.939 30.9945 63.2711 31.1761 62.5079 31.1761ZM62.5079 30.0092C63.0876 30.0092 63.5647 29.8606 63.939 29.5634C64.3133 29.2662 64.5903 28.8754 64.7701 28.391C64.9499 27.9066 65.0398 27.3819 65.0398 26.8168C65.0398 26.2517 64.9499 25.7251 64.7701 25.237C64.5903 24.749 64.3133 24.3545 63.939 24.0536C63.5647 23.7527 63.0876 23.6023 62.5079 23.6023C61.9281 23.6023 61.451 23.7527 61.0767 24.0536C60.7025 24.3545 60.4254 24.749 60.2456 25.237C60.0658 25.7251 59.9759 26.2517 59.9759 26.8168C59.9759 27.3819 60.0658 27.9066 60.2456 28.391C60.4254 28.8754 60.7025 29.2662 61.0767 29.5634C61.451 29.8606 61.9281 30.0092 62.5079 30.0092ZM74.9324 22.5455L71.8059 31H70.4849L67.3585 22.5455H68.7676L71.1014 29.2827H71.1895L73.5233 22.5455H74.9324ZM81.9751 27.5433V22.5455H83.2741V31H81.9751V29.5689H81.887C81.6888 29.9982 81.3806 30.3633 80.9623 30.6642C80.5439 30.9615 80.0155 31.1101 79.377 31.1101C78.8486 31.1101 78.3789 30.9945 77.968 30.7633C77.557 30.5285 77.234 30.1762 76.9992 29.7065C76.7644 29.2331 76.6469 28.6368 76.6469 27.9176V22.5455H77.9459V27.8295C77.9459 28.446 78.1184 28.9377 78.4633 29.3047C78.8119 29.6716 79.2559 29.8551 79.7954 29.8551C80.1183 29.8551 80.4467 29.7725 80.7806 29.6074C81.1182 29.4423 81.4008 29.1891 81.6283 28.8478C81.8595 28.5066 81.9751 28.0717 81.9751 27.5433ZM91.4217 34.1705V29.701H91.3117C91.2162 29.8551 91.0805 30.0496 90.9043 30.2844C90.7282 30.5156 90.4768 30.723 90.1503 30.9064C89.8237 31.0862 89.3888 31.1761 88.8457 31.1761C88.1412 31.1761 87.5192 30.9982 86.9798 30.6422C86.4404 30.2826 86.0184 29.7762 85.7138 29.123C85.4093 28.4662 85.257 27.6901 85.257 26.7947C85.257 25.9067 85.4093 25.1361 85.7138 24.483C86.0184 23.8298 86.4422 23.3252 86.9853 22.9693C87.5284 22.6133 88.1559 22.4354 88.8678 22.4354C89.4182 22.4354 89.853 22.5271 90.1723 22.7106C90.4952 22.8904 90.741 23.0959 90.9098 23.3271C91.0823 23.5546 91.2162 23.7417 91.3117 23.8885H91.4658V22.5455H92.7207V34.1705H91.4217ZM89.0219 30.0092C89.543 30.0092 89.9833 29.8735 90.3429 29.6019C90.7025 29.3267 90.9759 28.9469 91.163 28.4625C91.3502 27.9745 91.4438 27.4112 91.4438 26.7727C91.4438 26.1416 91.352 25.5893 91.1685 25.1159C90.9851 24.6389 90.7135 24.2683 90.3539 24.0041C89.9943 23.7362 89.5503 23.6023 89.0219 23.6023C88.4715 23.6023 88.0128 23.7435 87.6458 24.0261C87.2825 24.305 87.0092 24.6848 86.8257 25.1655C86.6459 25.6425 86.556 26.1783 86.556 26.7727C86.556 27.3745 86.6477 27.9213 86.8312 28.413C87.0183 28.901 87.2935 29.29 87.6568 29.5799C88.0238 29.8661 88.4788 30.0092 89.0219 30.0092ZM99.458 31V22.5455H100.757V31H99.458ZM100.118 21.1364C99.8653 21.1364 99.6469 21.0501 99.4635 20.8777C99.2837 20.7052 99.1938 20.4979 99.1938 20.2557C99.1938 20.0135 99.2837 19.8062 99.4635 19.6337C99.6469 19.4612 99.8653 19.375 100.118 19.375C100.372 19.375 100.588 19.4612 100.768 19.6337C100.951 19.8062 101.043 20.0135 101.043 20.2557C101.043 20.4979 100.951 20.7052 100.768 20.8777C100.588 21.0501 100.372 21.1364 100.118 21.1364ZM106.571 31.1761C105.778 31.1761 105.096 30.989 104.523 30.6147C103.951 30.2404 103.51 29.7248 103.202 29.068C102.894 28.4112 102.74 27.6607 102.74 26.8168C102.74 25.9581 102.898 25.2003 103.213 24.5435C103.532 23.883 103.977 23.3674 104.545 22.9968C105.118 22.6225 105.786 22.4354 106.549 22.4354C107.143 22.4354 107.679 22.5455 108.156 22.7656C108.633 22.9858 109.024 23.294 109.328 23.6903C109.633 24.0866 109.822 24.549 109.895 25.0774H108.596C108.497 24.6921 108.277 24.3509 107.936 24.0536C107.598 23.7527 107.143 23.6023 106.571 23.6023C106.064 23.6023 105.62 23.7344 105.239 23.9986C104.861 24.2591 104.565 24.6279 104.353 25.1049C104.143 25.5783 104.039 26.1342 104.039 26.7727C104.039 27.4259 104.142 27.9947 104.347 28.479C104.556 28.9634 104.85 29.3395 105.228 29.6074C105.609 29.8753 106.057 30.0092 106.571 30.0092C106.908 30.0092 107.215 29.9505 107.49 29.8331C107.765 29.7157 107.998 29.5469 108.189 29.3267C108.38 29.1065 108.516 28.8423 108.596 28.5341H109.895C109.822 29.0331 109.64 29.4827 109.35 29.8826C109.064 30.2789 108.684 30.5945 108.211 30.8294C107.741 31.0605 107.195 31.1761 106.571 31.1761ZM113.093 25.9141V31H111.794V19.7273H113.093V23.8665H113.203C113.402 23.4298 113.699 23.083 114.095 22.8262C114.495 22.5656 115.027 22.4354 115.691 22.4354C116.268 22.4354 116.772 22.551 117.205 22.7821C117.638 23.0096 117.974 23.3601 118.212 23.8335C118.455 24.3031 118.576 24.9013 118.576 25.6278V31H117.277V25.7159C117.277 25.0444 117.102 24.5252 116.754 24.1582C116.409 23.7876 115.93 23.6023 115.317 23.6023C114.891 23.6023 114.51 23.6922 114.172 23.872C113.838 24.0518 113.574 24.3142 113.38 24.6591C113.189 25.004 113.093 25.4223 113.093 25.9141ZM120.952 31V22.5455H122.251V31H120.952ZM121.613 21.1364C121.359 21.1364 121.141 21.0501 120.958 20.8777C120.778 20.7052 120.688 20.4979 120.688 20.2557C120.688 20.0135 120.778 19.8062 120.958 19.6337C121.141 19.4612 121.359 19.375 121.613 19.375C121.866 19.375 122.082 19.4612 122.262 19.6337C122.446 19.8062 122.537 20.0135 122.537 20.2557C122.537 20.4979 122.446 20.7052 122.262 20.8777C122.082 21.0501 121.866 21.1364 121.613 21.1364ZM124.63 31V22.5455H125.885V23.8665H125.995C126.172 23.4151 126.456 23.0647 126.849 22.8152C127.241 22.562 127.713 22.4354 128.263 22.4354C128.821 22.4354 129.285 22.562 129.656 22.8152C130.03 23.0647 130.322 23.4151 130.531 23.8665H130.619C130.835 23.4298 131.16 23.083 131.593 22.8262C132.026 22.5656 132.545 22.4354 133.151 22.4354C133.907 22.4354 134.525 22.6721 135.006 23.1454C135.487 23.6151 135.727 24.3472 135.727 25.3416V31H134.428V25.3416C134.428 24.7178 134.257 24.272 133.916 24.0041C133.575 23.7362 133.173 23.6023 132.711 23.6023C132.116 23.6023 131.656 23.7821 131.329 24.1417C131.002 24.4976 130.839 24.949 130.839 25.4957V31H129.518V25.2095C129.518 24.7288 129.362 24.3417 129.05 24.0481C128.738 23.7509 128.337 23.6023 127.845 23.6023C127.507 23.6023 127.192 23.6922 126.898 23.872C126.608 24.0518 126.373 24.3013 126.194 24.6206C126.017 24.9361 125.929 25.3013 125.929 25.7159V31H124.63ZM139.401 19.7273V31H138.102V19.7273H139.401ZM141.78 31V22.5455H143.079V31H141.78ZM142.441 21.1364C142.188 21.1364 141.969 21.0501 141.786 20.8777C141.606 20.7052 141.516 20.4979 141.516 20.2557C141.516 20.0135 141.606 19.8062 141.786 19.6337C141.969 19.4612 142.188 19.375 142.441 19.375C142.694 19.375 142.91 19.4612 143.09 19.6337C143.274 19.8062 143.365 20.0135 143.365 20.2557C143.365 20.4979 143.274 20.7052 143.09 20.8777C142.91 21.0501 142.694 21.1364 142.441 21.1364ZM146.669 27.9176L146.647 26.3104H146.912L150.61 22.5455H152.218L148.277 26.5305H148.167L146.669 27.9176ZM145.458 31V19.7273H146.757V31H145.458ZM150.831 31L147.528 26.8168L148.453 25.9141L152.482 31H150.831ZM155.189 19.7273V31H153.89V19.7273H155.189ZM160.056 31.1982C159.52 31.1982 159.034 31.0972 158.597 30.8954C158.16 30.6899 157.814 30.3945 157.557 30.0092C157.3 29.6203 157.172 29.1506 157.172 28.6001C157.172 28.1158 157.267 27.7231 157.458 27.4222C157.649 27.1177 157.904 26.8791 158.223 26.7067C158.542 26.5342 158.894 26.4058 159.28 26.3214C159.669 26.2333 160.059 26.1636 160.452 26.1122C160.966 26.0462 161.382 25.9966 161.702 25.9636C162.024 25.9269 162.259 25.8664 162.406 25.782C162.557 25.6976 162.632 25.5508 162.632 25.3416V25.2976C162.632 24.7545 162.483 24.3325 162.186 24.0316C161.892 23.7307 161.446 23.5803 160.848 23.5803C160.228 23.5803 159.742 23.716 159.39 23.9876C159.037 24.2591 158.79 24.549 158.647 24.8572L157.414 24.4169C157.634 23.9032 157.927 23.5032 158.294 23.217C158.665 22.9271 159.069 22.7253 159.505 22.6115C159.946 22.4941 160.379 22.4354 160.804 22.4354C161.076 22.4354 161.388 22.4684 161.74 22.5344C162.096 22.5968 162.439 22.7271 162.769 22.9252C163.103 23.1234 163.38 23.4225 163.6 23.8224C163.821 24.2224 163.931 24.7582 163.931 25.4297V31H162.632V29.8551H162.566C162.478 30.0386 162.331 30.2349 162.125 30.4441C161.92 30.6532 161.646 30.8312 161.305 30.978C160.964 31.1248 160.547 31.1982 160.056 31.1982ZM160.254 30.0312C160.768 30.0312 161.201 29.9303 161.553 29.7285C161.909 29.5267 162.177 29.2662 162.357 28.9469C162.54 28.6277 162.632 28.2919 162.632 27.9396V26.7507C162.577 26.8168 162.456 26.8773 162.268 26.9324C162.085 26.9837 161.872 27.0296 161.63 27.07C161.391 27.1067 161.158 27.1397 160.931 27.169C160.707 27.1947 160.525 27.2167 160.386 27.2351C160.048 27.2791 159.733 27.3507 159.439 27.4498C159.149 27.5452 158.915 27.6901 158.735 27.8846C158.559 28.0754 158.471 28.3359 158.471 28.6662C158.471 29.1175 158.637 29.4588 158.971 29.69C159.309 29.9175 159.737 30.0312 160.254 30.0312ZM166.302 31V22.5455H167.557V23.8224H167.645C167.799 23.4041 168.078 23.0647 168.481 22.8042C168.885 22.5436 169.34 22.4134 169.846 22.4134C169.942 22.4134 170.061 22.4152 170.204 22.4189C170.347 22.4225 170.456 22.428 170.529 22.4354V23.7564C170.485 23.7454 170.384 23.7289 170.226 23.7069C170.072 23.6812 169.909 23.6683 169.736 23.6683C169.325 23.6683 168.958 23.7546 168.636 23.927C168.316 24.0958 168.063 24.3307 167.876 24.6316C167.692 24.9288 167.601 25.2682 167.601 25.6499V31H166.302Z" fill="#525252"/>
</g>
</g>
<defs>
<filter id="filter0_d_6_2935" x="47.8809" y="18.375" width="123.648" height="16.7954" filterUnits="userSpaceOnUse" color-interpolation-filters="sRGB">
<feFlood flood-opacity="0" result="BackgroundImageFix"/>
<feColorMatrix in="SourceAlpha" type="matrix" values="0 0 0 0 0 0 0 0 0 0 0 0 0 0 0 0 0 0 127 0" result="hardAlpha"/>
<feOffset/>
<feGaussianBlur stdDeviation="0.5"/>
<feComposite in2="hardAlpha" operator="out"/>
<feColorMatrix type="matrix" values="0 0 0 0 0 0 0 0 0 0 0 0 0 0 0 0 0 0 0.01 0"/>
<feBlend mode="normal" in2="BackgroundImageFix" result="effect1_dropShadow_6_2935"/>
<feBlend mode="normal" in="SourceGraphic" in2="effect1_dropShadow_6_2935" result="shape"/>
</filter>
<clipPath id="clip0_6_2935">
<rect width="24" height="24" fill="white" transform="translate(16 11)"/>
</clipPath>
<clipPath id="clip1_6_2935">
<rect width="124.42" height="20" fill="white" transform="translate(48 13)"/>
</clipPath>
</defs>
</svg>
