<svg width="250" height="46" viewBox="0 0 250 46" fill="none" xmlns="http://www.w3.org/2000/svg">
<g clip-path="url(#clip0_6_2909)">
<path d="M28.9323 12.0162L28.9316 15.8465H30.5816L30.583 14.1542H34.3218L34.3211 19.6835L36.8746 19.6862L34.6213 33.9843H22.1815L19.8892 19.6824L22.3886 19.6805L22.3897 14.1668L25.1921 14.1665L25.1935 12.0162H28.9323ZM23.8496 20.7305L21.1196 20.732L23.0756 32.933H33.7241L35.6456 20.735L32.9876 20.732L32.8158 20.8818C32.4737 21.1585 32.1072 21.4025 31.7211 21.6103L31.6316 21.653L30.577 22.153L30.5756 22.097L30.5272 22.1158C30.1219 22.2444 29.7046 22.3357 29.2794 22.3882L28.9376 22.4195L28.9382 22.4404H27.8823L27.8816 22.4165L27.544 22.386C26.9754 22.3144 26.4214 22.1735 25.8915 21.967L25.4988 21.7999C24.9703 21.5557 24.4742 21.2461 24.0211 20.8795L23.8496 20.7305ZM30.5756 16.8965H28.9376V21.365L29.1502 21.3462C29.6316 21.2868 30.1006 21.1689 30.5491 20.9958L30.5756 20.9825V16.8965ZM27.8816 13.0655H26.2421V20.975L26.2727 20.9886C26.7225 21.1639 27.1928 21.2835 27.6754 21.3443L27.8816 21.3635V13.0655ZM33.2711 15.203H31.6316V20.441L31.8575 20.2916C31.9591 20.2193 32.0585 20.1439 32.1556 20.0653L32.4399 19.8204L32.5907 19.6821L33.2711 19.682V15.203ZM24.0431 20.207L24.3988 19.8197C24.5824 19.9879 24.7757 20.1443 24.9776 20.2881L25.1921 20.432V15.2165H23.4386V19.6805L24.0442 19.6818L24.0431 20.207Z" fill="#6B6B6B"/>
<path d="M28.3832 24.2578C26.5894 24.2578 25.1392 25.7345 25.1392 27.5513C25.1392 29.3681 26.5894 30.8448 28.3832 30.8448C30.177 30.8448 31.6272 29.3681 31.6272 27.5513C31.6272 25.7345 30.177 24.2578 28.3832 24.2578ZM28.3832 25.3078C29.5928 25.3078 30.5772 26.3102 30.5772 27.5513C30.5772 28.7924 29.5928 29.7948 28.3832 29.7948C27.1736 29.7948 26.1892 28.7924 26.1892 27.5513C26.1892 26.3102 27.1736 25.3078 28.3832 25.3078Z" fill="#6B6B6B"/>
</g>
<g clip-path="url(#clip1_6_2909)">
<g filter="url(#filter0_d_6_2909)">
<path d="M49.321 30V19.0909H50.642V24.5028H50.7699L55.6705 19.0909H57.3963L52.8153 24.0128L57.3963 30H55.7983L52.0057 24.929L50.642 26.4631V30H49.321ZM61.3434 30.1918C60.8249 30.1918 60.3544 30.0941 59.9318 29.8988C59.5092 29.6999 59.1737 29.4141 58.9251 29.0412C58.6765 28.6648 58.5522 28.2102 58.5522 27.6776C58.5522 27.2088 58.6445 26.8288 58.8292 26.5376C59.0138 26.2429 59.2607 26.0121 59.5696 25.8452C59.8786 25.6783 60.2195 25.554 60.5923 25.4723C60.9688 25.3871 61.3469 25.3196 61.7269 25.2699C62.2241 25.206 62.6271 25.158 62.9361 25.1261C63.2486 25.0906 63.4759 25.032 63.6179 24.9503C63.7635 24.8686 63.8363 24.7266 63.8363 24.5241V24.4815C63.8363 23.956 63.6925 23.5476 63.4048 23.2564C63.1207 22.9652 62.6893 22.8196 62.1104 22.8196C61.5103 22.8196 61.0398 22.951 60.6989 23.2138C60.358 23.4766 60.1183 23.7571 59.9798 24.0554L58.7866 23.6293C58.9996 23.1321 59.2837 22.745 59.6388 22.468C59.9975 22.1875 60.3881 21.9922 60.8107 21.8821C61.2369 21.7685 61.6559 21.7116 62.0678 21.7116C62.3306 21.7116 62.6325 21.7436 62.9734 21.8075C63.3178 21.8679 63.6499 21.994 63.9695 22.1857C64.2926 22.3775 64.5607 22.6669 64.7738 23.054C64.9869 23.4411 65.0934 23.9595 65.0934 24.6094V30H63.8363V28.892H63.7724C63.6871 29.0696 63.5451 29.2596 63.3462 29.462C63.1474 29.6644 62.8828 29.8366 62.5526 29.9787C62.2223 30.1207 61.8192 30.1918 61.3434 30.1918ZM61.5352 29.0625C62.0323 29.0625 62.4513 28.9648 62.7923 28.7695C63.1367 28.5742 63.396 28.3221 63.57 28.0131C63.7475 27.7042 63.8363 27.3793 63.8363 27.0384V25.8878C63.783 25.9517 63.6658 26.0103 63.4847 26.0636C63.3072 26.1133 63.1012 26.1577 62.8668 26.1967C62.636 26.2322 62.4105 26.2642 62.1903 26.2926C61.9737 26.3175 61.7979 26.3388 61.663 26.3565C61.3363 26.3991 61.0309 26.4684 60.7468 26.5643C60.4663 26.6566 60.239 26.7969 60.065 26.9851C59.8945 27.1697 59.8093 27.4219 59.8093 27.7415C59.8093 28.1783 59.9709 28.5085 60.294 28.7322C60.6207 28.9524 61.0344 29.0625 61.5352 29.0625ZM67.3879 30V21.8182H68.6024V23.054H68.6876C68.8367 22.6491 69.1066 22.3207 69.4972 22.0685C69.8879 21.8164 70.3282 21.6903 70.8183 21.6903C70.9106 21.6903 71.026 21.6921 71.1645 21.6957C71.303 21.6992 71.4078 21.7045 71.4788 21.7116V22.9901C71.4362 22.9794 71.3385 22.9634 71.1858 22.9421C71.0367 22.9173 70.8786 22.9048 70.7117 22.9048C70.314 22.9048 69.9589 22.9883 69.6464 23.1552C69.3374 23.3185 69.0924 23.5458 68.9113 23.837C68.7338 24.1246 68.645 24.4531 68.645 24.8224V30H67.3879ZM77.0399 21.8182V22.8835H72.7998V21.8182H77.0399ZM74.0356 19.858H75.2927V27.6562C75.2927 28.0114 75.3442 28.2777 75.4472 28.4553C75.5537 28.6293 75.6887 28.7464 75.852 28.8068C76.0189 28.8636 76.1947 28.892 76.3794 28.892C76.5178 28.892 76.6315 28.8849 76.7203 28.8707C76.809 28.853 76.8801 28.8388 76.9333 28.8281L77.189 29.9574C77.1038 29.9893 76.9848 30.0213 76.8321 30.0533C76.6794 30.0888 76.4859 30.1065 76.2515 30.1065C75.8964 30.1065 75.5484 30.0302 75.2075 29.8775C74.8701 29.7248 74.5896 29.4922 74.3659 29.1797C74.1457 28.8672 74.0356 28.473 74.0356 27.9972V19.858ZM82.1668 30.1705C81.4282 30.1705 80.7801 29.9947 80.2226 29.6431C79.6686 29.2915 79.2354 28.7997 78.9229 28.1676C78.6139 27.5355 78.4594 26.7969 78.4594 25.9517C78.4594 25.0994 78.6139 24.3555 78.9229 23.7198C79.2354 23.0842 79.6686 22.5906 80.2226 22.239C80.7801 21.8874 81.4282 21.7116 82.1668 21.7116C82.9055 21.7116 83.5518 21.8874 84.1057 22.239C84.6633 22.5906 85.0965 23.0842 85.4055 23.7198C85.718 24.3555 85.8742 25.0994 85.8742 25.9517C85.8742 26.7969 85.718 27.5355 85.4055 28.1676C85.0965 28.7997 84.6633 29.2915 84.1057 29.6431C83.5518 29.9947 82.9055 30.1705 82.1668 30.1705ZM82.1668 29.0412C82.7279 29.0412 83.1895 28.8974 83.5518 28.6097C83.914 28.3221 84.1821 27.9439 84.3561 27.4751C84.5301 27.0064 84.6171 26.4986 84.6171 25.9517C84.6171 25.4048 84.5301 24.8952 84.3561 24.4229C84.1821 23.9506 83.914 23.5689 83.5518 23.2777C83.1895 22.9865 82.7279 22.8409 82.1668 22.8409C81.6057 22.8409 81.1441 22.9865 80.7819 23.2777C80.4197 23.5689 80.1515 23.9506 79.9775 24.4229C79.8035 24.8952 79.7165 25.4048 79.7165 25.9517C79.7165 26.4986 79.8035 27.0064 79.9775 27.4751C80.1515 27.9439 80.4197 28.3221 80.7819 28.6097C81.1441 28.8974 81.6057 29.0412 82.1668 29.0412ZM93.5886 23.6506L92.4593 23.9702C92.3883 23.782 92.2836 23.5991 92.1451 23.4215C92.0101 23.2404 91.8255 23.0913 91.5911 22.9741C91.3567 22.8569 91.0566 22.7983 90.6909 22.7983C90.1902 22.7983 89.7729 22.9137 89.4391 23.1445C89.1088 23.3718 88.9437 23.6612 88.9437 24.0128C88.9437 24.3253 89.0574 24.5721 89.2846 24.7532C89.5119 24.9343 89.867 25.0852 90.35 25.206L91.5645 25.5043C92.296 25.6818 92.8411 25.9535 93.1998 26.3192C93.5584 26.6815 93.7377 27.1484 93.7377 27.7202C93.7377 28.1889 93.6028 28.608 93.3329 28.9773C93.0666 29.3466 92.6937 29.6378 92.2143 29.8509C91.7349 30.0639 91.1774 30.1705 90.5417 30.1705C89.7072 30.1705 89.0165 29.9893 88.4696 29.6271C87.9228 29.2649 87.5765 28.7358 87.4309 28.0398L88.6241 27.7415C88.7377 28.1818 88.9526 28.5121 89.2686 28.7322C89.5882 28.9524 90.0055 29.0625 90.5204 29.0625C91.1064 29.0625 91.5716 28.9382 91.916 28.6896C92.264 28.4375 92.438 28.1357 92.438 27.7841C92.438 27.5 92.3386 27.2621 92.1397 27.0703C91.9409 26.875 91.6355 26.7294 91.2235 26.6335L89.8599 26.3139C89.1106 26.1364 88.5602 25.8612 88.2086 25.4883C87.8606 25.1119 87.6866 24.6413 87.6866 24.0767C87.6866 23.6151 87.8162 23.2067 88.0755 22.8516C88.3382 22.4964 88.6951 22.2177 89.1461 22.0153C89.6007 21.8129 90.1156 21.7116 90.6909 21.7116C91.5005 21.7116 92.1362 21.8892 92.5978 22.2443C93.063 22.5994 93.3933 23.0682 93.5886 23.6506ZM96.8872 25.0781V30H95.6301V19.0909H96.8872V23.0966H96.9937C97.1855 22.674 97.4731 22.3384 97.8566 22.0898C98.2437 21.8377 98.7586 21.7116 99.4014 21.7116C99.9589 21.7116 100.447 21.8235 100.866 22.0472C101.285 22.2674 101.61 22.6065 101.841 23.0646C102.075 23.5192 102.193 24.098 102.193 24.8011V30H100.935V24.8864C100.935 24.2365 100.767 23.734 100.429 23.3789C100.096 23.0202 99.6322 22.8409 99.0392 22.8409C98.6272 22.8409 98.2579 22.9279 97.9312 23.1019C97.608 23.2759 97.3524 23.5298 97.1642 23.8636C96.9795 24.1974 96.8872 24.6023 96.8872 25.0781ZM105.664 27.017L105.643 25.4616H105.899L109.478 21.8182H111.034L107.22 25.6747H107.113L105.664 27.017ZM104.492 30V19.0909H105.749V30H104.492ZM109.691 30L106.495 25.9517L107.39 25.0781L111.289 30H109.691ZM115.059 30.1918C114.541 30.1918 114.07 30.0941 113.648 29.8988C113.225 29.6999 112.889 29.4141 112.641 29.0412C112.392 28.6648 112.268 28.2102 112.268 27.6776C112.268 27.2088 112.36 26.8288 112.545 26.5376C112.73 26.2429 112.976 26.0121 113.285 25.8452C113.594 25.6783 113.935 25.554 114.308 25.4723C114.685 25.3871 115.063 25.3196 115.443 25.2699C115.94 25.206 116.343 25.158 116.652 25.1261C116.964 25.0906 117.192 25.032 117.334 24.9503C117.479 24.8686 117.552 24.7266 117.552 24.5241V24.4815C117.552 23.956 117.408 23.5476 117.121 23.2564C116.837 22.9652 116.405 22.8196 115.826 22.8196C115.226 22.8196 114.756 22.951 114.415 23.2138C114.074 23.4766 113.834 23.7571 113.696 24.0554L112.502 23.6293C112.715 23.1321 113 22.745 113.355 22.468C113.713 22.1875 114.104 21.9922 114.527 21.8821C114.953 21.7685 115.372 21.7116 115.784 21.7116C116.046 21.7116 116.348 21.7436 116.689 21.8075C117.034 21.8679 117.366 21.994 117.685 22.1857C118.008 22.3775 118.277 22.6669 118.49 23.054C118.703 23.4411 118.809 23.9595 118.809 24.6094V30H117.552V28.892H117.488C117.403 29.0696 117.261 29.2596 117.062 29.462C116.863 29.6644 116.599 29.8366 116.268 29.9787C115.938 30.1207 115.535 30.1918 115.059 30.1918ZM115.251 29.0625C115.748 29.0625 116.167 28.9648 116.508 28.7695C116.853 28.5742 117.112 28.3221 117.286 28.0131C117.463 27.7042 117.552 27.3793 117.552 27.0384V25.8878C117.499 25.9517 117.382 26.0103 117.201 26.0636C117.023 26.1133 116.817 26.1577 116.583 26.1967C116.352 26.2322 116.126 26.2642 115.906 26.2926C115.69 26.3175 115.514 26.3388 115.379 26.3565C115.052 26.3991 114.747 26.4684 114.463 26.5643C114.182 26.6566 113.955 26.7969 113.781 26.9851C113.61 27.1697 113.525 27.4219 113.525 27.7415C113.525 28.1783 113.687 28.5085 114.01 28.7322C114.337 28.9524 114.75 29.0625 115.251 29.0625ZM132.013 21.8182L128.987 30H127.709L124.683 21.8182H126.047L128.305 28.3381H128.391L130.649 21.8182H132.013ZM135.831 30.1918C135.312 30.1918 134.842 30.0941 134.419 29.8988C133.997 29.6999 133.661 29.4141 133.412 29.0412C133.164 28.6648 133.04 28.2102 133.04 27.6776C133.04 27.2088 133.132 26.8288 133.316 26.5376C133.501 26.2429 133.748 26.0121 134.057 25.8452C134.366 25.6783 134.707 25.554 135.08 25.4723C135.456 25.3871 135.834 25.3196 136.214 25.2699C136.711 25.206 137.114 25.158 137.423 25.1261C137.736 25.0906 137.963 25.032 138.105 24.9503C138.251 24.8686 138.324 24.7266 138.324 24.5241V24.4815C138.324 23.956 138.18 23.5476 137.892 23.2564C137.608 22.9652 137.177 22.8196 136.598 22.8196C135.998 22.8196 135.527 22.951 135.186 23.2138C134.845 23.4766 134.606 23.7571 134.467 24.0554L133.274 23.6293C133.487 23.1321 133.771 22.745 134.126 22.468C134.485 22.1875 134.875 21.9922 135.298 21.8821C135.724 21.7685 136.143 21.7116 136.555 21.7116C136.818 21.7116 137.12 21.7436 137.461 21.8075C137.805 21.8679 138.137 21.994 138.457 22.1857C138.78 22.3775 139.048 22.6669 139.261 23.054C139.474 23.4411 139.581 23.9595 139.581 24.6094V30H138.324V28.892H138.26C138.174 29.0696 138.032 29.2596 137.834 29.462C137.635 29.6644 137.37 29.8366 137.04 29.9787C136.71 30.1207 136.307 30.1918 135.831 30.1918ZM136.022 29.0625C136.52 29.0625 136.939 28.9648 137.28 28.7695C137.624 28.5742 137.883 28.3221 138.057 28.0131C138.235 27.7042 138.324 27.3793 138.324 27.0384V25.8878C138.27 25.9517 138.153 26.0103 137.972 26.0636C137.794 26.1133 137.589 26.1577 137.354 26.1967C137.123 26.2322 136.898 26.2642 136.678 26.2926C136.461 26.3175 136.285 26.3388 136.15 26.3565C135.824 26.3991 135.518 26.4684 135.234 26.5643C134.954 26.6566 134.726 26.7969 134.552 26.9851C134.382 27.1697 134.297 27.4219 134.297 27.7415C134.297 28.1783 134.458 28.5085 134.781 28.7322C135.108 28.9524 135.522 29.0625 136.022 29.0625ZM151.889 23.6506L150.76 23.9702C150.689 23.782 150.584 23.5991 150.446 23.4215C150.311 23.2404 150.126 23.0913 149.892 22.9741C149.657 22.8569 149.357 22.7983 148.992 22.7983C148.491 22.7983 148.074 22.9137 147.74 23.1445C147.41 23.3718 147.244 23.6612 147.244 24.0128C147.244 24.3253 147.358 24.5721 147.585 24.7532C147.813 24.9343 148.168 25.0852 148.651 25.206L149.865 25.5043C150.597 25.6818 151.142 25.9535 151.501 26.3192C151.859 26.6815 152.039 27.1484 152.039 27.7202C152.039 28.1889 151.904 28.608 151.634 28.9773C151.367 29.3466 150.994 29.6378 150.515 29.8509C150.036 30.0639 149.478 30.1705 148.843 30.1705C148.008 30.1705 147.317 29.9893 146.77 29.6271C146.224 29.2649 145.877 28.7358 145.732 28.0398L146.925 27.7415C147.039 28.1818 147.253 28.5121 147.569 28.7322C147.889 28.9524 148.306 29.0625 148.821 29.0625C149.407 29.0625 149.872 28.9382 150.217 28.6896C150.565 28.4375 150.739 28.1357 150.739 27.7841C150.739 27.5 150.639 27.2621 150.441 27.0703C150.242 26.875 149.936 26.7294 149.524 26.6335L148.161 26.3139C147.411 26.1364 146.861 25.8612 146.509 25.4883C146.161 25.1119 145.987 24.6413 145.987 24.0767C145.987 23.6151 146.117 23.2067 146.376 22.8516C146.639 22.4964 146.996 22.2177 147.447 22.0153C147.901 21.8129 148.416 21.7116 148.992 21.7116C149.801 21.7116 150.437 21.8892 150.899 22.2443C151.364 22.5994 151.694 23.0682 151.889 23.6506ZM155.188 25.0781V30H153.931V21.8182H155.145V23.0966H155.252C155.444 22.6811 155.735 22.3473 156.125 22.0952C156.516 21.8395 157.02 21.7116 157.638 21.7116C158.192 21.7116 158.677 21.8253 159.092 22.0526C159.508 22.2763 159.831 22.6172 160.062 23.0753C160.293 23.5298 160.408 24.1051 160.408 24.8011V30H159.151V24.8864C159.151 24.2436 158.984 23.7429 158.65 23.3842C158.316 23.022 157.858 22.8409 157.276 22.8409C156.875 22.8409 156.516 22.9279 156.2 23.1019C155.888 23.2759 155.641 23.5298 155.46 23.8636C155.278 24.1974 155.188 24.6023 155.188 25.0781ZM166.136 30.1705C165.347 30.1705 164.667 29.9964 164.096 29.6484C163.527 29.2969 163.089 28.8068 162.78 28.1783C162.474 27.5462 162.322 26.8111 162.322 25.973C162.322 25.1349 162.474 24.3963 162.78 23.7571C163.089 23.1143 163.518 22.6136 164.069 22.255C164.623 21.8928 165.269 21.7116 166.008 21.7116C166.434 21.7116 166.855 21.7827 167.27 21.9247C167.686 22.0668 168.064 22.2976 168.405 22.6172C168.746 22.9332 169.017 23.3523 169.22 23.8743C169.422 24.3963 169.523 25.0391 169.523 25.8026V26.3352H163.217V25.2486H168.245C168.245 24.7869 168.153 24.375 167.968 24.0128C167.787 23.6506 167.528 23.3647 167.19 23.1552C166.857 22.9457 166.462 22.8409 166.008 22.8409C165.507 22.8409 165.074 22.9652 164.708 23.2138C164.346 23.4588 164.067 23.7784 163.872 24.1726C163.676 24.5668 163.579 24.9893 163.579 25.4403V26.1648C163.579 26.7827 163.685 27.3065 163.898 27.7362C164.115 28.1623 164.415 28.4872 164.799 28.7109C165.182 28.9311 165.628 29.0412 166.136 29.0412C166.466 29.0412 166.764 28.995 167.031 28.9027C167.3 28.8068 167.533 28.6648 167.728 28.4766C167.924 28.2848 168.075 28.0469 168.181 27.7628L169.396 28.1037C169.268 28.5156 169.053 28.8778 168.751 29.1903C168.449 29.4993 168.076 29.7408 167.632 29.9148C167.189 30.0852 166.69 30.1705 166.136 30.1705ZM172.608 27.017L172.586 25.4616H172.842L176.422 21.8182H177.977L174.163 25.6747H174.056L172.608 27.017ZM171.436 30V19.0909H172.693V30H171.436ZM176.635 30L173.439 25.9517L174.333 25.0781L178.233 30H176.635ZM180.852 19.0909V30H179.595V19.0909H180.852ZM185.562 30.1918C185.044 30.1918 184.573 30.0941 184.151 29.8988C183.728 29.6999 183.392 29.4141 183.144 29.0412C182.895 28.6648 182.771 28.2102 182.771 27.6776C182.771 27.2088 182.863 26.8288 183.048 26.5376C183.233 26.2429 183.479 26.0121 183.788 25.8452C184.097 25.6783 184.438 25.554 184.811 25.4723C185.188 25.3871 185.566 25.3196 185.946 25.2699C186.443 25.206 186.846 25.158 187.155 25.1261C187.467 25.0906 187.695 25.032 187.837 24.9503C187.982 24.8686 188.055 24.7266 188.055 24.5241V24.4815C188.055 23.956 187.911 23.5476 187.624 23.2564C187.339 22.9652 186.908 22.8196 186.329 22.8196C185.729 22.8196 185.259 22.951 184.918 23.2138C184.577 23.4766 184.337 23.7571 184.199 24.0554L183.005 23.6293C183.218 23.1321 183.502 22.745 183.858 22.468C184.216 22.1875 184.607 21.9922 185.029 21.8821C185.456 21.7685 185.875 21.7116 186.287 21.7116C186.549 21.7116 186.851 21.7436 187.192 21.8075C187.537 21.8679 187.869 21.994 188.188 22.1857C188.511 22.3775 188.779 22.6669 188.993 23.054C189.206 23.4411 189.312 23.9595 189.312 24.6094V30H188.055V28.892H187.991C187.906 29.0696 187.764 29.2596 187.565 29.462C187.366 29.6644 187.102 29.8366 186.771 29.9787C186.441 30.1207 186.038 30.1918 185.562 30.1918ZM185.754 29.0625C186.251 29.0625 186.67 28.9648 187.011 28.7695C187.355 28.5742 187.615 28.3221 187.789 28.0131C187.966 27.7042 188.055 27.3793 188.055 27.0384V25.8878C188.002 25.9517 187.885 26.0103 187.703 26.0636C187.526 26.1133 187.32 26.1577 187.086 26.1967C186.855 26.2322 186.629 26.2642 186.409 26.2926C186.192 26.3175 186.017 26.3388 185.882 26.3565C185.555 26.3991 185.25 26.4684 184.966 26.5643C184.685 26.6566 184.458 26.7969 184.284 26.9851C184.113 27.1697 184.028 27.4219 184.028 27.7415C184.028 28.1783 184.19 28.5085 184.513 28.7322C184.839 28.9524 185.253 29.0625 185.754 29.0625ZM191.607 30V21.8182H192.821V23.054H192.906C193.055 22.6491 193.325 22.3207 193.716 22.0685C194.107 21.8164 194.547 21.6903 195.037 21.6903C195.129 21.6903 195.245 21.6921 195.383 21.6957C195.522 21.6992 195.627 21.7045 195.698 21.7116V22.9901C195.655 22.9794 195.557 22.9634 195.405 22.9421C195.255 22.9173 195.097 22.9048 194.93 22.9048C194.533 22.9048 194.178 22.9883 193.865 23.1552C193.556 23.3185 193.311 23.5458 193.13 23.837C192.953 24.1246 192.864 24.4531 192.864 24.8224V30H191.607Z" fill="#525252"/>
</g>
</g>
<defs>
<filter id="filter0_d_6_2909" x="48.3208" y="18.0909" width="148.377" height="13.1008" filterUnits="userSpaceOnUse" color-interpolation-filters="sRGB">
<feFlood flood-opacity="0" result="BackgroundImageFix"/>
<feColorMatrix in="SourceAlpha" type="matrix" values="0 0 0 0 0 0 0 0 0 0 0 0 0 0 0 0 0 0 127 0" result="hardAlpha"/>
<feOffset/>
<feGaussianBlur stdDeviation="0.5"/>
<feComposite in2="hardAlpha" operator="out"/>
<feColorMatrix type="matrix" values="0 0 0 0 0 0 0 0 0 0 0 0 0 0 0 0 0 0 0.01 0"/>
<feBlend mode="normal" in2="BackgroundImageFix" result="effect1_dropShadow_6_2909"/>
<feBlend mode="normal" in="SourceGraphic" in2="effect1_dropShadow_6_2909" result="shape"/>
</filter>
<clipPath id="clip0_6_2909">
<rect width="24" height="24" fill="white" transform="translate(16 11)"/>
</clipPath>
<clipPath id="clip1_6_2909">
<rect width="149.5" height="20" fill="white" transform="translate(48 13)"/>
</clipPath>
</defs>
</svg>
