<svg width="1388" height="53" viewBox="0 0 1388 53" fill="none" xmlns="http://www.w3.org/2000/svg">
<g filter="url(#filter0_d_11_20)">
<path d="M1.16553 19.3457H2.55664L5.82764 27.3352H5.94043L9.21143 19.3457H10.6025V28.9707H9.51221V21.658H9.41821L6.4104 28.9707H5.35767L2.34985 21.658H2.25586V28.9707H1.16553V19.3457ZM14.9133 29.1399C14.4559 29.1399 14.0408 29.0537 13.6679 28.8814C13.2951 28.706 12.999 28.4537 12.7797 28.1248C12.5604 27.7926 12.4507 27.3916 12.4507 26.9216C12.4507 26.5081 12.5322 26.1728 12.6951 25.9159C12.858 25.6558 13.0758 25.4522 13.3483 25.3049C13.6209 25.1577 13.9217 25.048 14.2507 24.976C14.5828 24.9008 14.9165 24.8412 15.2517 24.7974C15.6904 24.741 16.046 24.6987 16.3186 24.6705C16.5943 24.6391 16.7948 24.5874 16.9201 24.5154C17.0486 24.4433 17.1128 24.318 17.1128 24.1394V24.1018C17.1128 23.6381 16.9859 23.2778 16.7321 23.0209C16.4815 22.764 16.1008 22.6355 15.5901 22.6355C15.0606 22.6355 14.6455 22.7514 14.3447 22.9833C14.0439 23.2151 13.8324 23.4626 13.7102 23.7258L12.6575 23.3499C12.8455 22.9112 13.0961 22.5697 13.4094 22.3253C13.7259 22.0778 14.0705 21.9055 14.4434 21.8083C14.8194 21.7081 15.1891 21.658 15.5525 21.658C15.7844 21.658 16.0507 21.6862 16.3515 21.7426C16.6554 21.7958 16.9483 21.907 17.2303 22.0762C17.5154 22.2454 17.752 22.5008 17.94 22.8423C18.1279 23.1838 18.2219 23.6412 18.2219 24.2146V28.9707H17.1128V27.9932H17.0564C16.9812 28.1498 16.8559 28.3174 16.6804 28.496C16.505 28.6746 16.2716 28.8266 15.9802 28.9519C15.6888 29.0772 15.3332 29.1399 14.9133 29.1399ZM15.0825 28.1436C15.5212 28.1436 15.8909 28.0574 16.1917 27.8851C16.4956 27.7127 16.7243 27.4903 16.8778 27.2177C17.0345 26.9451 17.1128 26.6584 17.1128 26.3577V25.3425C17.0658 25.3989 16.9624 25.4506 16.8026 25.4976C16.646 25.5415 16.4642 25.5806 16.2575 25.6151C16.0538 25.6464 15.8549 25.6746 15.6606 25.6997C15.4695 25.7216 15.3144 25.7404 15.1953 25.7561C14.9071 25.7937 14.6376 25.8548 14.387 25.9394C14.1395 26.0209 13.9389 26.1446 13.7854 26.3107C13.635 26.4736 13.5598 26.696 13.5598 26.978C13.5598 27.3634 13.7024 27.6548 13.9875 27.8522C14.2758 28.0464 14.6408 28.1436 15.0825 28.1436ZM21.0735 21.752L22.803 24.7034L24.5325 21.752H25.8108L23.4797 25.3613L25.8108 28.9707H24.5325L22.803 26.1697L21.0735 28.9707H19.7952L22.0886 25.3613L19.7952 21.752H21.0735ZM30.608 21.752V22.6919H26.7167V21.752H30.608ZM27.8822 28.9707V20.7556C27.8822 20.342 27.9793 19.9974 28.1736 19.7217C28.3678 19.446 28.62 19.2392 28.9302 19.1013C29.2404 18.9635 29.5678 18.8945 29.9125 18.8945C30.185 18.8945 30.4075 18.9165 30.5798 18.9603C30.7521 19.0042 30.8806 19.0449 30.9652 19.0825L30.6456 20.0413C30.5892 20.0225 30.5109 19.999 30.4106 19.9708C30.3135 19.9426 30.185 19.9285 30.0253 19.9285C29.6587 19.9285 29.3939 20.0209 29.231 20.2057C29.0712 20.3906 28.9913 20.6616 28.9913 21.0188V28.9707H27.8822ZM32.1624 28.9707V21.752H33.2716V28.9707H32.1624ZM32.7264 20.5488C32.5102 20.5488 32.3238 20.4752 32.1671 20.3279C32.0136 20.1807 31.9369 20.0037 31.9369 19.7969C31.9369 19.5901 32.0136 19.4131 32.1671 19.2658C32.3238 19.1186 32.5102 19.0449 32.7264 19.0449C32.9426 19.0449 33.1275 19.1186 33.281 19.2658C33.4376 19.4131 33.516 19.5901 33.516 19.7969C33.516 20.0037 33.4376 20.1807 33.281 20.3279C33.1275 20.4752 32.9426 20.5488 32.7264 20.5488ZM36.0174 31.6777C35.8294 31.6777 35.6618 31.6621 35.5145 31.6307C35.3673 31.6025 35.2654 31.5743 35.209 31.5461L35.491 30.5686C35.7605 30.6375 35.9986 30.6626 36.2054 30.6438C36.4122 30.625 36.5954 30.5326 36.7552 30.3665C36.9182 30.2036 37.067 29.9388 37.2017 29.5723L37.4085 29.0083L34.7391 21.752H35.9422L37.9349 27.5044H38.0101L40.0027 21.752H41.2059L38.1416 30.0234C38.0038 30.3963 37.833 30.7049 37.6294 30.9493C37.4257 31.1968 37.1892 31.3801 36.9197 31.4991C36.6534 31.6182 36.3526 31.6777 36.0174 31.6777ZM43.7789 19.3457V28.9707H42.6698V19.3457H43.7789ZM45.8104 28.9707V21.752H46.9195V28.9707H45.8104ZM46.3744 20.5488C46.1582 20.5488 45.9718 20.4752 45.8151 20.3279C45.6616 20.1807 45.5848 20.0037 45.5848 19.7969C45.5848 19.5901 45.6616 19.4131 45.8151 19.2658C45.9718 19.1186 46.1582 19.0449 46.3744 19.0449C46.5905 19.0449 46.7754 19.1186 46.9289 19.2658C47.0856 19.4131 47.1639 19.5901 47.1639 19.7969C47.1639 20.0037 47.0856 20.1807 46.9289 20.3279C46.7754 20.4752 46.5905 20.5488 46.3744 20.5488ZM49.9849 26.3389L49.9661 24.9666H50.1917L53.3499 21.752H54.7222L51.3572 25.1545H51.2632L49.9849 26.3389ZM48.951 28.9707V19.3457H50.0601V28.9707H48.951ZM53.5379 28.9707L50.7181 25.3989L51.5076 24.6282L54.9478 28.9707H53.5379ZM64.9852 23.3687L63.9889 23.6506C63.9262 23.4846 63.8338 23.3232 63.7116 23.1666C63.5925 23.0068 63.4296 22.8752 63.2228 22.7718C63.016 22.6684 62.7513 22.6167 62.4286 22.6167C61.9868 22.6167 61.6186 22.7185 61.3241 22.9222C61.0327 23.1227 60.8871 23.3781 60.8871 23.6882C60.8871 23.9639 60.9873 24.1817 61.1878 24.3415C61.3884 24.5013 61.7017 24.6344 62.1278 24.741L63.1993 25.0042C63.8447 25.1608 64.3257 25.4005 64.6421 25.7232C64.9586 26.0428 65.1168 26.4548 65.1168 26.9592C65.1168 27.3728 64.9977 27.7425 64.7596 28.0684C64.5246 28.3942 64.1956 28.6511 63.7727 28.8391C63.3497 29.0271 62.8578 29.1211 62.297 29.1211C61.5607 29.1211 60.9513 28.9613 60.4688 28.6417C59.9863 28.3221 59.6808 27.8553 59.5523 27.2412L60.6051 26.978C60.7053 27.3665 60.8949 27.6579 61.1737 27.8522C61.4557 28.0464 61.8239 28.1436 62.2782 28.1436C62.7951 28.1436 63.2056 28.0339 63.5095 27.8146C63.8165 27.5921 63.9701 27.3258 63.9701 27.0156C63.9701 26.765 63.8823 26.5551 63.7069 26.3859C63.5314 26.2135 63.262 26.0851 62.8985 26.0005L61.6954 25.7185C61.0343 25.5618 60.5487 25.319 60.2385 24.9901C59.9314 24.6579 59.7779 24.2428 59.7779 23.7446C59.7779 23.3373 59.8923 22.977 60.121 22.6637C60.3529 22.3504 60.6677 22.1044 61.0656 21.9258C61.4667 21.7473 61.921 21.658 62.4286 21.658C63.1429 21.658 63.7037 21.8146 64.1111 22.1279C64.5215 22.4412 64.8129 22.8548 64.9852 23.3687ZM66.7864 28.9707V21.752H67.8955V28.9707H66.7864ZM67.3503 20.5488C67.1341 20.5488 66.9477 20.4752 66.7911 20.3279C66.6375 20.1807 66.5608 20.0037 66.5608 19.7969C66.5608 19.5901 66.6375 19.4131 66.7911 19.2658C66.9477 19.1186 67.1341 19.0449 67.3503 19.0449C67.5665 19.0449 67.7514 19.1186 67.9049 19.2658C68.0615 19.4131 68.1399 19.5901 68.1399 19.7969C68.1399 20.0037 68.0615 20.1807 67.9049 20.3279C67.7514 20.4752 67.5665 20.5488 67.3503 20.5488ZM70.6413 31.6777C70.4533 31.6777 70.2857 31.6621 70.1384 31.6307C69.9912 31.6025 69.8893 31.5743 69.8329 31.5461L70.1149 30.5686C70.3844 30.6375 70.6225 30.6626 70.8293 30.6438C71.0361 30.625 71.2194 30.5326 71.3792 30.3665C71.5421 30.2036 71.6909 29.9388 71.8256 29.5723L72.0324 29.0083L69.363 21.752H70.5661L72.5588 27.5044H72.634L74.6266 21.752H75.8298L72.7656 30.0234C72.6277 30.3963 72.4569 30.7049 72.2533 30.9493C72.0496 31.1968 71.8131 31.3801 71.5436 31.4991C71.2773 31.6182 70.9765 31.6777 70.6413 31.6777ZM79.9679 29.1211C79.3162 29.1211 78.7444 28.966 78.2525 28.6558C77.7637 28.3456 77.3815 27.9117 77.1057 27.354C76.8332 26.7963 76.6969 26.1446 76.6969 25.3989C76.6969 24.647 76.8332 23.9906 77.1057 23.4297C77.3815 22.8689 77.7637 22.4334 78.2525 22.1232C78.7444 21.813 79.3162 21.658 79.9679 21.658C80.6196 21.658 81.1898 21.813 81.6786 22.1232C82.1705 22.4334 82.5527 22.8689 82.8253 23.4297C83.101 23.9906 83.2389 24.647 83.2389 25.3989C83.2389 26.1446 83.101 26.7963 82.8253 27.354C82.5527 27.9117 82.1705 28.3456 81.6786 28.6558C81.1898 28.966 80.6196 29.1211 79.9679 29.1211ZM79.9679 28.1248C80.4629 28.1248 80.8702 27.9979 81.1898 27.7441C81.5094 27.4903 81.7459 27.1566 81.8994 26.743C82.053 26.3295 82.1297 25.8814 82.1297 25.3989C82.1297 24.9164 82.053 24.4668 81.8994 24.0501C81.7459 23.6334 81.5094 23.2966 81.1898 23.0397C80.8702 22.7828 80.4629 22.6543 79.9679 22.6543C79.4728 22.6543 79.0655 22.7828 78.7459 23.0397C78.4264 23.2966 78.1898 23.6334 78.0363 24.0501C77.8828 24.4668 77.806 24.9164 77.806 25.3989C77.806 25.8814 77.8828 26.3295 78.0363 26.743C78.1898 27.1566 78.4264 27.4903 78.7459 27.7441C79.0655 27.9979 79.4728 28.1248 79.9679 28.1248ZM90.0452 23.3687L89.0489 23.6506C88.9862 23.4846 88.8938 23.3232 88.7716 23.1666C88.6525 23.0068 88.4896 22.8752 88.2828 22.7718C88.076 22.6684 87.8113 22.6167 87.4886 22.6167C87.0468 22.6167 86.6787 22.7185 86.3841 22.9222C86.0928 23.1227 85.9471 23.3781 85.9471 23.6882C85.9471 23.9639 86.0473 24.1817 86.2478 24.3415C86.4484 24.5013 86.7617 24.6344 87.1878 24.741L88.2593 25.0042C88.9047 25.1608 89.3857 25.4005 89.7021 25.7232C90.0186 26.0428 90.1768 26.4548 90.1768 26.9592C90.1768 27.3728 90.0577 27.7425 89.8196 28.0684C89.5846 28.3942 89.2557 28.6511 88.8327 28.8391C88.4097 29.0271 87.9178 29.1211 87.357 29.1211C86.6207 29.1211 86.0113 28.9613 85.5288 28.6417C85.0463 28.3221 84.7408 27.8553 84.6124 27.2412L85.6651 26.978C85.7653 27.3665 85.9549 27.6579 86.2337 27.8522C86.5157 28.0464 86.8839 28.1436 87.3382 28.1436C87.8551 28.1436 88.2656 28.0339 88.5695 27.8146C88.8766 27.5921 89.0301 27.3258 89.0301 27.0156C89.0301 26.765 88.9423 26.5551 88.7669 26.3859C88.5914 26.2135 88.322 26.0851 87.9585 26.0005L86.7554 25.7185C86.0943 25.5618 85.6087 25.319 85.2985 24.9901C84.9915 24.6579 84.8379 24.2428 84.8379 23.7446C84.8379 23.3373 84.9523 22.977 85.181 22.6637C85.4129 22.3504 85.7277 22.1044 86.1257 21.9258C86.5267 21.7473 86.981 21.658 87.4886 21.658C88.2029 21.658 88.7638 21.8146 89.1711 22.1279C89.5815 22.4412 89.8729 22.8548 90.0452 23.3687ZM93.9706 29.1399C93.5132 29.1399 93.0981 29.0537 92.7252 28.8814C92.3524 28.706 92.0563 28.4537 91.837 28.1248C91.6177 27.7926 91.508 27.3916 91.508 26.9216C91.508 26.5081 91.5895 26.1728 91.7524 25.9159C91.9153 25.6558 92.1331 25.4522 92.4056 25.3049C92.6782 25.1577 92.979 25.048 93.308 24.976C93.6401 24.9008 93.9738 24.8412 94.309 24.7974C94.7477 24.741 95.1033 24.6987 95.3759 24.6705C95.6516 24.6391 95.8521 24.5874 95.9774 24.5154C96.1059 24.4433 96.1701 24.318 96.1701 24.1394V24.1018C96.1701 23.6381 96.0432 23.2778 95.7894 23.0209C95.5388 22.764 95.1581 22.6355 94.6474 22.6355C94.1179 22.6355 93.7028 22.7514 93.402 22.9833C93.1012 23.2151 92.8897 23.4626 92.7675 23.7258L91.7148 23.3499C91.9028 22.9112 92.1534 22.5697 92.4667 22.3253C92.7832 22.0778 93.1278 21.9055 93.5007 21.8083C93.8766 21.7081 94.2464 21.658 94.6098 21.658C94.8417 21.658 95.108 21.6862 95.4088 21.7426C95.7127 21.7958 96.0056 21.907 96.2876 22.0762C96.5727 22.2454 96.8093 22.5008 96.9973 22.8423C97.1852 23.1838 97.2792 23.6412 97.2792 24.2146V28.9707H96.1701V27.9932H96.1137C96.0385 28.1498 95.9132 28.3174 95.7377 28.496C95.5623 28.6746 95.3289 28.8266 95.0375 28.9519C94.7461 29.0772 94.3905 29.1399 93.9706 29.1399ZM94.1398 28.1436C94.5785 28.1436 94.9482 28.0574 95.249 27.8851C95.5529 27.7127 95.7816 27.4903 95.9351 27.2177C96.0918 26.9451 96.1701 26.6584 96.1701 26.3577V25.3425C96.1231 25.3989 96.0197 25.4506 95.8599 25.4976C95.7033 25.5415 95.5215 25.5806 95.3148 25.6151C95.1111 25.6464 94.9122 25.6746 94.7179 25.6997C94.5268 25.7216 94.3717 25.7404 94.2526 25.7561C93.9644 25.7937 93.6949 25.8548 93.4443 25.9394C93.1968 26.0209 92.9962 26.1446 92.8427 26.3107C92.6923 26.4736 92.6171 26.696 92.6171 26.978C92.6171 27.3634 92.7597 27.6548 93.0448 27.8522C93.333 28.0464 93.6981 28.1436 94.1398 28.1436ZM102.443 21.752V22.6919H98.7021V21.752H102.443ZM99.7924 20.0225H100.902V26.9028C100.902 27.2161 100.947 27.4511 101.038 27.6078C101.132 27.7613 101.251 27.8647 101.395 27.918C101.542 27.9681 101.697 27.9932 101.86 27.9932C101.982 27.9932 102.083 27.9869 102.161 27.9744C102.239 27.9587 102.302 27.9462 102.349 27.9368L102.575 28.9331C102.499 28.9613 102.394 28.9895 102.26 29.0177C102.125 29.049 101.954 29.0647 101.747 29.0647C101.434 29.0647 101.127 28.9973 100.826 28.8626C100.529 28.7279 100.281 28.5227 100.084 28.2469C99.8895 27.9712 99.7924 27.6235 99.7924 27.2036V20.0225ZM104.111 28.9707V21.752H105.221V28.9707H104.111ZM104.675 20.5488C104.459 20.5488 104.273 20.4752 104.116 20.3279C103.963 20.1807 103.886 20.0037 103.886 19.7969C103.886 19.5901 103.963 19.4131 104.116 19.2658C104.273 19.1186 104.459 19.0449 104.675 19.0449C104.892 19.0449 105.076 19.1186 105.23 19.2658C105.387 19.4131 105.465 19.5901 105.465 19.7969C105.465 20.0037 105.387 20.1807 105.23 20.3279C105.076 20.4752 104.892 20.5488 104.675 20.5488Z" fill="white"/>
</g>
<g filter="url(#filter1_d_11_20)">
<path d="M641.997 18.5162C641.997 17.9338 642.139 17.4029 642.423 16.9235C642.707 16.4441 643.089 16.0623 643.568 15.7782C644.048 15.4941 644.579 15.3521 645.161 15.3521C645.665 15.3521 646.131 15.4604 646.557 15.677C646.986 15.8936 647.341 16.1902 647.622 16.5666C647.903 16.9395 648.077 17.362 648.144 17.8343H646.855C646.784 17.4686 646.587 17.1703 646.264 16.9395C645.941 16.7051 645.573 16.5879 645.161 16.5879C644.806 16.5879 644.483 16.6749 644.192 16.8489C643.9 17.0229 643.668 17.2555 643.494 17.5467C643.32 17.8379 643.233 18.161 643.233 18.5162C643.233 18.8713 643.32 19.1944 643.494 19.4856C643.668 19.7768 643.9 20.0094 644.192 20.1834C644.483 20.3574 644.806 20.4444 645.161 20.4444C645.573 20.4444 645.921 20.329 646.205 20.0982C646.493 19.8638 646.674 19.5637 646.748 19.198H648.037C647.97 19.6703 647.805 20.0946 647.542 20.4711C647.279 20.8439 646.942 21.1387 646.53 21.3553C646.122 21.5719 645.665 21.6802 645.161 21.6802C644.579 21.6802 644.048 21.5382 643.568 21.2541C643.089 20.97 642.707 20.5882 642.423 20.1088C642.139 19.6294 641.997 19.0985 641.997 18.5162ZM645.108 24.1412C644.334 24.1412 643.606 23.9956 642.924 23.7044C642.246 23.4132 641.647 23.0101 641.129 22.4952C640.614 21.9767 640.209 21.3784 639.914 20.7001C639.623 20.0218 639.479 19.2939 639.483 18.5162C639.486 17.7385 639.634 17.0105 639.925 16.3322C640.22 15.6539 640.624 15.0574 641.139 14.5424C641.654 14.024 642.251 13.6191 642.929 13.3279C643.607 13.0368 644.334 12.8912 645.108 12.8912C645.886 12.8912 646.613 13.0368 647.292 13.3279C647.974 13.6191 648.57 14.024 649.082 14.5424C649.596 15.0574 649.999 15.6539 650.291 16.3322C650.582 17.0105 650.729 17.7385 650.733 18.5162C650.736 19.2939 650.593 20.0218 650.301 20.7001C650.01 21.3784 649.607 21.9767 649.092 22.4952C648.577 23.0101 647.979 23.4132 647.297 23.7044C646.615 23.9956 645.886 24.1412 645.108 24.1412ZM645.108 22.9054C645.715 22.9054 646.285 22.7917 646.818 22.5645C647.35 22.3372 647.817 22.0229 648.219 21.6216C648.62 21.2203 648.934 20.7551 649.161 20.226C649.389 19.6934 649.501 19.1252 649.497 18.5215C649.493 17.9142 649.378 17.3443 649.151 16.8116C648.924 16.2789 648.609 15.812 648.208 15.4107C647.807 15.0094 647.341 14.6951 646.812 14.4679C646.283 14.2406 645.715 14.127 645.108 14.127C644.504 14.127 643.938 14.2406 643.409 14.4679C642.879 14.6951 642.414 15.0112 642.013 15.416C641.612 15.8173 641.296 16.2843 641.065 16.8169C640.838 17.3461 640.722 17.9142 640.719 18.5215C640.715 19.1216 640.827 19.688 641.054 20.2207C641.281 20.7498 641.596 21.215 641.997 21.6163C642.402 22.0176 642.869 22.3336 643.398 22.5645C643.931 22.7917 644.501 22.9054 645.108 22.9054Z" fill="white"/>
</g>
<g filter="url(#filter2_d_11_20)">
<path d="M658.389 29.9707V19.6582H659.638V24.7742H659.759L664.391 19.6582H666.023L661.692 24.3109L666.023 29.9707H664.512L660.927 25.177L659.638 26.6272V29.9707H658.389ZM667.639 29.9707V19.6582H673.822V20.766H668.888V24.2505H673.359V25.3583H668.888V29.9707H667.639ZM684.26 22.8809H683.011C682.937 22.5217 682.808 22.2061 682.623 21.9342C682.442 21.6623 682.22 21.434 681.958 21.2494C681.7 21.0614 681.413 20.9204 681.097 20.8264C680.782 20.7324 680.453 20.6854 680.11 20.6854C679.486 20.6854 678.92 20.8432 678.414 21.1588C677.91 21.4743 677.509 21.9392 677.21 22.5536C676.915 23.1679 676.767 23.9215 676.767 24.8145C676.767 25.7074 676.915 26.461 677.21 27.0753C677.509 27.6897 677.91 28.1546 678.414 28.4702C678.92 28.7857 679.486 28.9435 680.11 28.9435C680.453 28.9435 680.782 28.8965 681.097 28.8025C681.413 28.7085 681.7 28.5692 681.958 28.3846C682.22 28.1966 682.442 27.9666 682.623 27.6947C682.808 27.4194 682.937 27.1039 683.011 26.748H684.26C684.166 27.2751 683.994 27.7467 683.746 28.163C683.498 28.5793 683.189 28.9334 682.819 29.2255C682.45 29.5142 682.036 29.734 681.576 29.8851C681.119 30.0362 680.631 30.1117 680.11 30.1117C679.231 30.1117 678.449 29.8969 677.764 29.4672C677.079 29.0375 676.54 28.4265 676.148 27.6343C675.755 26.842 675.558 25.9021 675.558 24.8145C675.558 23.7268 675.755 22.7869 676.148 21.9946C676.54 21.2024 677.079 20.5914 677.764 20.1617C678.449 19.7321 679.231 19.5172 680.11 19.5172C680.631 19.5172 681.119 19.5927 681.576 19.7438C682.036 19.8949 682.45 20.1164 682.819 20.4085C683.189 20.6972 683.498 21.0497 683.746 21.4659C683.994 21.8788 684.166 22.3505 684.26 22.8809ZM697.033 19.6582H698.282V26.4862C698.282 27.1912 698.116 27.8206 697.783 28.3745C697.454 28.925 696.99 29.3597 696.389 29.6786C695.788 29.9942 695.083 30.152 694.274 30.152C693.465 30.152 692.76 29.9942 692.159 29.6786C691.558 29.3597 691.091 28.925 690.759 28.3745C690.43 27.8206 690.266 27.1912 690.266 26.4862V19.6582H691.514V26.3855C691.514 26.889 691.625 27.3372 691.847 27.7299C692.068 28.1194 692.384 28.4265 692.793 28.6514C693.206 28.873 693.7 28.9838 694.274 28.9838C694.848 28.9838 695.341 28.873 695.754 28.6514C696.167 28.4265 696.483 28.1194 696.701 27.7299C696.922 27.3372 697.033 26.889 697.033 26.3855V19.6582ZM700.433 29.9707V29.0643L705.992 20.766H700.373V19.6582H707.483V20.5646L701.924 28.8629H707.543V29.9707H700.433Z" fill="white"/>
</g>
<g filter="url(#filter3_d_11_20)">
<path d="M714.537 50.9707V50.0119L718.137 46.0701C718.56 45.6085 718.908 45.2072 719.181 44.8663C719.455 44.5218 719.657 44.1987 719.789 43.8968C719.924 43.5914 719.991 43.2718 719.991 42.938C719.991 42.5545 719.899 42.2225 719.714 41.9419C719.533 41.6614 719.284 41.4448 718.968 41.2921C718.652 41.1394 718.297 41.063 717.903 41.063C717.484 41.063 717.118 41.15 716.806 41.324C716.497 41.4945 716.257 41.7342 716.087 42.0431C715.92 42.3521 715.836 42.7143 715.836 43.1298H714.579C714.579 42.4906 714.727 41.9295 715.021 41.4466C715.316 40.9636 715.717 40.5872 716.225 40.3173C716.737 40.0474 717.31 39.9125 717.946 39.9125C718.585 39.9125 719.151 40.0474 719.645 40.3173C720.139 40.5872 720.526 40.9512 720.806 41.4093C721.087 41.8674 721.227 42.377 721.227 42.938C721.227 43.3393 721.154 43.7317 721.009 44.1152C720.867 44.4952 720.618 44.9196 720.263 45.3883C719.911 45.8535 719.423 46.4217 718.798 47.0929L716.348 49.7136V49.7988H721.419V50.9707H714.537ZM727.177 51.1199C726.374 51.1199 725.691 50.9015 725.126 50.4647C724.561 50.0243 724.13 49.3869 723.832 48.5524C723.533 47.7143 723.384 46.7022 723.384 45.5162C723.384 44.3372 723.533 43.3304 723.832 42.4959C724.134 41.6578 724.567 41.0186 725.131 40.5783C725.7 40.1344 726.381 39.9125 727.177 39.9125C727.972 39.9125 728.652 40.1344 729.217 40.5783C729.785 41.0186 730.218 41.6578 730.517 42.4959C730.819 43.3304 730.969 44.3372 730.969 45.5162C730.969 46.7022 730.82 47.7143 730.522 48.5524C730.224 49.3869 729.792 50.0243 729.228 50.4647C728.663 50.9015 727.979 51.1199 727.177 51.1199ZM727.177 49.948C727.972 49.948 728.59 49.5645 729.031 48.7974C729.471 48.0304 729.691 46.9366 729.691 45.5162C729.691 44.5716 729.59 43.7672 729.387 43.1032C729.189 42.4391 728.901 41.9331 728.525 41.585C728.152 41.237 727.702 41.063 727.177 41.063C726.389 41.063 725.772 41.4519 725.329 42.2296C724.885 43.0037 724.663 44.0993 724.663 45.5162C724.663 46.4608 724.762 47.2633 724.961 47.9238C725.16 48.5843 725.446 49.0868 725.819 49.4313C726.195 49.7757 726.648 49.948 727.177 49.948ZM732.994 50.9707V50.0119L736.594 46.0701C737.017 45.6085 737.365 45.2072 737.639 44.8663C737.912 44.5218 738.114 44.1987 738.246 43.8968C738.381 43.5914 738.448 43.2718 738.448 42.938C738.448 42.5545 738.356 42.2225 738.171 41.9419C737.99 41.6614 737.742 41.4448 737.425 41.2921C737.109 41.1394 736.754 41.063 736.36 41.063C735.941 41.063 735.575 41.15 735.263 41.324C734.954 41.4945 734.714 41.7342 734.544 42.0431C734.377 42.3521 734.293 42.7143 734.293 43.1298H733.036C733.036 42.4906 733.184 41.9295 733.478 41.4466C733.773 40.9636 734.174 40.5872 734.682 40.3173C735.194 40.0474 735.767 39.9125 736.403 39.9125C737.042 39.9125 737.608 40.0474 738.102 40.3173C738.596 40.5872 738.983 40.9512 739.263 41.4093C739.544 41.8674 739.684 42.377 739.684 42.938C739.684 43.3393 739.611 43.7317 739.466 44.1152C739.324 44.4952 739.075 44.9196 738.72 45.3883C738.368 45.8535 737.88 46.4217 737.255 47.0929L734.805 49.7136V49.7988H739.876V50.9707H732.994ZM745.485 51.1199C744.86 51.1199 744.297 50.9956 743.796 50.747C743.295 50.4984 742.894 50.1575 742.592 49.7243C742.291 49.291 742.125 48.7974 742.097 48.2434H743.375C743.425 48.737 743.649 49.1454 744.047 49.4686C744.448 49.7882 744.927 49.948 745.485 49.948C745.932 49.948 746.33 49.8432 746.678 49.6337C747.03 49.4242 747.305 49.1365 747.504 48.7708C747.706 48.4015 747.807 47.9842 747.807 47.519C747.807 47.0431 747.702 46.6188 747.493 46.2459C747.287 45.8695 747.003 45.573 746.641 45.3564C746.278 45.1397 745.865 45.0297 745.4 45.0261C745.066 45.0225 744.723 45.074 744.371 45.1806C744.02 45.2836 743.73 45.4167 743.503 45.5801L742.267 45.4309L742.928 40.0616H748.596V41.2335H744.036L743.652 44.4508H743.716C743.94 44.2733 744.221 44.1259 744.558 44.0087C744.895 43.8915 745.247 43.8329 745.613 43.8329C746.28 43.8329 746.875 43.9927 747.397 44.3123C747.923 44.6284 748.335 45.0616 748.633 45.612C748.935 46.1625 749.086 46.791 749.086 47.4977C749.086 48.1937 748.929 48.8152 748.617 49.362C748.308 49.9054 747.882 50.335 747.338 50.6511C746.795 50.9636 746.177 51.1199 745.485 51.1199Z" fill="white"/>
</g>
<g clip-path="url(#clip0_11_20)">
<g clip-path="url(#clip1_11_20)">
<g clip-path="url(#clip2_11_20)">
<path fill-rule="evenodd" clip-rule="evenodd" d="M1381.61 4.11035C1383.13 4.11035 1384.5 4.72558 1385.5 5.72028C1386.49 6.71497 1387.11 8.08913 1387.11 9.607V27.3654C1387.11 28.8832 1386.49 30.2574 1385.5 31.2521C1384.5 32.2468 1383.13 32.862 1381.61 32.862H1253.92C1252.4 32.862 1251.03 32.2468 1250.03 31.2521C1249.04 30.2574 1248.42 28.8832 1248.42 27.3654V9.607C1248.42 8.08913 1249.04 6.71497 1250.03 5.72028C1251.03 4.72558 1252.4 4.11035 1253.92 4.11035H1381.61Z" stroke="white" stroke-width="0.845638"/>
<mask id="mask0_11_20" style="mask-type:luminance" maskUnits="userSpaceOnUse" x="1248" y="3" width="140" height="31">
<path fill-rule="evenodd" clip-rule="evenodd" d="M1253.92 3.6875H1381.61C1384.88 3.6875 1387.53 6.33773 1387.53 9.60697V27.3653C1387.53 30.6346 1384.88 33.2848 1381.61 33.2848H1253.92C1250.65 33.2848 1248 30.6346 1248 27.3653V9.60697C1248 6.33773 1250.65 3.6875 1253.92 3.6875Z" fill="white"/>
</mask>
<g mask="url(#mask0_11_20)">
<path fill-rule="evenodd" clip-rule="evenodd" d="M1390.41 -2.23242V38.2157H1309.25L1326.86 -2.23242H1390.41ZM1339.99 16.3716C1338.17 16.3716 1336.54 17.5076 1335.85 19.2459L1333.42 25.4079L1333.41 25.4557C1333.4 25.5514 1333.46 25.6431 1333.55 25.6674L1333.6 25.6736L1333.79 25.6693C1335.53 25.5917 1337.07 24.4756 1337.73 22.7992L1340.16 16.6372L1340.17 16.5894C1340.19 16.4938 1340.13 16.4021 1340.04 16.3778L1339.99 16.3716ZM1344.59 16.3721L1344.59 16.3719L1344.6 16.3717L1344.6 16.3716C1344.62 16.3716 1344.63 16.3732 1344.64 16.3743C1345.29 16.3968 1345.88 16.6324 1346.36 17.016C1346.9 16.5832 1347.59 16.3371 1348.33 16.3756C1349.81 16.4522 1351.03 17.6861 1351.16 19.2341C1351.19 19.6357 1351.15 20.0228 1351.05 20.3831L1350.99 20.5611L1350.06 22.9127C1349.48 24.4193 1348.16 25.4535 1346.66 25.6422L1346.48 25.6613L1346.47 25.6676H1346.38L1346.28 25.6719L1346.18 25.6736L1346.19 25.6676H1344.37C1344.34 25.6676 1344.32 25.6397 1344.33 25.6134C1344.54 25.0196 1344.96 24.5331 1345.52 24.2843C1346.07 24.0364 1346.58 23.5602 1346.86 23.0011L1346.93 22.8468L1348.38 19.2105C1348.47 18.9813 1348.37 18.7953 1348.15 18.7953C1347.97 18.7954 1347.76 18.9283 1347.64 19.1095L1347.6 19.1899L1346.25 22.2052C1346.17 22.3816 1345.98 22.4801 1345.79 22.4274C1345.58 22.3714 1345.47 22.1587 1345.51 21.95L1345.53 21.8723L1346.47 19.1899C1346.54 18.9934 1346.47 18.8344 1346.3 18.8015L1346.23 18.7953H1346.22C1346.03 18.7954 1345.82 18.9283 1345.7 19.1095L1345.66 19.1899L1344.31 22.2052C1344.23 22.3816 1344.04 22.4801 1343.85 22.4274C1343.65 22.3714 1343.53 22.1587 1343.57 21.95L1343.59 21.8723L1344.54 19.1899C1344.62 18.9605 1344.51 18.7792 1344.29 18.7849C1344.09 18.79 1343.88 18.9411 1343.77 19.1357L1343.73 19.2105L1342.28 22.8468C1342.1 23.2943 1342.11 23.6995 1342.27 23.9928C1342.55 24.4974 1342.66 25.0783 1342.57 25.6339C1342.57 25.647 1342.56 25.6576 1342.55 25.6632L1342.53 25.6676H1341.02C1339.86 25.6676 1339.06 24.4834 1339.41 23.3577L1339.46 23.2374L1341.2 18.7594C1341.69 17.5254 1342.74 16.659 1343.96 16.4324C1344.15 16.394 1344.34 16.3716 1344.54 16.3716L1344.56 16.372L1344.58 16.3726L1344.58 16.3725L1344.59 16.3721ZM1370.48 10.4521C1368.53 10.5324 1366.8 11.7394 1366.06 13.5536L1361.32 25.49L1361.32 25.529C1361.31 25.6066 1361.37 25.6769 1361.46 25.6736C1363.4 25.5934 1365.14 24.3863 1365.88 22.572L1370.61 10.6357L1370.62 10.5966C1370.62 10.5192 1370.56 10.4488 1370.48 10.4521ZM1356.43 10.4538L1356.48 10.4537L1356.53 10.4674C1357.95 11.0921 1358.66 12.7374 1358.16 14.2267L1358.11 14.3856L1357.25 16.5594C1357.48 16.5243 1357.71 16.5061 1357.95 16.5061C1360.41 16.5061 1361.84 18.5583 1361.13 21.0898C1360.43 23.6214 1357.85 25.6736 1355.38 25.6736C1352.91 25.6736 1351.49 23.6214 1352.19 21.0898C1352.24 20.9264 1352.29 20.7651 1352.35 20.6061L1352.45 20.3696L1356.28 10.571C1356.31 10.5053 1356.37 10.4626 1356.43 10.4538ZM1374.01 16.3716C1371.54 16.3716 1368.97 18.454 1368.26 21.0226C1367.55 23.5912 1368.98 25.6736 1371.45 25.6736C1373.31 25.6736 1375.23 24.4905 1376.37 22.8081L1376.29 22.8077C1376.05 22.8064 1375.3 22.8022 1374.63 22.7957C1374.01 22.7896 1373.38 22.8571 1372.78 23.0365C1372.57 23.0985 1372.36 23.1319 1372.15 23.1319C1371.36 23.1319 1370.8 22.6605 1370.66 21.9729C1370.62 21.8057 1370.74 21.646 1370.91 21.646L1376.53 21.6449L1376.62 21.6376C1376.87 21.5992 1377.08 21.4124 1377.16 21.1539C1377.18 21.1103 1377.19 21.0665 1377.2 21.0226C1377.91 18.454 1376.48 16.3716 1374.01 16.3716ZM1333.03 11.8931C1334.54 10.6581 1336.14 10.4521 1337.38 10.4521C1338.05 10.4521 1339.28 10.5126 1340.11 11.1941C1340.19 11.2632 1340.2 11.3872 1340.13 11.4691L1340.09 11.506L1338.82 12.4648C1338.14 12.9779 1337.32 13.2554 1336.48 13.2897L1336.25 13.293L1336.23 13.2929C1335.81 13.2929 1335.35 13.437 1334.96 13.7664C1334.49 14.1369 1334.25 14.6575 1334.08 15.0581L1334.02 15.1867L1333.5 16.4836H1335.42C1335.47 16.4836 1335.5 16.5225 1335.51 16.5665L1335.5 16.5999L1335.27 17.1753C1334.82 18.2857 1333.8 19.0281 1332.64 19.0933L1332.47 19.098L1331.1 22.5431C1330.38 24.3351 1328.74 25.541 1326.87 25.6731C1326.73 25.6831 1326.63 25.552 1326.65 25.4159L1326.66 25.365L1330.65 15.3515C1331.1 14.2399 1331.78 12.9224 1333.03 11.8931ZM1357.2 19.3971C1357.93 19.5064 1358.24 20.2933 1357.91 21.1546C1357.57 22.0159 1356.71 22.6253 1355.98 22.5159C1355.26 22.4067 1354.94 21.6197 1355.28 20.7585C1355.59 19.9451 1356.38 19.3563 1357.08 19.3855C1357.12 19.3872 1357.16 19.3911 1357.2 19.3971ZM1374.97 19.8967C1374.94 19.061 1374.36 18.4548 1373.47 18.4548C1372.61 18.4548 1371.72 19.032 1371.23 19.8357C1371.18 19.9076 1371.22 19.9987 1371.29 20.0232L1371.33 20.0296H1374.84C1374.91 20.0296 1374.97 19.969 1374.97 19.8967Z" fill="white"/>
</g>
<path d="M1309.12 16.6914H1309.95L1307.52 22.3234C1307.14 23.1859 1306.6 23.5715 1305.84 23.5715C1305.59 23.5715 1305.34 23.5411 1305.08 23.47V22.8104C1305.34 22.8409 1305.54 22.8612 1305.68 22.8612C1306.2 22.8612 1306.54 22.6684 1306.8 22.0697L1307.06 21.4811L1305.01 16.6914H1305.85L1307.49 20.6287L1309.12 16.6914Z" fill="white"/>
<path d="M1304.35 19.1673C1304.35 20.6184 1303.3 21.7448 1301.91 21.7448C1301.14 21.7448 1300.41 21.41 1300.04 20.8518V21.6332H1299.31V14.0225H1300.09V17.4118C1300.48 16.8942 1301.16 16.5797 1301.9 16.5797C1303.29 16.5797 1304.35 17.7162 1304.35 19.1673ZM1303.55 19.1572C1303.55 18.0917 1302.8 17.3002 1301.79 17.3002C1300.88 17.3002 1300.08 17.909 1300.08 19.1673C1300.08 20.4155 1300.91 21.0243 1301.79 21.0243C1302.8 21.0243 1303.55 20.2227 1303.55 19.1572Z" fill="white"/>
<path d="M1293.97 14.0225H1294.75V21.6332H1294.01V20.8518C1293.63 21.41 1292.91 21.7448 1292.14 21.7448C1290.75 21.7448 1289.7 20.6184 1289.7 19.1673C1289.7 17.7162 1290.75 16.5797 1292.14 16.5797C1292.88 16.5797 1293.57 16.8942 1293.97 17.4219V14.0225ZM1293.98 19.1673C1293.98 17.909 1293.15 17.3002 1292.25 17.3002C1291.25 17.3002 1290.5 18.0917 1290.5 19.1572C1290.5 20.2227 1291.25 21.0243 1292.25 21.0243C1293.15 21.0243 1293.98 20.4155 1293.98 19.1673Z" fill="white"/>
<path d="M1288.62 19.4011H1284.71C1284.8 20.3753 1285.55 21.0247 1286.53 21.0247C1287.08 21.0247 1287.59 20.8015 1288.04 20.355L1288.5 20.8827C1287.98 21.4205 1287.3 21.7452 1286.52 21.7452C1285.05 21.7452 1283.9 20.6188 1283.9 19.1677C1283.9 17.7369 1285.01 16.5801 1286.43 16.5801C1287.7 16.5801 1288.68 17.5035 1288.68 18.8126C1288.68 19.0054 1288.66 19.1982 1288.62 19.4011ZM1284.74 18.7111H1287.88C1287.87 17.8282 1287.23 17.2904 1286.4 17.2904C1285.58 17.2904 1284.91 17.8587 1284.74 18.7111Z" fill="white"/>
<path d="M1283.3 16.691V17.381H1283.01C1282.18 17.381 1281.46 17.9188 1281.46 18.8321V21.6329H1280.68V16.691H1281.41V17.3912C1281.76 16.9142 1282.34 16.6504 1282.94 16.6504C1283.05 16.6504 1283.17 16.6605 1283.3 16.691Z" fill="white"/>
<path d="M1279.24 19.4011H1275.34C1275.43 20.3753 1276.18 21.0247 1277.15 21.0247C1277.71 21.0247 1278.22 20.8015 1278.66 20.355L1279.12 20.8827C1278.6 21.4205 1277.92 21.7452 1277.14 21.7452C1275.67 21.7452 1274.52 20.6188 1274.52 19.1677C1274.52 17.7369 1275.64 16.5801 1277.05 16.5801C1278.33 16.5801 1279.3 17.5035 1279.3 18.8126C1279.3 19.0054 1279.28 19.1982 1279.24 19.4011ZM1275.37 18.7111H1278.5C1278.49 17.8282 1277.85 17.2904 1277.03 17.2904C1276.21 17.2904 1275.54 17.8587 1275.37 18.7111Z" fill="white"/>
<path d="M1273.11 16.6917H1273.95L1271.87 21.7452H1271.58L1269.9 18.0109L1268.22 21.7452H1267.95L1265.85 16.6917H1266.68L1268.11 20.355L1269.75 16.5801H1270.05L1271.71 20.3246L1273.11 16.6917Z" fill="white"/>
<path d="M1260.1 19.1572C1260.06 17.7466 1261.27 16.5492 1262.68 16.5797C1264.09 16.5594 1265.3 17.7466 1265.27 19.1572C1265.3 20.5474 1264.08 21.7651 1262.67 21.7347C1261.26 21.7651 1260.07 20.5474 1260.1 19.1572ZM1264.47 19.1673C1264.47 18.1018 1263.69 17.3002 1262.68 17.3002C1261.67 17.3002 1260.9 18.1018 1260.9 19.1673C1260.9 20.2024 1261.67 21.0142 1262.67 21.0142C1263.68 21.0142 1264.47 20.2024 1264.47 19.1673Z" fill="white"/>
<path d="M1254.84 21.633V14.9355H1257.2C1258.5 14.9355 1259.34 15.7474 1259.34 16.8737C1259.34 18.0204 1258.5 18.8322 1257.2 18.8322H1255.63V21.633H1254.84ZM1255.63 18.1219H1257.18C1258.03 18.1219 1258.52 17.6247 1258.52 16.8839C1258.52 16.1533 1258.03 15.6459 1257.18 15.6459H1255.63V18.1219Z" fill="white"/>
</g>
</g>
</g>
<defs>
<filter id="filter0_d_11_20" x="0.165527" y="17.8945" width="106.299" height="14.7832" filterUnits="userSpaceOnUse" color-interpolation-filters="sRGB">
<feFlood flood-opacity="0" result="BackgroundImageFix"/>
<feColorMatrix in="SourceAlpha" type="matrix" values="0 0 0 0 0 0 0 0 0 0 0 0 0 0 0 0 0 0 127 0" result="hardAlpha"/>
<feOffset/>
<feGaussianBlur stdDeviation="0.5"/>
<feComposite in2="hardAlpha" operator="out"/>
<feColorMatrix type="matrix" values="0 0 0 0 0 0 0 0 0 0 0 0 0 0 0 0 0 0 0.01 0"/>
<feBlend mode="normal" in2="BackgroundImageFix" result="effect1_dropShadow_11_20"/>
<feBlend mode="normal" in="SourceGraphic" in2="effect1_dropShadow_11_20" result="shape"/>
</filter>
<filter id="filter1_d_11_20" x="638.478" y="11.8916" width="13.2607" height="13.25" filterUnits="userSpaceOnUse" color-interpolation-filters="sRGB">
<feFlood flood-opacity="0" result="BackgroundImageFix"/>
<feColorMatrix in="SourceAlpha" type="matrix" values="0 0 0 0 0 0 0 0 0 0 0 0 0 0 0 0 0 0 127 0" result="hardAlpha"/>
<feOffset/>
<feGaussianBlur stdDeviation="0.5"/>
<feComposite in2="hardAlpha" operator="out"/>
<feColorMatrix type="matrix" values="0 0 0 0 0 0 0 0 0 0 0 0 0 0 0 0 0 0 0.01 0"/>
<feBlend mode="normal" in2="BackgroundImageFix" result="effect1_dropShadow_11_20"/>
<feBlend mode="normal" in="SourceGraphic" in2="effect1_dropShadow_11_20" result="shape"/>
</filter>
<filter id="filter2_d_11_20" x="657.389" y="18.5176" width="51.1543" height="12.6348" filterUnits="userSpaceOnUse" color-interpolation-filters="sRGB">
<feFlood flood-opacity="0" result="BackgroundImageFix"/>
<feColorMatrix in="SourceAlpha" type="matrix" values="0 0 0 0 0 0 0 0 0 0 0 0 0 0 0 0 0 0 127 0" result="hardAlpha"/>
<feOffset/>
<feGaussianBlur stdDeviation="0.5"/>
<feComposite in2="hardAlpha" operator="out"/>
<feColorMatrix type="matrix" values="0 0 0 0 0 0 0 0 0 0 0 0 0 0 0 0 0 0 0.01 0"/>
<feBlend mode="normal" in2="BackgroundImageFix" result="effect1_dropShadow_11_20"/>
<feBlend mode="normal" in="SourceGraphic" in2="effect1_dropShadow_11_20" result="shape"/>
</filter>
<filter id="filter3_d_11_20" x="713.537" y="38.9121" width="36.5488" height="13.208" filterUnits="userSpaceOnUse" color-interpolation-filters="sRGB">
<feFlood flood-opacity="0" result="BackgroundImageFix"/>
<feColorMatrix in="SourceAlpha" type="matrix" values="0 0 0 0 0 0 0 0 0 0 0 0 0 0 0 0 0 0 127 0" result="hardAlpha"/>
<feOffset/>
<feGaussianBlur stdDeviation="0.5"/>
<feComposite in2="hardAlpha" operator="out"/>
<feColorMatrix type="matrix" values="0 0 0 0 0 0 0 0 0 0 0 0 0 0 0 0 0 0 0.01 0"/>
<feBlend mode="normal" in2="BackgroundImageFix" result="effect1_dropShadow_11_20"/>
<feBlend mode="normal" in="SourceGraphic" in2="effect1_dropShadow_11_20" result="shape"/>
</filter>
<clipPath id="clip0_11_20">
<rect width="140" height="31" fill="white" transform="translate(1248 2.9707)"/>
</clipPath>
<clipPath id="clip1_11_20">
<rect width="140" height="31" fill="white" transform="translate(1248 2.9707)"/>
</clipPath>
<clipPath id="clip2_11_20">
<rect width="140" height="31.0067" fill="white" transform="translate(1248 2.96777)"/>
</clipPath>
</defs>
</svg>
