<svg width="250" height="46" viewBox="0 0 250 46" fill="none" xmlns="http://www.w3.org/2000/svg">
<g clip-path="url(#clip0_6_2950)">
<g clip-path="url(#clip1_6_2950)">
<path d="M29.0158 14.323C29.0158 15.0916 28.495 15.7491 27.8365 15.9272L27.5649 15.9849C27.2656 16.0327 27.0419 16.2561 26.9906 16.5408L26.9794 16.6663C26.9794 17.0027 27.2246 17.2853 27.5449 17.3439L27.6682 17.3551L27.7037 17.3555C27.9662 17.3037 28.2265 17.4772 28.28 17.7448C28.3335 18.0124 28.16 18.2727 27.8924 18.3262L27.8236 18.3374L27.6682 18.3433L27.4971 18.3346C26.6528 18.2486 25.9912 17.5328 25.9912 16.6663C25.9912 15.8953 26.508 15.239 27.1697 15.0619L27.4435 15.0038C27.7376 14.9567 27.9641 14.7306 28.0162 14.4475L28.0276 14.323C28.0276 13.9446 27.7172 13.6342 27.3388 13.6342L27.1929 13.6415C26.9632 13.633 26.7634 13.4644 26.7241 13.2288C26.6793 12.9597 26.8611 12.7051 27.1303 12.6602L27.2527 12.6474L27.3388 12.646C28.263 12.646 29.0158 13.3988 29.0158 14.323Z" fill="#6B6B6B"/>
<path d="M26.4255 14.323C26.4255 15.0916 25.9047 15.7491 25.2461 15.9272L24.9744 15.9849C24.6753 16.0327 24.4516 16.2561 24.4003 16.5408L24.3891 16.6663C24.3891 17.0027 24.6343 17.2853 24.9546 17.3439L25.1133 17.3555C25.3758 17.3037 25.6362 17.4772 25.6897 17.7448C25.7432 18.0124 25.5697 18.2727 25.3021 18.3262C25.2268 18.3413 25.1802 18.3433 25.0779 18.3433C24.1537 18.3433 23.4009 17.5905 23.4009 16.6663C23.4009 15.8953 23.9177 15.239 24.5794 15.0619L24.8544 15.0038C25.1473 14.9567 25.3738 14.7306 25.4259 14.4475L25.4372 14.323C25.4372 13.9446 25.1269 13.6342 24.7485 13.6342L24.6026 13.6415C24.3729 13.633 24.1731 13.4644 24.1338 13.2288C24.0889 12.9597 24.2708 12.7051 24.54 12.6602L24.6624 12.6474L24.7485 12.646C25.6727 12.646 26.4255 13.3988 26.4255 14.323Z" fill="#6B6B6B"/>
<path d="M35.5592 19.1443C35.798 19.1443 35.9972 19.3137 36.0433 19.5388L36.0533 19.6384V21.555C36.0533 22.8816 35.6336 25.2452 34.8322 27.2773C33.6195 30.3528 31.6823 32.5317 28.8959 33.3203C28.6333 33.3946 28.3602 33.242 28.2859 32.9794C28.2116 32.7168 28.3642 32.4437 28.6268 32.3694C31.0713 31.6776 32.8028 29.73 33.9129 26.9148C34.6168 25.1296 35.0104 23.0586 35.0598 21.8096L35.0651 21.555L35.0643 20.1312H17.9269L17.928 21.6858L17.9553 22.1504C17.9851 22.53 18.0327 22.9541 18.1021 23.4112C18.3003 24.7162 18.6325 26.0203 19.1284 27.2322C20.212 29.8806 21.9089 31.7009 24.3474 32.3682C24.6106 32.4403 24.7656 32.712 24.6935 32.9752C24.6215 33.2385 24.3497 33.3934 24.0865 33.3214C21.3126 32.5623 19.4035 30.5143 18.2138 27.6064C17.6853 26.3149 17.3342 24.9368 17.1251 23.5596C17.0702 23.1983 17.0282 22.8562 16.9974 22.5378L16.9577 22.0572L16.9399 21.6972V19.6384C16.9399 19.3996 17.1093 19.2004 17.3345 19.1543L17.4341 19.1443H35.5592Z" fill="#6B6B6B"/>
<path d="M34.451 32.5605C34.7239 32.5605 34.9452 32.7818 34.9452 33.0547C34.9452 33.2934 34.7758 33.4927 34.5506 33.5387L34.451 33.5488H18.2949C18.022 33.5488 17.8008 33.3276 17.8008 33.0547C17.8008 32.8159 17.9702 32.6167 18.1953 32.5706L18.2949 32.5605H34.451Z" fill="#6B6B6B"/>
<path d="M36.2928 22.3711C37.1924 22.3711 38.0502 22.7452 38.6291 23.4031C39.0895 23.9147 39.3549 24.5654 39.3549 25.3208C39.3549 27.0428 38.0233 28.1787 36.7966 28.2784L36.6223 28.2855H34.0693C33.7964 28.2855 33.5752 28.0643 33.5752 27.7914C33.5752 27.5526 33.7446 27.3534 33.9697 27.3073L34.0693 27.2973H36.6223C37.3912 27.2973 38.3666 26.5225 38.3666 25.3208C38.3666 24.8172 38.1963 24.3995 37.8909 24.0601C37.5481 23.6706 37.0565 23.4262 36.5235 23.3712L36.2928 23.3593H35.4693C35.1964 23.3593 34.9752 23.1381 34.9752 22.8652C34.9752 22.6264 35.1446 22.4272 35.3697 22.3811L35.4693 22.3711H36.2928Z" fill="#6B6B6B"/>
</g>
</g>
<g clip-path="url(#clip2_6_2950)">
<g filter="url(#filter0_d_6_2950)">
<path d="M50.7301 19.7273V31H49.3651V19.7273H50.7301ZM59.2796 24.4389L58.1127 24.7692C58.0393 24.5747 57.9311 24.3857 57.788 24.2022C57.6485 24.0151 57.4577 23.861 57.2155 23.7399C56.9733 23.6188 56.6632 23.5582 56.2853 23.5582C55.7679 23.5582 55.3367 23.6775 54.9918 23.916C54.6505 24.1509 54.4799 24.4499 54.4799 24.8132C54.4799 25.1361 54.5973 25.3912 54.8322 25.5783C55.067 25.7654 55.434 25.9214 55.933 26.0462L57.188 26.3544C57.9439 26.5379 58.5072 26.8186 58.8778 27.1966C59.2484 27.5708 59.4337 28.0534 59.4337 28.6442C59.4337 29.1286 59.2943 29.5616 59.0154 29.9432C58.7402 30.3248 58.3549 30.6257 57.8595 30.8459C57.3641 31.0661 56.788 31.1761 56.1312 31.1761C55.2688 31.1761 54.5551 30.989 53.99 30.6147C53.4249 30.2404 53.0671 29.6937 52.9167 28.9744L54.1496 28.6662C54.2671 29.1212 54.4891 29.4625 54.8157 29.69C55.1459 29.9175 55.5771 30.0312 56.1092 30.0312C56.7146 30.0312 57.1953 29.9028 57.5513 29.646C57.9109 29.3854 58.0907 29.0735 58.0907 28.7102C58.0907 28.4167 57.9879 28.1708 57.7824 27.9727C57.577 27.7708 57.2614 27.6204 56.8357 27.5213L55.4266 27.1911C54.6524 27.0076 54.0836 26.7232 53.7203 26.3379C53.3607 25.9489 53.1809 25.4627 53.1809 24.8793C53.1809 24.4022 53.3148 23.9802 53.5827 23.6133C53.8542 23.2463 54.223 22.9583 54.6891 22.7491C55.1588 22.54 55.6908 22.4354 56.2853 22.4354C57.1219 22.4354 57.7788 22.6188 58.2558 22.9858C58.7365 23.3527 59.0778 23.8371 59.2796 24.4389ZM67.3778 24.4389L66.2108 24.7692C66.1375 24.5747 66.0292 24.3857 65.8861 24.2022C65.7467 24.0151 65.5558 23.861 65.3137 23.7399C65.0715 23.6188 64.7614 23.5582 64.3834 23.5582C63.866 23.5582 63.4349 23.6775 63.0899 23.916C62.7487 24.1509 62.578 24.4499 62.578 24.8132C62.578 25.1361 62.6955 25.3912 62.9303 25.5783C63.1652 25.7654 63.5321 25.9214 64.0312 26.0462L65.2861 26.3544C66.0421 26.5379 66.6053 26.8186 66.9759 27.1966C67.3466 27.5708 67.5319 28.0534 67.5319 28.6442C67.5319 29.1286 67.3924 29.5616 67.1135 29.9432C66.8383 30.3248 66.453 30.6257 65.9577 30.8459C65.4623 31.0661 64.8862 31.1761 64.2293 31.1761C63.367 31.1761 62.6533 30.989 62.0882 30.6147C61.5231 30.2404 61.1653 29.6937 61.0148 28.9744L62.2478 28.6662C62.3652 29.1212 62.5872 29.4625 62.9138 29.69C63.2441 29.9175 63.6752 30.0312 64.2073 30.0312C64.8128 30.0312 65.2935 29.9028 65.6494 29.646C66.009 29.3854 66.1888 29.0735 66.1888 28.7102C66.1888 28.4167 66.0861 28.1708 65.8806 27.9727C65.6751 27.7708 65.3595 27.6204 64.9339 27.5213L63.5248 27.1911C62.7505 27.0076 62.1817 26.7232 61.8184 26.3379C61.4588 25.9489 61.279 25.4627 61.279 24.8793C61.279 24.4022 61.413 23.9802 61.6808 23.6133C61.9524 23.2463 62.3212 22.9583 62.7872 22.7491C63.2569 22.54 63.789 22.4354 64.3834 22.4354C65.2201 22.4354 65.8769 22.6188 66.354 22.9858C66.8347 23.3527 67.1759 23.8371 67.3778 24.4389ZM69.4873 31V22.5455H70.7863V31H69.4873ZM70.1478 21.1364C69.8946 21.1364 69.6762 21.0501 69.4928 20.8777C69.313 20.7052 69.2231 20.4979 69.2231 20.2557C69.2231 20.0135 69.313 19.8062 69.4928 19.6337C69.6762 19.4612 69.8946 19.375 70.1478 19.375C70.401 19.375 70.6175 19.4612 70.7973 19.6337C70.9807 19.8062 71.0725 20.0135 71.0725 20.2557C71.0725 20.4979 70.9807 20.7052 70.7973 20.8777C70.6175 21.0501 70.401 21.1364 70.1478 21.1364ZM78.9339 34.1705V29.701H78.8239C78.7285 29.8551 78.5927 30.0496 78.4165 30.2844C78.2404 30.5156 77.9891 30.723 77.6625 30.9064C77.3359 31.0862 76.901 31.1761 76.358 31.1761C75.6534 31.1761 75.0314 30.9982 74.492 30.6422C73.9526 30.2826 73.5306 29.7762 73.226 29.123C72.9215 28.4662 72.7692 27.6901 72.7692 26.7947C72.7692 25.9067 72.9215 25.1361 73.226 24.483C73.5306 23.8298 73.9544 23.3252 74.4975 22.9693C75.0406 22.6133 75.6681 22.4354 76.38 22.4354C76.9304 22.4354 77.3652 22.5271 77.6845 22.7106C78.0074 22.8904 78.2533 23.0959 78.4221 23.3271C78.5945 23.5546 78.7285 23.7417 78.8239 23.8885H78.978V22.5455H80.233V34.1705H78.9339ZM76.5341 30.0092C77.0552 30.0092 77.4955 29.8735 77.8551 29.6019C78.2147 29.3267 78.4881 28.9469 78.6752 28.4625C78.8624 27.9745 78.956 27.4112 78.956 26.7727C78.956 26.1416 78.8642 25.5893 78.6808 25.1159C78.4973 24.6389 78.2257 24.2683 77.8661 24.0041C77.5065 23.7362 77.0625 23.6023 76.5341 23.6023C75.9837 23.6023 75.525 23.7435 75.158 24.0261C74.7947 24.305 74.5214 24.6848 74.3379 25.1655C74.1581 25.6425 74.0682 26.1783 74.0682 26.7727C74.0682 27.3745 74.1599 27.9213 74.3434 28.413C74.5305 28.901 74.8058 29.29 75.169 29.5799C75.536 29.8661 75.991 30.0092 76.5341 30.0092ZM86.9702 31V22.5455H88.2692V31H86.9702ZM87.6307 21.1364C87.3775 21.1364 87.1592 21.0501 86.9757 20.8777C86.7959 20.7052 86.706 20.4979 86.706 20.2557C86.706 20.0135 86.7959 19.8062 86.9757 19.6337C87.1592 19.4612 87.3775 19.375 87.6307 19.375C87.8839 19.375 88.1004 19.4612 88.2802 19.6337C88.4637 19.8062 88.5554 20.0135 88.5554 20.2557C88.5554 20.4979 88.4637 20.7052 88.2802 20.8777C88.1004 21.0501 87.8839 21.1364 87.6307 21.1364ZM94.0831 31.1761C93.2904 31.1761 92.6079 30.989 92.0355 30.6147C91.463 30.2404 91.0227 29.7248 90.7144 29.068C90.4062 28.4112 90.2521 27.6607 90.2521 26.8168C90.2521 25.9581 90.4099 25.2003 90.7255 24.5435C91.0447 23.883 91.4887 23.3674 92.0575 22.9968C92.6299 22.6225 93.2978 22.4354 94.061 22.4354C94.6555 22.4354 95.1912 22.5455 95.6683 22.7656C96.1453 22.9858 96.5361 23.294 96.8407 23.6903C97.1453 24.0866 97.3342 24.549 97.4076 25.0774H96.1086C96.0095 24.6921 95.7894 24.3509 95.4481 24.0536C95.1105 23.7527 94.6555 23.6023 94.0831 23.6023C93.5767 23.6023 93.1326 23.7344 92.751 23.9986C92.3731 24.2591 92.0777 24.6279 91.8648 25.1049C91.6557 25.5783 91.5511 26.1342 91.5511 26.7727C91.5511 27.4259 91.6538 27.9947 91.8593 28.479C92.0685 28.9634 92.3621 29.3395 92.74 29.6074C93.1216 29.8753 93.5693 30.0092 94.0831 30.0092C94.4206 30.0092 94.7271 29.9505 95.0023 29.8331C95.2775 29.7157 95.5105 29.5469 95.7013 29.3267C95.8921 29.1065 96.0279 28.8423 96.1086 28.5341H97.4076C97.3342 29.0331 97.1526 29.4827 96.8627 29.8826C96.5765 30.2789 96.1967 30.5945 95.7233 30.8294C95.2536 31.0605 94.7069 31.1761 94.0831 31.1761ZM100.606 25.9141V31H99.3066V19.7273H100.606V23.8665H100.716C100.914 23.4298 101.211 23.083 101.607 22.8262C102.007 22.5656 102.539 22.4354 103.204 22.4354C103.78 22.4354 104.284 22.551 104.717 22.7821C105.15 23.0096 105.486 23.3601 105.725 23.8335C105.967 24.3031 106.088 24.9013 106.088 25.6278V31H104.789V25.7159C104.789 25.0444 104.615 24.5252 104.266 24.1582C103.921 23.7876 103.442 23.6023 102.829 23.6023C102.404 23.6023 102.022 23.6922 101.684 23.872C101.351 24.0518 101.086 24.3142 100.892 24.6591C100.701 25.004 100.606 25.4223 100.606 25.9141ZM108.464 31V22.5455H109.763V31H108.464ZM109.125 21.1364C108.872 21.1364 108.653 21.0501 108.47 20.8777C108.29 20.7052 108.2 20.4979 108.2 20.2557C108.2 20.0135 108.29 19.8062 108.47 19.6337C108.653 19.4612 108.872 19.375 109.125 19.375C109.378 19.375 109.595 19.4612 109.774 19.6337C109.958 19.8062 110.05 20.0135 110.05 20.2557C110.05 20.4979 109.958 20.7052 109.774 20.8777C109.595 21.0501 109.378 21.1364 109.125 21.1364ZM112.143 31V22.5455H113.398V23.8665H113.508C113.684 23.4151 113.968 23.0647 114.361 22.8152C114.753 22.562 115.225 22.4354 115.775 22.4354C116.333 22.4354 116.797 22.562 117.168 22.8152C117.542 23.0647 117.834 23.4151 118.043 23.8665H118.131C118.348 23.4298 118.672 23.083 119.105 22.8262C119.538 22.5656 120.058 22.4354 120.663 22.4354C121.419 22.4354 122.037 22.6721 122.518 23.1454C122.999 23.6151 123.239 24.3472 123.239 25.3416V31H121.94V25.3416C121.94 24.7178 121.769 24.272 121.428 24.0041C121.087 23.7362 120.685 23.6023 120.223 23.6023C119.628 23.6023 119.168 23.7821 118.841 24.1417C118.515 24.4976 118.351 24.949 118.351 25.4957V31H117.03V25.2095C117.03 24.7288 116.874 24.3417 116.562 24.0481C116.251 23.7509 115.849 23.6023 115.357 23.6023C115.019 23.6023 114.704 23.6922 114.41 23.872C114.12 24.0518 113.886 24.3013 113.706 24.6206C113.53 24.9361 113.442 25.3013 113.442 25.7159V31H112.143ZM126.913 19.7273V31H125.614V19.7273H126.913ZM129.292 31V22.5455H130.591V31H129.292ZM129.953 21.1364C129.7 21.1364 129.481 21.0501 129.298 20.8777C129.118 20.7052 129.028 20.4979 129.028 20.2557C129.028 20.0135 129.118 19.8062 129.298 19.6337C129.481 19.4612 129.7 19.375 129.953 19.375C130.206 19.375 130.423 19.4612 130.602 19.6337C130.786 19.8062 130.878 20.0135 130.878 20.2557C130.878 20.4979 130.786 20.7052 130.602 20.8777C130.423 21.0501 130.206 21.1364 129.953 21.1364ZM134.182 27.9176L134.16 26.3104H134.424L138.123 22.5455H139.73L135.789 26.5305H135.679L134.182 27.9176ZM132.971 31V19.7273H134.27V31H132.971ZM138.343 31L135.04 26.8168L135.965 25.9141L139.994 31H138.343ZM142.701 19.7273V31H141.402V19.7273H142.701ZM147.568 31.1982C147.032 31.1982 146.546 31.0972 146.109 30.8954C145.673 30.6899 145.326 30.3945 145.069 30.0092C144.812 29.6203 144.684 29.1506 144.684 28.6001C144.684 28.1158 144.779 27.7231 144.97 27.4222C145.161 27.1177 145.416 26.8791 145.735 26.7067C146.054 26.5342 146.407 26.4058 146.792 26.3214C147.181 26.2333 147.572 26.1636 147.964 26.1122C148.478 26.0462 148.894 25.9966 149.214 25.9636C149.537 25.9269 149.771 25.8664 149.918 25.782C150.069 25.6976 150.144 25.5508 150.144 25.3416V25.2976C150.144 24.7545 149.995 24.3325 149.698 24.0316C149.405 23.7307 148.959 23.5803 148.361 23.5803C147.74 23.5803 147.254 23.716 146.902 23.9876C146.55 24.2591 146.302 24.549 146.159 24.8572L144.926 24.4169C145.146 23.9032 145.44 23.5032 145.807 23.217C146.177 22.9271 146.581 22.7253 147.018 22.6115C147.458 22.4941 147.891 22.4354 148.317 22.4354C148.588 22.4354 148.9 22.4684 149.252 22.5344C149.608 22.5968 149.951 22.7271 150.282 22.9252C150.615 23.1234 150.893 23.4225 151.113 23.8224C151.333 24.2224 151.443 24.7582 151.443 25.4297V31H150.144V29.8551H150.078C149.99 30.0386 149.843 30.2349 149.638 30.4441C149.432 30.6532 149.159 30.8312 148.817 30.978C148.476 31.1248 148.06 31.1982 147.568 31.1982ZM147.766 30.0312C148.28 30.0312 148.713 29.9303 149.065 29.7285C149.421 29.5267 149.689 29.2662 149.869 28.9469C150.052 28.6277 150.144 28.2919 150.144 27.9396V26.7507C150.089 26.8168 149.968 26.8773 149.781 26.9324C149.597 26.9837 149.384 27.0296 149.142 27.07C148.904 27.1067 148.671 27.1397 148.443 27.169C148.219 27.1947 148.038 27.2167 147.898 27.2351C147.561 27.2791 147.245 27.3507 146.951 27.4498C146.662 27.5452 146.427 27.6901 146.247 27.8846C146.071 28.0754 145.983 28.3359 145.983 28.6662C145.983 29.1175 146.15 29.4588 146.484 29.69C146.821 29.9175 147.249 30.0312 147.766 30.0312ZM153.814 31V22.5455H155.069V23.8224H155.157C155.311 23.4041 155.59 23.0647 155.994 22.8042C156.397 22.5436 156.852 22.4134 157.359 22.4134C157.454 22.4134 157.573 22.4152 157.716 22.4189C157.86 22.4225 157.968 22.428 158.041 22.4354V23.7564C157.997 23.7454 157.896 23.7289 157.738 23.7069C157.584 23.6812 157.421 23.6683 157.249 23.6683C156.838 23.6683 156.471 23.7546 156.148 23.927C155.828 24.0958 155.575 24.3307 155.388 24.6316C155.205 24.9288 155.113 25.2682 155.113 25.6499V31H153.814Z" fill="#525252"/>
</g>
</g>
<defs>
<filter id="filter0_d_6_2950" x="48.3652" y="18.375" width="110.676" height="16.7954" filterUnits="userSpaceOnUse" color-interpolation-filters="sRGB">
<feFlood flood-opacity="0" result="BackgroundImageFix"/>
<feColorMatrix in="SourceAlpha" type="matrix" values="0 0 0 0 0 0 0 0 0 0 0 0 0 0 0 0 0 0 127 0" result="hardAlpha"/>
<feOffset/>
<feGaussianBlur stdDeviation="0.5"/>
<feComposite in2="hardAlpha" operator="out"/>
<feColorMatrix type="matrix" values="0 0 0 0 0 0 0 0 0 0 0 0 0 0 0 0 0 0 0.01 0"/>
<feBlend mode="normal" in2="BackgroundImageFix" result="effect1_dropShadow_6_2950"/>
<feBlend mode="normal" in="SourceGraphic" in2="effect1_dropShadow_6_2950" result="shape"/>
</filter>
<clipPath id="clip0_6_2950">
<rect width="24" height="24" fill="white" transform="translate(16 11)"/>
</clipPath>
<clipPath id="clip1_6_2950">
<rect width="24" height="24" fill="white" transform="translate(16 11)"/>
</clipPath>
<clipPath id="clip2_6_2950">
<rect width="111" height="20" fill="white" transform="translate(48 13)"/>
</clipPath>
</defs>
</svg>
