<svg width="250" height="46" viewBox="0 0 250 46" fill="none" xmlns="http://www.w3.org/2000/svg">
<g clip-path="url(#clip0_6_2847)">
<g clip-path="url(#clip1_6_2847)">
<path d="M27.3127 11.8667C27.9701 11.8667 28.5722 12.1583 28.9794 12.6329L29.1105 12.8027L29.2883 12.7351C29.4112 12.6947 29.5388 12.6671 29.6695 12.6532L29.8675 12.6427C30.6592 12.6427 31.3453 13.1426 31.6066 13.8576L31.6118 13.876L31.6406 13.8836C32.2742 14.0797 32.7586 14.6054 32.901 15.2557C33.1433 15.3885 33.3141 15.6449 33.3141 15.9532V32.7096C33.3141 33.4846 32.6858 34.1129 31.9108 34.1129H24.3232C23.5482 34.1129 22.9199 33.4846 22.9199 32.7096V15.952C22.9199 15.6378 23.0973 15.3775 23.3462 15.246C23.449 14.3873 24.1406 13.7087 25.006 13.626L25.1638 13.6187L25.1889 13.5071C25.419 12.6223 26.1873 11.9547 27.1234 11.8748L27.3127 11.8667ZM23.8531 16.144L23.8529 17.7416C23.8665 17.772 23.8769 17.8041 23.8837 17.8375L23.8932 17.9316V22.8161C23.8932 22.8838 23.8788 22.9482 23.8528 23.0062L23.8533 32.7096C23.8533 32.9367 24.0143 33.1262 24.2285 33.17L24.3232 33.1796H31.9108C32.1703 33.1796 32.3807 32.9691 32.3807 32.7096L32.3786 19.1L27.9851 17.5982L27.9826 17.596L27.9811 17.5968L23.8531 16.144ZM32.3798 16.144L29.5533 17.148L32.3786 18.1134L32.3798 16.144ZM28.1361 15.4887C27.4312 15.4887 26.7519 15.6524 26.1413 15.9584L28.1345 16.6614L30.123 15.9542C29.5145 15.6509 28.838 15.4887 28.1361 15.4887ZM27.3127 12.8C26.6162 12.8 26.0517 13.3645 26.0517 14.0611L26.0532 14.1259C26.0643 14.4112 25.8222 14.6304 25.5525 14.6097L25.4505 14.5903C25.3652 14.5642 25.2761 14.5509 25.1844 14.5509C24.7337 14.5509 24.3588 14.8757 24.2809 15.304L25.0039 15.5587L25.0566 15.5206C25.951 14.8971 27.018 14.5553 28.1361 14.5553C29.273 14.5553 30.3571 14.9085 31.2607 15.552L31.9443 15.3103C31.8201 15.0017 31.5331 14.7746 31.1874 14.7392C30.9769 14.7176 30.8072 14.5571 30.774 14.3481C30.7039 13.9063 30.3203 13.576 29.8675 13.576C29.6356 13.576 29.4185 13.6615 29.2505 13.8142C29.0051 14.0373 28.6119 13.9404 28.4982 13.6289C28.3181 13.1353 27.8472 12.8 27.3127 12.8Z" fill="#6B6B6B"/>
</g>
</g>
<g clip-path="url(#clip2_6_2847)">
<g filter="url(#filter0_d_6_2847)">
<path d="M48.7305 21.1816V20H56.9805V21.1816H53.5215V31H52.1895V21.1816H48.7305ZM64.6652 22.75L61.6144 31H60.3253L57.2745 22.75H58.6495L60.9269 29.3242H61.0128L63.2902 22.75H64.6652ZM66.3383 31V22.75H67.6058V31H66.3383ZM66.9828 21.375C66.7357 21.375 66.5227 21.2909 66.3436 21.1226C66.1682 20.9543 66.0804 20.752 66.0804 20.5156C66.0804 20.2793 66.1682 20.077 66.3436 19.9087C66.5227 19.7404 66.7357 19.6562 66.9828 19.6562C67.2299 19.6562 67.4411 19.7404 67.6166 19.9087C67.7956 20.077 67.8851 20.2793 67.8851 20.5156C67.8851 20.752 67.7956 20.9543 67.6166 21.1226C67.4411 21.2909 67.2299 21.375 66.9828 21.375ZM75.7712 24.5977L74.6326 24.9199C74.561 24.7301 74.4553 24.5457 74.3157 24.3667C74.1796 24.1841 73.9934 24.0337 73.7571 23.9155C73.5208 23.7974 73.2182 23.7383 72.8494 23.7383C72.3445 23.7383 71.9237 23.8547 71.5872 24.0874C71.2542 24.3166 71.0876 24.6084 71.0876 24.9629C71.0876 25.278 71.2022 25.5269 71.4314 25.7095C71.6606 25.8921 72.0186 26.0443 72.5056 26.166L73.7302 26.4668C74.4679 26.6458 75.0175 26.9198 75.3792 27.2886C75.7408 27.6538 75.9216 28.1247 75.9216 28.7012C75.9216 29.1738 75.7856 29.5964 75.5134 29.9687C75.2449 30.3411 74.8689 30.6348 74.3855 30.8496C73.9021 31.0645 73.3399 31.1719 72.699 31.1719C71.8575 31.1719 71.1611 30.9893 70.6096 30.624C70.0582 30.2588 69.7091 29.7253 69.5623 29.0234L70.7654 28.7227C70.88 29.1667 71.0966 29.4997 71.4153 29.7217C71.7375 29.9437 72.1583 30.0547 72.6775 30.0547C73.2683 30.0547 73.7374 29.9294 74.0847 29.6787C74.4356 29.4245 74.6111 29.1201 74.6111 28.7656C74.6111 28.4792 74.5108 28.2393 74.3103 28.0459C74.1098 27.849 73.8018 27.7021 73.3865 27.6055L72.0115 27.2832C71.2559 27.1042 70.7009 26.8267 70.3464 26.4507C69.9955 26.0711 69.8201 25.5967 69.8201 25.0273C69.8201 24.5618 69.9508 24.1501 70.2122 23.792C70.4771 23.4339 70.837 23.1528 71.2917 22.9487C71.7501 22.7446 72.2693 22.6426 72.8494 22.6426C73.6658 22.6426 74.3067 22.8216 74.7722 23.1797C75.2413 23.5378 75.5743 24.0104 75.7712 24.5977ZM81.4176 22.75V23.8242H77.1422V22.75H81.4176ZM78.3883 20.7734H79.6559V28.6367C79.6559 28.9948 79.7078 29.2633 79.8116 29.4424C79.9191 29.6178 80.0551 29.736 80.2198 29.7969C80.3881 29.8542 80.5654 29.8828 80.7516 29.8828C80.8912 29.8828 81.0058 29.8757 81.0953 29.8613C81.1849 29.8434 81.2565 29.8291 81.3102 29.8184L81.568 30.957C81.4821 30.9893 81.3621 31.0215 81.2081 31.0537C81.0542 31.0895 80.859 31.1074 80.6227 31.1074C80.2646 31.1074 79.9137 31.0304 79.5699 30.8765C79.2298 30.7225 78.9469 30.488 78.7213 30.1729C78.4993 29.8577 78.3883 29.4603 78.3883 28.9805V20.7734ZM86.6947 31.1719C85.8998 31.1719 85.2141 30.9964 84.6376 30.6455C84.0647 30.291 83.6224 29.7969 83.3109 29.1631C83.003 28.5257 82.849 27.7845 82.849 26.9395C82.849 26.0944 83.003 25.3496 83.3109 24.7051C83.6224 24.057 84.0557 23.5521 84.6107 23.1904C85.1693 22.8252 85.821 22.6426 86.5658 22.6426C86.9955 22.6426 87.4198 22.7142 87.8387 22.8574C88.2577 23.0007 88.639 23.2334 88.9828 23.5557C89.3265 23.8743 89.6005 24.2969 89.8046 24.8232C90.0087 25.3496 90.1107 25.9977 90.1107 26.7676V27.3047H83.7513V26.209H88.8217C88.8217 25.7435 88.7286 25.3281 88.5424 24.9629C88.3597 24.5977 88.0983 24.3094 87.7582 24.0981C87.4216 23.8869 87.0241 23.7812 86.5658 23.7812C86.0609 23.7812 85.6241 23.9066 85.2552 24.1572C84.89 24.4043 84.6089 24.7266 84.412 25.124C84.215 25.5215 84.1166 25.9476 84.1166 26.4023V27.1328C84.1166 27.7559 84.224 28.284 84.4388 28.7173C84.6573 29.147 84.9598 29.4746 85.3466 29.7002C85.7333 29.9222 86.1827 30.0332 86.6947 30.0332C87.0277 30.0332 87.3285 29.9867 87.597 29.8936C87.8692 29.7969 88.1037 29.6536 88.3007 29.4639C88.4976 29.2705 88.6498 29.0306 88.7572 28.7441L89.9818 29.0879C89.8529 29.5033 89.6363 29.8685 89.3319 30.1836C89.0275 30.4951 88.6516 30.7386 88.204 30.9141C87.7564 31.0859 87.2533 31.1719 86.6947 31.1719ZM92.0389 31V22.75H93.2635V23.9961H93.3495C93.4999 23.5879 93.772 23.2567 94.1659 23.0024C94.5598 22.7482 95.0038 22.6211 95.4979 22.6211C95.591 22.6211 95.7074 22.6229 95.847 22.6265C95.9867 22.63 96.0923 22.6354 96.1639 22.6426V23.9316C96.121 23.9209 96.0225 23.9048 95.8685 23.8833C95.7181 23.8582 95.5588 23.8457 95.3905 23.8457C94.9895 23.8457 94.6314 23.9299 94.3163 24.0981C94.0048 24.2629 93.7577 24.492 93.5751 24.7856C93.396 25.0757 93.3065 25.4069 93.3065 25.7793V31H92.0389ZM98.9341 20V31H97.6665V20H98.9341ZM103.683 31.1934C103.161 31.1934 102.686 31.0949 102.26 30.8979C101.834 30.6974 101.496 30.4092 101.245 30.0332C100.994 29.6536 100.869 29.1953 100.869 28.6582C100.869 28.1855 100.962 27.8024 101.148 27.5088C101.335 27.2116 101.583 26.9788 101.895 26.8105C102.206 26.6423 102.55 26.5169 102.926 26.4346C103.306 26.3486 103.687 26.2806 104.07 26.2305C104.571 26.166 104.978 26.1177 105.289 26.0854C105.605 26.0496 105.834 25.9906 105.977 25.9082C106.124 25.8258 106.197 25.6826 106.197 25.4785V25.4355C106.197 24.9056 106.052 24.4938 105.762 24.2002C105.476 23.9066 105.041 23.7598 104.457 23.7598C103.852 23.7598 103.377 23.8923 103.034 24.1572C102.69 24.4222 102.448 24.7051 102.308 25.0059L101.105 24.5762C101.32 24.0749 101.607 23.6846 101.965 23.4053C102.326 23.1224 102.72 22.9255 103.146 22.8145C103.576 22.6999 103.999 22.6426 104.414 22.6426C104.679 22.6426 104.983 22.6748 105.327 22.7393C105.674 22.8001 106.009 22.9272 106.331 23.1206C106.657 23.314 106.928 23.6058 107.142 23.9961C107.357 24.3864 107.465 24.9092 107.465 25.5645V31H106.197V29.8828H106.133C106.047 30.0618 105.904 30.2534 105.703 30.4575C105.502 30.6616 105.236 30.8353 104.903 30.9785C104.57 31.1217 104.163 31.1934 103.683 31.1934ZM103.877 30.0547C104.378 30.0547 104.801 29.9562 105.144 29.7593C105.492 29.5623 105.753 29.3081 105.929 28.9966C106.108 28.6851 106.197 28.3574 106.197 28.0137V26.8535C106.143 26.918 106.025 26.9771 105.843 27.0308C105.664 27.0809 105.456 27.1257 105.22 27.165C104.987 27.2008 104.759 27.2331 104.537 27.2617C104.319 27.2868 104.142 27.3083 104.006 27.3262C103.676 27.3691 103.368 27.439 103.082 27.5356C102.799 27.6287 102.57 27.7702 102.394 27.96C102.223 28.1462 102.137 28.4004 102.137 28.7227C102.137 29.1631 102.3 29.4961 102.625 29.7217C102.955 29.9437 103.372 30.0547 103.877 30.0547ZM109.778 31V22.75H111.003V23.9961H111.089C111.239 23.5879 111.511 23.2567 111.905 23.0024C112.299 22.7482 112.743 22.6211 113.237 22.6211C113.33 22.6211 113.447 22.6229 113.586 22.6265C113.726 22.63 113.832 22.6354 113.903 22.6426V23.9316C113.86 23.9209 113.762 23.9048 113.608 23.8833C113.458 23.8582 113.298 23.8457 113.13 23.8457C112.729 23.8457 112.371 23.9299 112.056 24.0981C111.744 24.2629 111.497 24.492 111.314 24.7856C111.135 25.0757 111.046 25.4069 111.046 25.7793V31H109.778Z" fill="#525252"/>
</g>
</g>
<defs>
<filter id="filter0_d_6_2847" x="47.7305" y="18.6562" width="67.1729" height="13.5371" filterUnits="userSpaceOnUse" color-interpolation-filters="sRGB">
<feFlood flood-opacity="0" result="BackgroundImageFix"/>
<feColorMatrix in="SourceAlpha" type="matrix" values="0 0 0 0 0 0 0 0 0 0 0 0 0 0 0 0 0 0 127 0" result="hardAlpha"/>
<feOffset/>
<feGaussianBlur stdDeviation="0.5"/>
<feComposite in2="hardAlpha" operator="out"/>
<feColorMatrix type="matrix" values="0 0 0 0 0 0 0 0 0 0 0 0 0 0 0 0 0 0 0.01 0"/>
<feBlend mode="normal" in2="BackgroundImageFix" result="effect1_dropShadow_6_2847"/>
<feBlend mode="normal" in="SourceGraphic" in2="effect1_dropShadow_6_2847" result="shape"/>
</filter>
<clipPath id="clip0_6_2847">
<rect width="24" height="24" fill="white" transform="translate(16 11)"/>
</clipPath>
<clipPath id="clip1_6_2847">
<rect width="12" height="24" fill="white" transform="translate(22 11)"/>
</clipPath>
<clipPath id="clip2_6_2847">
<rect width="67.28" height="20" fill="white" transform="translate(48 13)"/>
</clipPath>
</defs>
</svg>
