<svg width="250" height="46" viewBox="0 0 250 46" fill="none" xmlns="http://www.w3.org/2000/svg">
<g clip-path="url(#clip0_6_2922)">
<g clip-path="url(#clip1_6_2922)">
<path d="M28.1406 15.7429C30.334 15.7429 32.499 15.9334 34.2558 16.2837L34.7244 16.3829L34.7658 16.3837L34.8532 16.393C37.2535 16.9344 38.9105 17.7173 39.3902 18.8951L39.4565 19.0852C39.4807 19.1682 39.4974 19.2399 39.5082 19.3078L39.5217 19.4093L39.5341 19.6168C39.5199 25.4765 34.4059 30.2265 28.1384 30.2265C21.9785 30.2265 16.9336 25.6385 16.7479 19.9158L16.7427 19.591L16.7622 19.3548L16.7932 19.1972L16.8282 19.0685C17.1836 17.9119 18.6176 17.1224 20.7028 16.5713L21.0621 16.4821L21.1267 16.4709L21.5444 16.3757C23.1138 16.0358 24.9711 15.826 26.9031 15.763L27.5496 15.7475L28.1406 15.7429ZM28.1406 16.5429C25.8273 16.5429 23.5592 16.7582 21.6953 17.1613L21.2379 17.266L21.1987 17.2686L20.9312 17.338C19.2863 17.7758 18.1141 18.3659 17.7094 19.0417L17.6425 19.1694L17.5963 19.2918L17.5543 19.4666L17.5416 19.616L17.5479 19.9013C17.7191 24.984 22.0693 29.116 27.5171 29.4097L27.8266 29.4223L28.1384 29.4265C33.8728 29.4265 38.5512 25.1762 38.7289 19.9044L38.7336 19.616L38.7259 19.4919L38.7081 19.382L38.6862 19.3013L38.6414 19.181C38.294 18.39 36.9461 17.7224 35.0103 17.2507L34.6928 17.1782L34.6384 17.1738C32.7803 16.7641 30.4785 16.5429 28.1406 16.5429ZM27.9998 16.8858C33.6325 16.8858 38.0872 18.0869 38.114 19.5788C38.0872 21.0561 33.6325 22.2572 27.9998 22.2572L27.2721 22.2505C21.9882 22.1522 17.9113 20.9912 17.8856 19.5642C17.9119 18.119 22.1756 16.9381 27.6342 16.8875L27.9998 16.8858ZM27.9998 17.6858C22.8607 17.6858 18.6995 18.8077 18.6855 19.5642C18.6995 20.3353 22.8607 21.4572 27.9998 21.4572L28.6943 21.4504C33.5087 21.356 37.3008 20.3009 37.3142 19.5788C37.3005 18.8253 33.326 17.7366 28.3487 17.6875L27.9998 17.6858Z" fill="#6B6B6B"/>
<path d="M27.5126 18.804C26.7697 18.9672 26.2723 19.0518 25.7183 19.1034C24.7943 19.1893 23.9267 19.1454 23.2677 19.0033C23.0469 18.9556 22.8622 18.899 22.7275 18.8406L22.636 18.7966C22.5872 18.7702 22.5977 18.7822 22.5782 18.8882C22.6499 18.4958 22.2538 18.3152 21.9406 18.3888C20.7922 18.6683 20.214 18.9356 20.2334 19.4488C20.2545 20.0073 21.0817 20.3275 22.9404 20.6605C26.8365 21.3587 32.1824 21.0299 34.3865 20.3637L34.764 20.2426C35.3981 20.0236 35.7164 19.8114 35.7623 19.4585C35.8324 18.9191 35.2081 18.6155 33.7932 18.3002C32.1487 17.9333 30.9675 18.0233 28.7058 18.5315L27.5126 18.804ZM33.646 18.9604L34.0643 19.0603C34.385 19.1428 34.6363 19.2233 34.82 19.3008L35.0318 19.4001L34.848 19.4819C34.6918 19.5471 34.4667 19.633 34.1909 19.7162C32.0881 20.3518 26.85 20.674 23.0597 19.9948L22.5838 19.9037C21.4685 19.6761 20.9117 19.4563 20.9189 19.4222L21.2928 19.2852C21.4169 19.2417 21.568 19.192 21.7418 19.1416L21.9712 19.0778L21.979 19.0916C22.3433 19.6646 24.0056 19.9419 25.781 19.7769C26.293 19.7292 26.7539 19.6558 27.3734 19.5258L29.2168 19.1116C31.15 18.6961 32.2113 18.6403 33.646 18.9604Z" fill="#6B6B6B"/>
</g>
</g>
<g clip-path="url(#clip2_6_2922)">
<g filter="url(#filter0_d_6_2922)">
<path d="M53.4602 27.4773H54.9574L56.2124 29.1286L56.5426 29.5689L58.4141 32.0568H56.9169L55.6839 30.4055L55.3757 29.9872L53.4602 27.4773ZM58.8764 25.3636C58.8764 26.5526 58.6618 27.58 58.2324 28.446C57.8031 29.312 57.2141 29.9799 56.4656 30.4496C55.717 30.9193 54.862 31.1541 53.9006 31.1541C52.9392 31.1541 52.0842 30.9193 51.3356 30.4496C50.587 29.9799 49.998 29.312 49.5687 28.446C49.1394 27.58 48.9247 26.5526 48.9247 25.3636C48.9247 24.1747 49.1394 23.1473 49.5687 22.2812C49.998 21.4152 50.587 20.7474 51.3356 20.2777C52.0842 19.808 52.9392 19.5732 53.9006 19.5732C54.862 19.5732 55.717 19.808 56.4656 20.2777C57.2141 20.7474 57.8031 21.4152 58.2324 22.2812C58.6618 23.1473 58.8764 24.1747 58.8764 25.3636ZM57.5554 25.3636C57.5554 24.3875 57.3921 23.5637 57.0655 22.8922C56.7426 22.2207 56.3041 21.7125 55.75 21.3675C55.1996 21.0226 54.5831 20.8501 53.9006 20.8501C53.218 20.8501 52.5997 21.0226 52.0456 21.3675C51.4952 21.7125 51.0567 22.2207 50.7301 22.8922C50.4072 23.5637 50.2457 24.3875 50.2457 25.3636C50.2457 26.3397 50.4072 27.1635 50.7301 27.835C51.0567 28.5066 51.4952 29.0148 52.0456 29.3597C52.5997 29.7047 53.218 29.8771 53.9006 29.8771C54.5831 29.8771 55.1996 29.7047 55.75 29.3597C56.3041 29.0148 56.7426 28.5066 57.0655 27.835C57.3921 27.1635 57.5554 26.3397 57.5554 25.3636ZM63.4835 31.1982C62.9477 31.1982 62.4615 31.0972 62.0249 30.8954C61.5882 30.6899 61.2414 30.3945 60.9846 30.0092C60.7277 29.6203 60.5993 29.1506 60.5993 28.6001C60.5993 28.1158 60.6947 27.7231 60.8855 27.4222C61.0763 27.1177 61.3313 26.8791 61.6506 26.7067C61.9698 26.5342 62.3221 26.4058 62.7074 26.3214C63.0964 26.2333 63.4872 26.1636 63.8798 26.1122C64.3935 26.0462 64.81 25.9966 65.1293 25.9636C65.4522 25.9269 65.687 25.8664 65.8338 25.782C65.9843 25.6976 66.0595 25.5508 66.0595 25.3416V25.2976C66.0595 24.7545 65.9109 24.3325 65.6136 24.0316C65.3201 23.7307 64.8742 23.5803 64.2761 23.5803C63.656 23.5803 63.1697 23.716 62.8175 23.9876C62.4652 24.2591 62.2175 24.549 62.0744 24.8572L60.8414 24.4169C61.0616 23.9032 61.3552 23.5032 61.7221 23.217C62.0927 22.9271 62.4964 22.7253 62.9331 22.6115C63.3734 22.4941 63.8064 22.4354 64.2321 22.4354C64.5036 22.4354 64.8155 22.4684 65.1678 22.5344C65.5237 22.5968 65.8668 22.7271 66.1971 22.9252C66.531 23.1234 66.8081 23.4225 67.0282 23.8224C67.2484 24.2224 67.3585 24.7582 67.3585 25.4297V31H66.0595V29.8551H65.9934C65.9054 30.0386 65.7586 30.2349 65.5531 30.4441C65.3476 30.6532 65.0742 30.8312 64.733 30.978C64.3917 31.1248 63.9752 31.1982 63.4835 31.1982ZM63.6816 30.0312C64.1954 30.0312 64.6284 29.9303 64.9806 29.7285C65.3366 29.5267 65.6045 29.2662 65.7843 28.9469C65.9677 28.6277 66.0595 28.2919 66.0595 27.9396V26.7507C66.0044 26.8168 65.8833 26.8773 65.6962 26.9324C65.5127 26.9837 65.2999 27.0296 65.0577 27.07C64.8192 27.1067 64.5862 27.1397 64.3587 27.169C64.1348 27.1947 63.9532 27.2167 63.8137 27.2351C63.4761 27.2791 63.1606 27.3507 62.867 27.4498C62.5771 27.5452 62.3423 27.6901 62.1625 27.8846C61.9863 28.0754 61.8983 28.3359 61.8983 28.6662C61.8983 29.1175 62.0652 29.4588 62.3991 29.69C62.7367 29.9175 63.1642 30.0312 63.6816 30.0312ZM70.2634 34.1705C70.0432 34.1705 69.8469 34.1521 69.6744 34.1154C69.5019 34.0824 69.3827 34.0494 69.3166 34.0163L69.6469 32.8714C69.9625 32.9522 70.2413 32.9815 70.4835 32.9595C70.7257 32.9375 70.9404 32.8292 71.1275 32.6348C71.3183 32.444 71.4926 32.1339 71.6504 31.7045L71.8926 31.044L68.7662 22.5455H70.1753L72.5091 29.2827H72.5972L74.931 22.5455H76.3401L72.7513 32.233C72.5898 32.6696 72.3898 33.0311 72.1513 33.3173C71.9128 33.6072 71.6358 33.8219 71.3202 33.9613C71.0083 34.1007 70.656 34.1705 70.2634 34.1705ZM79.3536 19.7273V31H78.0546V19.7273H79.3536ZM84.2208 31.1982C83.685 31.1982 83.1988 31.0972 82.7622 30.8954C82.3255 30.6899 81.9787 30.3945 81.7219 30.0092C81.465 29.6203 81.3366 29.1506 81.3366 28.6001C81.3366 28.1158 81.432 27.7231 81.6228 27.4222C81.8136 27.1177 82.0686 26.8791 82.3879 26.7067C82.7071 26.5342 83.0594 26.4058 83.4447 26.3214C83.8337 26.2333 84.2245 26.1636 84.6171 26.1122C85.1308 26.0462 85.5473 25.9966 85.8666 25.9636C86.1895 25.9269 86.4243 25.8664 86.5711 25.782C86.7216 25.6976 86.7968 25.5508 86.7968 25.3416V25.2976C86.7968 24.7545 86.6482 24.3325 86.3509 24.0316C86.0574 23.7307 85.6115 23.5803 85.0134 23.5803C84.3933 23.5803 83.907 23.716 83.5548 23.9876C83.2025 24.2591 82.9548 24.549 82.8117 24.8572L81.5787 24.4169C81.7989 23.9032 82.0925 23.5032 82.4594 23.217C82.83 22.9271 83.2337 22.7253 83.6704 22.6115C84.1107 22.4941 84.5437 22.4354 84.9694 22.4354C85.2409 22.4354 85.5528 22.4684 85.9051 22.5344C86.261 22.5968 86.6041 22.7271 86.9344 22.9252C87.2683 23.1234 87.5454 23.4225 87.7655 23.8224C87.9857 24.2224 88.0958 24.7582 88.0958 25.4297V31H86.7968V29.8551H86.7307C86.6427 30.0386 86.4959 30.2349 86.2904 30.4441C86.0849 30.6532 85.8115 30.8312 85.4703 30.978C85.129 31.1248 84.7125 31.1982 84.2208 31.1982ZM84.4189 30.0312C84.9327 30.0312 85.3657 29.9303 85.718 29.7285C86.0739 29.5267 86.3418 29.2662 86.5216 28.9469C86.705 28.6277 86.7968 28.2919 86.7968 27.9396V26.7507C86.7417 26.8168 86.6207 26.8773 86.4335 26.9324C86.25 26.9837 86.0372 27.0296 85.795 27.07C85.5565 27.1067 85.3235 27.1397 85.096 27.169C84.8721 27.1947 84.6905 27.2167 84.551 27.2351C84.2135 27.2791 83.8979 27.3507 83.6043 27.4498C83.3144 27.5452 83.0796 27.6901 82.8998 27.8846C82.7236 28.0754 82.6356 28.3359 82.6356 28.6662C82.6356 29.1175 82.8025 29.4588 83.1365 29.69C83.474 29.9175 83.9015 30.0312 84.4189 30.0312ZM91.7658 19.7273V31H90.4668V19.7273H91.7658ZM96.6329 31.1982C96.0972 31.1982 95.6109 31.0972 95.1743 30.8954C94.7376 30.6899 94.3908 30.3945 94.134 30.0092C93.8771 29.6203 93.7487 29.1506 93.7487 28.6001C93.7487 28.1158 93.8441 27.7231 94.0349 27.4222C94.2257 27.1177 94.4807 26.8791 94.8 26.7067C95.1192 26.5342 95.4715 26.4058 95.8568 26.3214C96.2458 26.2333 96.6366 26.1636 97.0292 26.1122C97.5429 26.0462 97.9594 25.9966 98.2787 25.9636C98.6016 25.9269 98.8364 25.8664 98.9832 25.782C99.1337 25.6976 99.2089 25.5508 99.2089 25.3416V25.2976C99.2089 24.7545 99.0603 24.3325 98.7631 24.0316C98.4695 23.7307 98.0236 23.5803 97.4255 23.5803C96.8054 23.5803 96.3192 23.716 95.9669 23.9876C95.6146 24.2591 95.3669 24.549 95.2238 24.8572L93.9909 24.4169C94.211 23.9032 94.5046 23.5032 94.8715 23.217C95.2422 22.9271 95.6458 22.7253 96.0825 22.6115C96.5228 22.4941 96.9558 22.4354 97.3815 22.4354C97.653 22.4354 97.9649 22.4684 98.3172 22.5344C98.6731 22.5968 99.0162 22.7271 99.3465 22.9252C99.6804 23.1234 99.9575 23.4225 100.178 23.8224C100.398 24.2224 100.508 24.7582 100.508 25.4297V31H99.2089V29.8551H99.1428C99.0548 30.0386 98.908 30.2349 98.7025 30.4441C98.497 30.6532 98.2236 30.8312 97.8824 30.978C97.5411 31.1248 97.1246 31.1982 96.6329 31.1982ZM96.8311 30.0312C97.3448 30.0312 97.7778 29.9303 98.1301 29.7285C98.486 29.5267 98.7539 29.2662 98.9337 28.9469C99.1172 28.6277 99.2089 28.2919 99.2089 27.9396V26.7507C99.1539 26.8168 99.0328 26.8773 98.8456 26.9324C98.6621 26.9837 98.4493 27.0296 98.2071 27.07C97.9686 27.1067 97.7356 27.1397 97.5081 27.169C97.2842 27.1947 97.1026 27.2167 96.9632 27.2351C96.6256 27.2791 96.31 27.3507 96.0164 27.4498C95.7265 27.5452 95.4917 27.6901 95.3119 27.8846C95.1357 28.0754 95.0477 28.3359 95.0477 28.6662C95.0477 29.1175 95.2146 29.4588 95.5486 29.69C95.8862 29.9175 96.3137 30.0312 96.8311 30.0312ZM102.879 31V22.5455H104.134V23.8224H104.222C104.376 23.4041 104.655 23.0647 105.059 22.8042C105.462 22.5436 105.917 22.4134 106.424 22.4134C106.519 22.4134 106.638 22.4152 106.781 22.4189C106.924 22.4225 107.033 22.428 107.106 22.4354V23.7564C107.062 23.7454 106.961 23.7289 106.803 23.7069C106.649 23.6812 106.486 23.6683 106.314 23.6683C105.903 23.6683 105.536 23.7546 105.213 23.927C104.893 24.0958 104.64 24.3307 104.453 24.6316C104.27 24.9288 104.178 25.2682 104.178 25.6499V31H102.879ZM119.919 22.5455L116.792 31H115.471L112.345 22.5455H113.754L116.088 29.2827H116.176L118.51 22.5455H119.919ZM123.864 31.1982C123.328 31.1982 122.842 31.0972 122.405 30.8954C121.969 30.6899 121.622 30.3945 121.365 30.0092C121.108 29.6203 120.98 29.1506 120.98 28.6001C120.98 28.1158 121.075 27.7231 121.266 27.4222C121.457 27.1177 121.712 26.8791 122.031 26.7067C122.35 26.5342 122.702 26.4058 123.088 26.3214C123.477 26.2333 123.868 26.1636 124.26 26.1122C124.774 26.0462 125.19 25.9966 125.51 25.9636C125.833 25.9269 126.067 25.8664 126.214 25.782C126.365 25.6976 126.44 25.5508 126.44 25.3416V25.2976C126.44 24.7545 126.291 24.3325 125.994 24.0316C125.7 23.7307 125.255 23.5803 124.656 23.5803C124.036 23.5803 123.55 23.716 123.198 23.9876C122.846 24.2591 122.598 24.549 122.455 24.8572L121.222 24.4169C121.442 23.9032 121.736 23.5032 122.102 23.217C122.473 22.9271 122.877 22.7253 123.313 22.6115C123.754 22.4941 124.187 22.4354 124.612 22.4354C124.884 22.4354 125.196 22.4684 125.548 22.5344C125.904 22.5968 126.247 22.7271 126.577 22.9252C126.911 23.1234 127.188 23.4225 127.409 23.8224C127.629 24.2224 127.739 24.7582 127.739 25.4297V31H126.44V29.8551H126.374C126.286 30.0386 126.139 30.2349 125.933 30.4441C125.728 30.6532 125.455 30.8312 125.113 30.978C124.772 31.1248 124.356 31.1982 123.864 31.1982ZM124.062 30.0312C124.576 30.0312 125.009 29.9303 125.361 29.7285C125.717 29.5267 125.985 29.2662 126.165 28.9469C126.348 28.6277 126.44 28.2919 126.44 27.9396V26.7507C126.385 26.8168 126.264 26.8773 126.077 26.9324C125.893 26.9837 125.68 27.0296 125.438 27.07C125.2 27.1067 124.967 27.1397 124.739 27.169C124.515 27.1947 124.334 27.2167 124.194 27.2351C123.857 27.2791 123.541 27.3507 123.247 27.4498C122.957 27.5452 122.723 27.6901 122.543 27.8846C122.367 28.0754 122.279 28.3359 122.279 28.6662C122.279 29.1175 122.446 29.4588 122.78 29.69C123.117 29.9175 123.545 30.0312 124.062 30.0312ZM137.662 31.1761C136.957 31.1761 136.335 30.9982 135.796 30.6422C135.256 30.2826 134.834 29.7762 134.53 29.123C134.225 28.4662 134.073 27.6901 134.073 26.7947C134.073 25.9067 134.225 25.1361 134.53 24.483C134.834 23.8298 135.258 23.3252 135.801 22.9693C136.344 22.6133 136.972 22.4354 137.684 22.4354C138.234 22.4354 138.669 22.5271 138.988 22.7106C139.311 22.8904 139.557 23.0959 139.726 23.3271C139.898 23.5546 140.032 23.7417 140.128 23.8885H140.238V19.7273H141.537V31H140.282V29.701H140.128C140.032 29.8551 139.896 30.0496 139.72 30.2844C139.544 30.5156 139.293 30.723 138.966 30.9064C138.64 31.0862 138.205 31.1761 137.662 31.1761ZM137.838 30.0092C138.359 30.0092 138.799 29.8735 139.159 29.6019C139.518 29.3267 139.792 28.9469 139.979 28.4625C140.166 27.9745 140.26 27.4112 140.26 26.7727C140.26 26.1416 140.168 25.5893 139.984 25.1159C139.801 24.6389 139.529 24.2683 139.17 24.0041C138.81 23.7362 138.366 23.6023 137.838 23.6023C137.287 23.6023 136.829 23.7435 136.462 24.0261C136.098 24.305 135.825 24.6848 135.642 25.1655C135.462 25.6425 135.372 26.1783 135.372 26.7727C135.372 27.3745 135.464 27.9213 135.647 28.413C135.834 28.901 136.109 29.29 136.473 29.5799C136.84 29.8661 137.295 30.0092 137.838 30.0092ZM147.531 31.1761C146.768 31.1761 146.098 30.9945 145.522 30.6312C144.949 30.2679 144.502 29.7597 144.179 29.1065C143.859 28.4534 143.7 27.6901 143.7 26.8168C143.7 25.9361 143.859 25.1673 144.179 24.5105C144.502 23.8536 144.949 23.3436 145.522 22.9803C146.098 22.617 146.768 22.4354 147.531 22.4354C148.294 22.4354 148.962 22.617 149.534 22.9803C150.11 23.3436 150.558 23.8536 150.877 24.5105C151.2 25.1673 151.362 25.9361 151.362 26.8168C151.362 27.6901 151.2 28.4534 150.877 29.1065C150.558 29.7597 150.11 30.2679 149.534 30.6312C148.962 30.9945 148.294 31.1761 147.531 31.1761ZM147.531 30.0092C148.111 30.0092 148.588 29.8606 148.962 29.5634C149.336 29.2662 149.613 28.8754 149.793 28.391C149.973 27.9066 150.063 27.3819 150.063 26.8168C150.063 26.2517 149.973 25.7251 149.793 25.237C149.613 24.749 149.336 24.3545 148.962 24.0536C148.588 23.7527 148.111 23.6023 147.531 23.6023C146.951 23.6023 146.474 23.7527 146.1 24.0536C145.725 24.3545 145.448 24.749 145.269 25.237C145.089 25.7251 144.999 26.2517 144.999 26.8168C144.999 27.3819 145.089 27.9066 145.269 28.391C145.448 28.8754 145.725 29.2662 146.1 29.5634C146.474 29.8606 146.951 30.0092 147.531 30.0092ZM153.345 34.1705V22.5455H154.6V23.8885H154.754C154.849 23.7417 154.981 23.5546 155.15 23.3271C155.323 23.0959 155.568 22.8904 155.888 22.7106C156.211 22.5271 156.647 22.4354 157.198 22.4354C157.91 22.4354 158.537 22.6133 159.08 22.9693C159.623 23.3252 160.047 23.8298 160.352 24.483C160.656 25.1361 160.808 25.9067 160.808 26.7947C160.808 27.6901 160.656 28.4662 160.352 29.123C160.047 29.7762 159.625 30.2826 159.086 30.6422C158.546 30.9982 157.924 31.1761 157.22 31.1761C156.677 31.1761 156.242 31.0862 155.915 30.9064C155.589 30.723 155.337 30.5156 155.161 30.2844C154.985 30.0496 154.849 29.8551 154.754 29.701H154.644V34.1705H153.345ZM154.622 26.7727C154.622 27.4112 154.715 27.9745 154.902 28.4625C155.09 28.9469 155.363 29.3267 155.723 29.6019C156.082 29.8735 156.522 30.0092 157.044 30.0092C157.587 30.0092 158.04 29.8661 158.403 29.5799C158.77 29.29 159.045 28.901 159.229 28.413C159.416 27.9213 159.509 27.3745 159.509 26.7727C159.509 26.1783 159.418 25.6425 159.234 25.1655C159.054 24.6848 158.781 24.305 158.414 24.0261C158.051 23.7435 157.594 23.6023 157.044 23.6023C156.515 23.6023 156.071 23.7362 155.712 24.0041C155.352 24.2683 155.08 24.6389 154.897 25.1159C154.713 25.5893 154.622 26.1416 154.622 26.7727ZM164.089 19.7273V31H162.79V19.7273H164.089ZM168.956 31.1982C168.42 31.1982 167.934 31.0972 167.498 30.8954C167.061 30.6899 166.714 30.3945 166.457 30.0092C166.2 29.6203 166.072 29.1506 166.072 28.6001C166.072 28.1158 166.167 27.7231 166.358 27.4222C166.549 27.1177 166.804 26.8791 167.123 26.7067C167.442 26.5342 167.795 26.4058 168.18 26.3214C168.569 26.2333 168.96 26.1636 169.352 26.1122C169.866 26.0462 170.283 25.9966 170.602 25.9636C170.925 25.9269 171.16 25.8664 171.306 25.782C171.457 25.6976 171.532 25.5508 171.532 25.3416V25.2976C171.532 24.7545 171.384 24.3325 171.086 24.0316C170.793 23.7307 170.347 23.5803 169.749 23.5803C169.129 23.5803 168.642 23.716 168.29 23.9876C167.938 24.2591 167.69 24.549 167.547 24.8572L166.314 24.4169C166.534 23.9032 166.828 23.5032 167.195 23.217C167.565 22.9271 167.969 22.7253 168.406 22.6115C168.846 22.4941 169.279 22.4354 169.705 22.4354C169.976 22.4354 170.288 22.4684 170.64 22.5344C170.996 22.5968 171.339 22.7271 171.67 22.9252C172.004 23.1234 172.281 23.4225 172.501 23.8224C172.721 24.2224 172.831 24.7582 172.831 25.4297V31H171.532V29.8551H171.466C171.378 30.0386 171.231 30.2349 171.026 30.4441C170.82 30.6532 170.547 30.8312 170.206 30.978C169.864 31.1248 169.448 31.1982 168.956 31.1982ZM169.154 30.0312C169.668 30.0312 170.101 29.9303 170.453 29.7285C170.809 29.5267 171.077 29.2662 171.257 28.9469C171.44 28.6277 171.532 28.2919 171.532 27.9396V26.7507C171.477 26.8168 171.356 26.8773 171.169 26.9324C170.985 26.9837 170.773 27.0296 170.53 27.07C170.292 27.1067 170.059 27.1397 169.831 27.169C169.607 27.1947 169.426 27.2167 169.286 27.2351C168.949 27.2791 168.633 27.3507 168.34 27.4498C168.05 27.5452 167.815 27.6901 167.635 27.8846C167.459 28.0754 167.371 28.3359 167.371 28.6662C167.371 29.1175 167.538 29.4588 167.872 29.69C168.209 29.9175 168.637 30.0312 169.154 30.0312ZM175.202 31V22.5455H176.457V23.8224H176.545C176.699 23.4041 176.978 23.0647 177.382 22.8042C177.785 22.5436 178.24 22.4134 178.747 22.4134C178.842 22.4134 178.962 22.4152 179.105 22.4189C179.248 22.4225 179.356 22.428 179.429 22.4354V23.7564C179.385 23.7454 179.284 23.7289 179.127 23.7069C178.973 23.6812 178.809 23.6683 178.637 23.6683C178.226 23.6683 177.859 23.7546 177.536 23.927C177.217 24.0958 176.963 24.3307 176.776 24.6316C176.593 24.9288 176.501 25.2682 176.501 25.6499V31H175.202Z" fill="#525252"/>
</g>
</g>
<defs>
<filter id="filter0_d_6_2922" x="47.9248" y="18.5732" width="132.504" height="16.5972" filterUnits="userSpaceOnUse" color-interpolation-filters="sRGB">
<feFlood flood-opacity="0" result="BackgroundImageFix"/>
<feColorMatrix in="SourceAlpha" type="matrix" values="0 0 0 0 0 0 0 0 0 0 0 0 0 0 0 0 0 0 127 0" result="hardAlpha"/>
<feOffset/>
<feGaussianBlur stdDeviation="0.5"/>
<feComposite in2="hardAlpha" operator="out"/>
<feColorMatrix type="matrix" values="0 0 0 0 0 0 0 0 0 0 0 0 0 0 0 0 0 0 0.01 0"/>
<feBlend mode="normal" in2="BackgroundImageFix" result="effect1_dropShadow_6_2922"/>
<feBlend mode="normal" in="SourceGraphic" in2="effect1_dropShadow_6_2922" result="shape"/>
</filter>
<clipPath id="clip0_6_2922">
<rect width="24" height="24" fill="white" transform="translate(16 11)"/>
</clipPath>
<clipPath id="clip1_6_2922">
<rect width="24" height="16" fill="white" transform="translate(16 15)"/>
</clipPath>
<clipPath id="clip2_6_2922">
<rect width="133.53" height="20" fill="white" transform="translate(48 13)"/>
</clipPath>
</defs>
</svg>
