<svg width="250" height="46" viewBox="0 0 250 46" fill="none" xmlns="http://www.w3.org/2000/svg">
<g clip-path="url(#clip0_6_2834)">
<g clip-path="url(#clip1_6_2834)">
<path d="M28 33C33.5228 33 38 28.5228 38 23C38 17.4772 33.5228 13 28 13C22.4772 13 18 17.4772 18 23C18 28.5228 22.4772 33 28 33Z" stroke="#6B6B6B"/>
<path d="M27.9998 30.1429C31.9447 30.1429 35.1427 26.9449 35.1427 23C35.1427 19.0551 31.9447 15.8572 27.9998 15.8572C24.0549 15.8572 20.8569 19.0551 20.8569 23C20.8569 26.9449 24.0549 30.1429 27.9998 30.1429Z" stroke="#6B6B6B"/>
<path d="M24 23C24 20.7909 25.7909 19 28 19" stroke="#6B6B6B" stroke-linecap="round"/>
</g>
</g>
<g clip-path="url(#clip2_6_2834)">
<g filter="url(#filter0_d_6_2834)">
<path d="M55.4084 22.6818C55.3434 22.133 55.0798 21.707 54.6177 21.4038C54.1556 21.1005 53.5888 20.9489 52.9173 20.9489C52.4263 20.9489 51.9966 21.0283 51.6284 21.1871C51.2637 21.346 50.9785 21.5644 50.7727 21.8424C50.5705 22.1204 50.4695 22.4363 50.4695 22.7901C50.4695 23.0862 50.5399 23.3407 50.6807 23.5537C50.8251 23.7631 51.0092 23.9382 51.233 24.079C51.4569 24.2162 51.6916 24.3299 51.9371 24.4202C52.1826 24.5068 52.4082 24.5772 52.614 24.6314L53.7404 24.9347C54.0292 25.0105 54.3506 25.1152 54.7044 25.2488C55.0618 25.3823 55.403 25.5647 55.7279 25.7957C56.0564 26.0232 56.3272 26.3156 56.5402 26.673C56.7532 27.0305 56.8597 27.4691 56.8597 27.989C56.8597 28.5883 56.7027 29.1299 56.3886 29.6136C56.0781 30.0974 55.6232 30.4819 55.0239 30.7671C54.4282 31.0523 53.7043 31.195 52.8523 31.195C52.058 31.195 51.3702 31.0668 50.789 30.8105C50.2113 30.5541 49.7564 30.1967 49.4243 29.7382C49.0957 29.2797 48.9098 28.7472 48.8665 28.1406H50.2528C50.2889 28.5594 50.4297 28.906 50.6752 29.1804C50.9244 29.4512 51.2385 29.6533 51.6175 29.7869C52.0002 29.9169 52.4118 29.9819 52.8523 29.9819C53.3649 29.9819 53.8253 29.8989 54.2332 29.7328C54.6412 29.5631 54.9643 29.3284 55.2026 29.0288C55.4409 28.7255 55.56 28.3717 55.56 27.9673C55.56 27.5991 55.4571 27.2994 55.2513 27.0684C55.0455 26.8373 54.7748 26.6496 54.439 26.5051C54.1032 26.3607 53.7404 26.2344 53.3505 26.1261L51.9858 25.7362C51.1193 25.487 50.4334 25.1314 49.9279 24.6693C49.4225 24.2072 49.1697 23.6024 49.1697 22.8551C49.1697 22.2341 49.3376 21.6926 49.6734 21.2305C50.0128 20.7647 50.4677 20.4037 51.0381 20.1474C51.6121 19.8874 52.253 19.7575 52.9606 19.7575C53.6754 19.7575 54.3108 19.8856 54.8668 20.142C55.4228 20.3947 55.8633 20.7413 56.1882 21.1817C56.5167 21.6222 56.69 22.1222 56.7081 22.6818H55.4084ZM61.3424 31.195C60.8153 31.195 60.3369 31.0957 59.9073 30.8971C59.4777 30.6949 59.1365 30.4043 58.8838 30.0252C58.631 29.6425 58.5047 29.1804 58.5047 28.6388C58.5047 28.1623 58.5986 27.776 58.7863 27.4799C58.974 27.1803 59.2249 26.9456 59.539 26.7759C59.8531 26.6062 60.1997 26.4799 60.5788 26.3968C60.9615 26.3102 61.346 26.2416 61.7323 26.1911C62.2378 26.1261 62.6475 26.0773 62.9616 26.0448C63.2793 26.0087 63.5104 25.9492 63.6548 25.8661C63.8028 25.7831 63.8768 25.6387 63.8768 25.4329V25.3896C63.8768 24.8552 63.7306 24.44 63.4382 24.144C63.1494 23.848 62.7107 23.6999 62.1222 23.6999C61.5121 23.6999 61.0337 23.8335 60.6871 24.1007C60.3405 24.3678 60.0968 24.6531 59.956 24.9563L58.743 24.5231C58.9596 24.0176 59.2484 23.6241 59.6094 23.3425C59.9741 23.0573 60.3712 22.8587 60.8008 22.7468C61.2341 22.6313 61.6601 22.5735 62.0789 22.5735C62.3461 22.5735 62.6529 22.606 62.9995 22.671C63.3497 22.7324 63.6873 22.8605 64.0122 23.0555C64.3408 23.2504 64.6133 23.5447 64.83 23.9382C65.0466 24.3317 65.1549 24.8588 65.1549 25.5195V31H63.8768V29.8736H63.8119C63.7252 30.0541 63.5808 30.2472 63.3786 30.453C63.1764 30.6588 62.9075 30.8339 62.5717 30.9783C62.236 31.1228 61.8262 31.195 61.3424 31.195ZM61.5374 30.0469C62.0428 30.0469 62.4688 29.9476 62.8154 29.749C63.1656 29.5505 63.4292 29.2941 63.6061 28.98C63.7866 28.6659 63.8768 28.3356 63.8768 27.989V26.8192C63.8227 26.8842 63.7035 26.9438 63.5194 26.998C63.3389 27.0485 63.1295 27.0936 62.8912 27.1333C62.6566 27.1694 62.4273 27.2019 62.2035 27.2308C61.9832 27.2561 61.8045 27.2778 61.6673 27.2958C61.3352 27.3391 61.0247 27.4095 60.7359 27.507C60.4506 27.6009 60.2196 27.7435 60.0427 27.9348C59.8694 28.1226 59.7827 28.3789 59.7827 28.7038C59.7827 29.1479 59.947 29.4837 60.2755 29.7111C60.6077 29.935 61.0283 30.0469 61.5374 30.0469ZM68.7657 19.9091V31H67.4876V19.9091H68.7657ZM73.5543 31.195C73.0272 31.195 72.5488 31.0957 72.1192 30.8971C71.6896 30.6949 71.3484 30.4043 71.0957 30.0252C70.843 29.6425 70.7166 29.1804 70.7166 28.6388C70.7166 28.1623 70.8105 27.776 70.9982 27.4799C71.1859 27.1803 71.4369 26.9456 71.751 26.7759C72.0651 26.6062 72.4116 26.4799 72.7907 26.3968C73.1734 26.3102 73.5579 26.2416 73.9442 26.1911C74.4497 26.1261 74.8594 26.0773 75.1735 26.0448C75.4912 26.0087 75.7223 25.9492 75.8667 25.8661C76.0147 25.7831 76.0888 25.6387 76.0888 25.4329V25.3896C76.0888 24.8552 75.9425 24.44 75.6501 24.144C75.3613 23.848 74.9226 23.6999 74.3341 23.6999C73.724 23.6999 73.2456 23.8335 72.899 24.1007C72.5524 24.3678 72.3087 24.6531 72.1679 24.9563L70.9549 24.5231C71.1715 24.0176 71.4603 23.6241 71.8214 23.3425C72.186 23.0573 72.5831 22.8587 73.0128 22.7468C73.446 22.6313 73.872 22.5735 74.2908 22.5735C74.558 22.5735 74.8649 22.606 75.2114 22.671C75.5616 22.7324 75.8992 22.8605 76.2241 23.0555C76.5527 23.2504 76.8253 23.5447 77.0419 23.9382C77.2585 24.3317 77.3668 24.8588 77.3668 25.5195V31H76.0888V29.8736H76.0238C75.9371 30.0541 75.7927 30.2472 75.5905 30.453C75.3884 30.6588 75.1194 30.8339 74.7836 30.9783C74.4479 31.1228 74.0381 31.195 73.5543 31.195ZM73.7493 30.0469C74.2547 30.0469 74.6807 29.9476 75.0273 29.749C75.3775 29.5505 75.6411 29.2941 75.818 28.98C75.9985 28.6659 76.0888 28.3356 76.0888 27.989V26.8192C76.0346 26.8842 75.9155 26.9438 75.7313 26.998C75.5508 27.0485 75.3414 27.0936 75.1031 27.1333C74.8685 27.1694 74.6392 27.2019 74.4154 27.2308C74.1951 27.2561 74.0164 27.2778 73.8792 27.2958C73.5471 27.3391 73.2366 27.4095 72.9478 27.507C72.6626 27.6009 72.4315 27.7435 72.2546 27.9348C72.0813 28.1226 71.9947 28.3789 71.9947 28.7038C71.9947 29.1479 72.1589 29.4837 72.4875 29.7111C72.8196 29.935 73.2402 30.0469 73.7493 30.0469ZM82.8405 31.1733C82.1473 31.1733 81.5354 30.9982 81.0047 30.648C80.4739 30.2942 80.0588 29.796 79.7591 29.1533C79.4594 28.5071 79.3096 27.7435 79.3096 26.8626C79.3096 25.9889 79.4594 25.2307 79.7591 24.5881C80.0588 23.9454 80.4757 23.449 81.0101 23.0988C81.5444 22.7486 82.1618 22.5735 82.8622 22.5735C83.4037 22.5735 83.8315 22.6638 84.1456 22.8443C84.4633 23.0212 84.7052 23.2234 84.8713 23.4508C85.041 23.6747 85.1728 23.8588 85.2666 24.0032H85.375V19.9091H86.653V31H85.4183V29.7219H85.2666C85.1728 29.8736 85.0392 30.0649 84.8659 30.296C84.6926 30.5234 84.4453 30.7274 84.124 30.9079C83.8027 31.0848 83.3748 31.1733 82.8405 31.1733ZM83.0138 30.0252C83.5265 30.0252 83.9597 29.8916 84.3135 29.6245C84.6673 29.3537 84.9363 28.98 85.1204 28.5035C85.3046 28.0233 85.3966 27.4691 85.3966 26.8409C85.3966 26.2199 85.3064 25.6766 85.1258 25.2108C84.9453 24.7415 84.6782 24.3769 84.3244 24.1169C83.9705 23.8534 83.5337 23.7216 83.0138 23.7216C82.4723 23.7216 82.021 23.8606 81.6599 24.1386C81.3025 24.413 81.0335 24.7866 80.853 25.2596C80.6761 25.7289 80.5877 26.256 80.5877 26.8409C80.5877 27.433 80.6779 27.9709 80.8584 28.4547C81.0426 28.9349 81.3133 29.3176 81.6708 29.6028C82.0318 29.8844 82.4795 30.0252 83.0138 30.0252Z" fill="#525252"/>
</g>
</g>
<defs>
<filter id="filter0_d_6_2834" x="47.8667" y="18.7574" width="39.7861" height="13.4375" filterUnits="userSpaceOnUse" color-interpolation-filters="sRGB">
<feFlood flood-opacity="0" result="BackgroundImageFix"/>
<feColorMatrix in="SourceAlpha" type="matrix" values="0 0 0 0 0 0 0 0 0 0 0 0 0 0 0 0 0 0 127 0" result="hardAlpha"/>
<feOffset/>
<feGaussianBlur stdDeviation="0.5"/>
<feComposite in2="hardAlpha" operator="out"/>
<feColorMatrix type="matrix" values="0 0 0 0 0 0 0 0 0 0 0 0 0 0 0 0 0 0 0.01 0"/>
<feBlend mode="normal" in2="BackgroundImageFix" result="effect1_dropShadow_6_2834"/>
<feBlend mode="normal" in="SourceGraphic" in2="effect1_dropShadow_6_2834" result="shape"/>
</filter>
<clipPath id="clip0_6_2834">
<rect width="24" height="24" fill="white" transform="translate(16 11)"/>
</clipPath>
<clipPath id="clip1_6_2834">
<rect width="24" height="24" fill="white" transform="translate(16 11)"/>
</clipPath>
<clipPath id="clip2_6_2834">
<rect width="39.88" height="20" fill="white" transform="translate(48 13)"/>
</clipPath>
</defs>
</svg>
