<svg width="250" height="46" viewBox="0 0 250 46" fill="none" xmlns="http://www.w3.org/2000/svg">
<g clip-path="url(#clip0_6_2966)">
<path d="M27.6882 12.1392H25.7216C25.0136 12.1392 24.342 12.476 23.8255 13.0592C23.3261 13.6299 23.0509 14.395 23.043 15.2004C23.043 16.8399 24.2251 18.1567 25.7146 18.1567H31.2771C31.5854 18.1567 31.9318 18.0015 32.1674 17.7659C32.5128 17.4307 32.7338 16.9107 32.7338 16.3208C32.7338 15.4802 31.979 14.4709 31.0664 14.4709L30.1022 14.4712C29.7504 14.4754 29.3284 14.4327 28.9132 14.2959C28.5414 14.1734 28.2538 13.9924 28.0727 13.7504C27.9351 13.5299 27.8903 13.1199 27.9727 12.8194L28.0247 12.6797C28.1472 12.4305 27.9659 12.1392 27.6882 12.1392ZM27.1992 12.8886L27.1916 12.9492C27.1524 13.3794 27.2456 13.8421 27.4551 14.1748C27.7566 14.5799 28.1723 14.8414 28.6784 15.0082C29.086 15.1425 29.4849 15.2014 29.8534 15.217L30.1237 15.221L31.0664 15.2209C31.5097 15.2209 31.9838 15.8549 31.9838 16.3208C31.9838 16.7074 31.8453 17.0335 31.6411 17.2317C31.5371 17.3356 31.3783 17.4067 31.2771 17.4067H25.7146C24.6584 17.4067 23.793 16.4427 23.793 15.2041C23.7992 14.5767 24.012 13.985 24.3885 13.5547C24.7679 13.1263 25.2408 12.8892 25.7216 12.8892L27.1992 12.8886Z" fill="#6B6B6B"/>
<path d="M33.4891 17.4067H22.0199C20.8857 17.4067 19.9663 18.3261 19.9663 19.4603V19.5306C19.9663 20.6648 20.8857 21.5842 22.0199 21.5842H33.4821C34.6163 21.5842 35.5358 20.6648 35.5358 19.5306V19.4603C35.5443 18.3285 34.6251 17.4067 33.4891 17.4067ZM22.0199 18.1567H33.4891C34.2095 18.1567 34.7912 18.7401 34.7858 19.4575V19.5306C34.7858 20.2505 34.2021 20.8342 33.4821 20.8342H22.0199C21.2999 20.8342 20.7163 20.2506 20.7163 19.5306V19.4603C20.7163 18.7404 21.2999 18.1567 22.0199 18.1567Z" fill="#6B6B6B"/>
<path d="M35.1258 20.8411H20.6786C19.5444 20.8411 18.625 21.7605 18.625 22.8947V22.9649C18.625 24.0991 19.5444 25.0185 20.6786 25.0185H35.1258C36.2599 25.0185 37.1793 24.0991 37.1793 22.9649V22.8947C37.1793 21.7605 36.2599 20.8411 35.1258 20.8411ZM20.6786 21.5911H35.1258C35.8457 21.5911 36.4293 22.1747 36.4293 22.8947V22.9649C36.4293 23.6849 35.8457 24.2685 35.1258 24.2685H20.6786C19.9586 24.2685 19.375 23.6849 19.375 22.9649V22.8947C19.375 22.1747 19.9586 21.5911 20.6786 21.5911Z" fill="#6B6B6B"/>
<path d="M35.8494 24.2686H19.7307C19.4852 24.2686 19.306 24.5004 19.3677 24.738L21.6714 33.5945C21.7144 33.7597 21.8636 33.8751 22.0343 33.8751H33.5176C33.688 33.8751 33.8369 33.7603 33.8803 33.5956L36.212 24.739C36.2746 24.5012 36.0953 24.2686 35.8494 24.2686ZM35.3637 25.0176L33.2277 33.1236H22.3227L20.2137 25.0176H35.3637Z" fill="#6B6B6B"/>
<path d="M23.1608 24.2747C23.3354 24.2429 23.5039 24.3375 23.5718 24.4935L23.597 24.5763L25.2124 33.4329C25.2496 33.6366 25.1145 33.8319 24.9108 33.8691C24.7361 33.9009 24.5677 33.8062 24.4997 33.6502L24.4746 33.5674L22.8592 24.7109C22.822 24.5072 22.9571 24.3119 23.1608 24.2747Z" fill="#6B6B6B"/>
<path d="M32.4269 24.275C32.6014 24.3074 32.7251 24.4558 32.7331 24.6258L32.7272 24.7121L31.0837 33.5686C31.0459 33.7723 30.8502 33.9067 30.6466 33.8689C30.472 33.8365 30.3483 33.6881 30.3403 33.5181L30.3463 33.4318L31.9898 24.5753C32.0221 24.4007 32.1706 24.277 32.3405 24.269L32.4269 24.275Z" fill="#6B6B6B"/>
<path d="M27.791 24.2686C27.9685 24.2686 28.1172 24.3919 28.1561 24.5576L28.166 24.6436V33.5001C28.166 33.7072 27.9981 33.8751 27.791 33.8751C27.6135 33.8751 27.4648 33.7517 27.4259 33.5861L27.416 33.5001V24.6436C27.416 24.4364 27.5839 24.2686 27.791 24.2686Z" fill="#6B6B6B"/>
</g>
<g clip-path="url(#clip1_6_2966)">
<g filter="url(#filter0_d_6_2966)">
<path d="M55.4084 22.6818C55.3434 22.133 55.0798 21.707 54.6177 21.4038C54.1556 21.1005 53.5888 20.9489 52.9173 20.9489C52.4263 20.9489 51.9966 21.0283 51.6284 21.1871C51.2637 21.346 50.9785 21.5644 50.7727 21.8424C50.5705 22.1204 50.4695 22.4363 50.4695 22.7901C50.4695 23.0862 50.5399 23.3407 50.6807 23.5537C50.8251 23.7631 51.0092 23.9382 51.233 24.079C51.4569 24.2162 51.6916 24.3299 51.9371 24.4202C52.1826 24.5068 52.4082 24.5772 52.614 24.6314L53.7404 24.9347C54.0292 25.0105 54.3506 25.1152 54.7044 25.2488C55.0618 25.3823 55.403 25.5647 55.7279 25.7957C56.0564 26.0232 56.3272 26.3156 56.5402 26.673C56.7532 27.0305 56.8597 27.4691 56.8597 27.989C56.8597 28.5883 56.7027 29.1299 56.3886 29.6136C56.0781 30.0974 55.6232 30.4819 55.0239 30.7671C54.4282 31.0523 53.7043 31.195 52.8523 31.195C52.058 31.195 51.3702 31.0668 50.789 30.8105C50.2113 30.5541 49.7564 30.1967 49.4243 29.7382C49.0957 29.2797 48.9098 28.7472 48.8665 28.1406H50.2528C50.2889 28.5594 50.4297 28.906 50.6752 29.1804C50.9244 29.4512 51.2385 29.6533 51.6175 29.7869C52.0002 29.9169 52.4118 29.9819 52.8523 29.9819C53.3649 29.9819 53.8253 29.8989 54.2332 29.7328C54.6412 29.5631 54.9643 29.3284 55.2026 29.0288C55.4409 28.7255 55.56 28.3717 55.56 27.9673C55.56 27.5991 55.4571 27.2994 55.2513 27.0684C55.0455 26.8373 54.7748 26.6496 54.439 26.5051C54.1032 26.3607 53.7404 26.2344 53.3505 26.1261L51.9858 25.7362C51.1193 25.487 50.4334 25.1314 49.9279 24.6693C49.4225 24.2072 49.1697 23.6024 49.1697 22.8551C49.1697 22.2341 49.3376 21.6926 49.6734 21.2305C50.0128 20.7647 50.4677 20.4037 51.0381 20.1474C51.6121 19.8874 52.253 19.7575 52.9606 19.7575C53.6754 19.7575 54.3108 19.8856 54.8668 20.142C55.4228 20.3947 55.8633 20.7413 56.1882 21.1817C56.5167 21.6222 56.69 22.1222 56.7081 22.6818H55.4084ZM60.1727 25.9961V31H58.8946V19.9091H60.1727V23.9815H60.281C60.4759 23.5519 60.7684 23.2107 61.1583 22.958C61.5518 22.7017 62.0753 22.5735 62.7288 22.5735C63.2956 22.5735 63.792 22.6872 64.218 22.9147C64.644 23.1385 64.9744 23.4833 65.2091 23.949C65.4473 24.4112 65.5665 24.9996 65.5665 25.7145V31H64.2884V25.8011C64.2884 25.1404 64.1169 24.6296 63.7739 24.2686C63.4346 23.9039 62.9634 23.7216 62.3605 23.7216C61.9417 23.7216 61.5662 23.81 61.2341 23.9869C60.9055 24.1639 60.6456 24.422 60.4543 24.7614C60.2665 25.1007 60.1727 25.5123 60.1727 25.9961ZM67.9046 31V22.6818H69.1827V31H67.9046ZM68.5545 21.2955C68.3054 21.2955 68.0905 21.2106 67.91 21.0409C67.7331 20.8712 67.6447 20.6673 67.6447 20.429C67.6447 20.1907 67.7331 19.9867 67.91 19.817C68.0905 19.6473 68.3054 19.5625 68.5545 19.5625C68.8036 19.5625 69.0166 19.6473 69.1935 19.817C69.374 19.9867 69.4643 20.1907 69.4643 20.429C69.4643 20.6673 69.374 20.8712 69.1935 21.0409C69.0166 21.2106 68.8036 21.2955 68.5545 21.2955ZM71.5235 31V22.6818H72.7582V23.9382H72.8449C72.9965 23.5266 73.2709 23.1927 73.668 22.9363C74.0652 22.68 74.5129 22.5518 75.0111 22.5518C75.1049 22.5518 75.2223 22.5537 75.3631 22.5573C75.5039 22.5609 75.6104 22.5663 75.6826 22.5735V23.8732C75.6393 23.8624 75.54 23.8461 75.3847 23.8245C75.2331 23.7992 75.0725 23.7866 74.9028 23.7866C74.4984 23.7866 74.1374 23.8714 73.8197 24.0411C73.5056 24.2072 73.2565 24.4382 73.0723 24.7343C72.8918 25.0267 72.8016 25.3607 72.8016 25.7362V31H71.5235ZM77.1976 31V22.6818H78.4756V31H77.1976ZM77.8474 21.2955C77.5983 21.2955 77.3835 21.2106 77.203 21.0409C77.0261 20.8712 76.9376 20.6673 76.9376 20.429C76.9376 20.1907 77.0261 19.9867 77.203 19.817C77.3835 19.6473 77.5983 19.5625 77.8474 19.5625C78.0965 19.5625 78.3096 19.6473 78.4865 19.817C78.667 19.9867 78.7572 20.1907 78.7572 20.429C78.7572 20.6673 78.667 20.8712 78.4865 21.0409C78.3096 21.2106 78.0965 21.2955 77.8474 21.2955ZM82.0945 25.9961V31H80.8165V22.6818H82.0512V23.9815H82.1595C82.3545 23.5591 82.6505 23.2198 83.0477 22.9634C83.4448 22.7035 83.9575 22.5735 84.5856 22.5735C85.1489 22.5735 85.6417 22.689 86.0641 22.9201C86.4865 23.1475 86.815 23.4941 87.0497 23.9599C87.2844 24.422 87.4017 25.0069 87.4017 25.7145V31H86.1236V25.8011C86.1236 25.1477 85.954 24.6386 85.6146 24.274C85.2752 23.9057 84.8095 23.7216 84.2174 23.7216C83.8094 23.7216 83.4448 23.81 83.1235 23.9869C82.8058 24.1639 82.5548 24.422 82.3707 24.7614C82.1866 25.1007 82.0945 25.5123 82.0945 25.9961ZM91.0152 19.9091V31H89.7371V19.9091H91.0152ZM93.356 31V22.6818H94.6341V31H93.356ZM94.0059 21.2955C93.7568 21.2955 93.542 21.2106 93.3614 21.0409C93.1845 20.8712 93.0961 20.6673 93.0961 20.429C93.0961 20.1907 93.1845 19.9867 93.3614 19.817C93.542 19.6473 93.7568 19.5625 94.0059 19.5625C94.255 19.5625 94.468 19.6473 94.6449 19.817C94.8254 19.9867 94.9157 20.1907 94.9157 20.429C94.9157 20.6673 94.8254 20.8712 94.6449 21.0409C94.468 21.2106 94.255 21.2955 94.0059 21.2955ZM98.1663 27.9673L98.1447 26.386H98.4046L102.044 22.6818H103.625L99.7476 26.6026H99.6393L98.1663 27.9673ZM96.9749 31V19.9091H98.253V31H96.9749ZM102.26 31L99.0111 26.8842L99.9209 25.9961L103.885 31H102.26ZM106.548 19.9091V31H105.27V19.9091H106.548ZM111.337 31.195C110.81 31.195 110.331 31.0957 109.902 30.8971C109.472 30.6949 109.131 30.4043 108.878 30.0252C108.625 29.6425 108.499 29.1804 108.499 28.6388C108.499 28.1623 108.593 27.776 108.781 27.4799C108.968 27.1803 109.219 26.9456 109.533 26.7759C109.848 26.6062 110.194 26.4799 110.573 26.3968C110.956 26.3102 111.34 26.2416 111.727 26.1911C112.232 26.1261 112.642 26.0773 112.956 26.0448C113.274 26.0087 113.505 25.9492 113.649 25.8661C113.797 25.7831 113.871 25.6387 113.871 25.4329V25.3896C113.871 24.8552 113.725 24.44 113.433 24.144C113.144 23.848 112.705 23.6999 112.117 23.6999C111.506 23.6999 111.028 23.8335 110.682 24.1007C110.335 24.3678 110.091 24.6531 109.95 24.9563L108.737 24.5231C108.954 24.0176 109.243 23.6241 109.604 23.3425C109.968 23.0573 110.366 22.8587 110.795 22.7468C111.228 22.6313 111.654 22.5735 112.073 22.5735C112.34 22.5735 112.647 22.606 112.994 22.671C113.344 22.7324 113.682 22.8605 114.007 23.0555C114.335 23.2504 114.608 23.5447 114.824 23.9382C115.041 24.3317 115.149 24.8588 115.149 25.5195V31H113.871V29.8736H113.806C113.72 30.0541 113.575 30.2472 113.373 30.453C113.171 30.6588 112.902 30.8339 112.566 30.9783C112.23 31.1228 111.821 31.195 111.337 31.195ZM111.532 30.0469C112.037 30.0469 112.463 29.9476 112.81 29.749C113.16 29.5505 113.424 29.2941 113.6 28.98C113.781 28.6659 113.871 28.3356 113.871 27.989V26.8192C113.817 26.8842 113.698 26.9438 113.514 26.998C113.333 27.0485 113.124 27.0936 112.886 27.1333C112.651 27.1694 112.422 27.2019 112.198 27.2308C111.978 27.2561 111.799 27.2778 111.662 27.2958C111.33 27.3391 111.019 27.4095 110.73 27.507C110.445 27.6009 110.214 27.7435 110.037 27.9348C109.864 28.1226 109.777 28.3789 109.777 28.7038C109.777 29.1479 109.941 29.4837 110.27 29.7111C110.602 29.935 111.023 30.0469 111.532 30.0469ZM117.482 31V22.6818H118.717V23.9382H118.803C118.955 23.5266 119.229 23.1927 119.627 22.9363C120.024 22.68 120.471 22.5518 120.97 22.5518C121.063 22.5518 121.181 22.5537 121.322 22.5573C121.462 22.5609 121.569 22.5663 121.641 22.5735V23.8732C121.598 23.8624 121.498 23.8461 121.343 23.8245C121.192 23.7992 121.031 23.7866 120.861 23.7866C120.457 23.7866 120.096 23.8714 119.778 24.0411C119.464 24.2072 119.215 24.4382 119.031 24.7343C118.85 25.0267 118.76 25.3607 118.76 25.7362V31H117.482Z" fill="#525252"/>
</g>
</g>
<defs>
<filter id="filter0_d_6_2966" x="47.8667" y="18.5625" width="74.7744" height="13.6326" filterUnits="userSpaceOnUse" color-interpolation-filters="sRGB">
<feFlood flood-opacity="0" result="BackgroundImageFix"/>
<feColorMatrix in="SourceAlpha" type="matrix" values="0 0 0 0 0 0 0 0 0 0 0 0 0 0 0 0 0 0 127 0" result="hardAlpha"/>
<feOffset/>
<feGaussianBlur stdDeviation="0.5"/>
<feComposite in2="hardAlpha" operator="out"/>
<feColorMatrix type="matrix" values="0 0 0 0 0 0 0 0 0 0 0 0 0 0 0 0 0 0 0.01 0"/>
<feBlend mode="normal" in2="BackgroundImageFix" result="effect1_dropShadow_6_2966"/>
<feBlend mode="normal" in="SourceGraphic" in2="effect1_dropShadow_6_2966" result="shape"/>
</filter>
<clipPath id="clip0_6_2966">
<rect width="24" height="24" fill="white" transform="translate(16 11)"/>
</clipPath>
<clipPath id="clip1_6_2966">
<rect width="74.86" height="20" fill="white" transform="translate(48 13)"/>
</clipPath>
</defs>
</svg>
