<svg width="250" height="46" viewBox="0 0 250 46" fill="none" xmlns="http://www.w3.org/2000/svg">
<path d="M27.7487 12.175C22.2261 12.175 17.5847 16.4933 17.2028 22.0453C17.0266 24.6304 17.8197 27.1861 19.4354 29.2717C21.051 31.328 23.3423 32.7381 25.898 33.1787C26.5149 33.2962 27.1612 33.355 27.7781 33.355C29.0706 33.355 30.3338 33.1199 31.5382 32.6499C31.6851 32.5912 31.8026 32.5618 31.9494 32.5618C32.1551 32.5618 32.3901 32.6206 32.5663 32.7381C33.4182 33.2668 34.5639 33.59 35.592 33.7075C35.2101 33.2668 34.887 32.7674 34.5051 32.1506C34.2114 31.6805 34.3289 31.0637 34.7401 30.6818C36.8258 28.8311 38.089 26.2754 38.2652 23.4847C38.6177 18.1089 34.7695 13.2619 29.5113 12.3219C28.9531 12.2338 28.3362 12.175 27.7487 12.175ZM27.7487 11C28.395 11 29.0706 11.0588 29.7463 11.1763C35.6214 12.175 39.8809 17.5508 39.4696 23.5435C39.264 26.7748 37.7658 29.5949 35.5333 31.563C36.1208 32.5618 36.5614 33.1493 37.4721 33.9718C37.8833 34.3244 37.619 35 37.0902 35C37.0314 35 36.9727 35 36.9139 35C35.3864 35 33.3595 34.6181 31.9494 33.7662C30.6275 34.2656 29.2175 34.5594 27.7487 34.5594C27.0731 34.5594 26.368 34.5006 25.663 34.3831C19.8172 33.2668 15.6165 27.8911 16.0278 21.9572C16.4684 15.6707 21.6679 11 27.7487 11ZM31.5966 19.6365C31.8316 19.4015 32.1841 19.4015 32.4191 19.6365C32.6541 19.8715 32.6541 20.224 32.4191 20.459L26.544 26.3341C26.4264 26.4517 26.2796 26.5104 26.1327 26.5104C25.9858 26.5104 25.8389 26.4517 25.7214 26.3341L23.0776 23.6903C22.8426 23.4553 22.8426 23.1028 23.0776 22.8678C23.3126 22.6328 23.6651 22.6328 23.9001 22.8678L26.1327 25.1004L31.5966 19.6365Z" fill="#525252"/>
<g clip-path="url(#clip0_6_2804)">
<g filter="url(#filter0_d_6_2804)">
<path d="M48.7425 21.0194V19.8182H57.1289V21.0194H53.6127V31H52.2587V21.0194H48.7425ZM60.3707 31.1966C59.8393 31.1966 59.357 31.0965 58.9238 30.8963C58.4907 30.6924 58.1467 30.3994 57.8919 30.0172C57.6371 29.6314 57.5097 29.1655 57.5097 28.6195C57.5097 28.139 57.6044 27.7496 57.7936 27.4511C57.9829 27.149 58.2359 26.9124 58.5526 26.7413C58.8692 26.5702 59.2187 26.4428 59.6009 26.3591C59.9867 26.2718 60.3743 26.2026 60.7638 26.1516C61.2734 26.0861 61.6865 26.037 62.0032 26.0042C62.3235 25.9678 62.5565 25.9078 62.7021 25.824C62.8513 25.7403 62.9259 25.5947 62.9259 25.3873V25.3436C62.9259 24.8049 62.7785 24.3863 62.4837 24.0878C62.1925 23.7893 61.7502 23.6401 61.1569 23.6401C60.5418 23.6401 60.0595 23.7748 59.7101 24.0441C59.3606 24.3135 59.1149 24.601 58.973 24.9068L57.75 24.47C57.9684 23.9604 58.2596 23.5637 58.6235 23.2797C58.9912 22.9922 59.3916 22.792 59.8247 22.6792C60.2615 22.5627 60.691 22.5044 61.1132 22.5044C61.3826 22.5044 61.692 22.5372 62.0414 22.6027C62.3945 22.6646 62.7348 22.7938 63.0624 22.9904C63.3937 23.1869 63.6685 23.4836 63.8869 23.8803C64.1053 24.2771 64.2145 24.8085 64.2145 25.4746V31H62.9259V29.8643H62.8604C62.773 30.0463 62.6275 30.2411 62.4236 30.4486C62.2198 30.656 61.9486 30.8326 61.6101 30.9782C61.2716 31.1238 60.8585 31.1966 60.3707 31.1966ZM60.5673 30.0391C61.0768 30.0391 61.5064 29.939 61.8558 29.7388C62.2089 29.5386 62.4746 29.2801 62.6529 28.9635C62.8349 28.6468 62.9259 28.3137 62.9259 27.9643V26.785C62.8713 26.8505 62.7512 26.9106 62.5656 26.9652C62.3836 27.0161 62.1725 27.0616 61.9322 27.1017C61.6956 27.1381 61.4645 27.1708 61.2388 27.1999C61.0168 27.2254 60.8366 27.2472 60.6983 27.2654C60.3634 27.3091 60.0504 27.3801 59.7592 27.4784C59.4716 27.573 59.2387 27.7168 59.0603 27.9097C58.8856 28.099 58.7983 28.3574 58.7983 28.685C58.7983 29.1327 58.9639 29.4712 59.2951 29.7006C59.63 29.9262 60.054 30.0391 60.5673 30.0391ZM73.1236 22.6136L70.0224 31H68.712L65.6108 22.6136H67.0085L69.3235 29.2965H69.4109L71.7259 22.6136H73.1236ZM80.7647 24.4918L79.6072 24.8194C79.5344 24.6265 79.427 24.4391 79.2851 24.2571C79.1468 24.0714 78.9575 23.9185 78.7172 23.7984C78.477 23.6783 78.1694 23.6183 77.7945 23.6183C77.2813 23.6183 76.8536 23.7365 76.5115 23.9731C76.1729 24.2061 76.0037 24.5028 76.0037 24.8631C76.0037 25.1834 76.1202 25.4364 76.3531 25.622C76.5861 25.8077 76.9501 25.9624 77.4451 26.0861L78.6899 26.3919C79.4398 26.5739 79.9985 26.8523 80.3661 27.2272C80.7338 27.5985 80.9176 28.0771 80.9176 28.6632C80.9176 29.1436 80.7793 29.5732 80.5026 29.9517C80.2296 30.3303 79.8474 30.6287 79.356 30.8471C78.8647 31.0655 78.2932 31.1747 77.6416 31.1747C76.7863 31.1747 76.0783 30.9891 75.5178 30.6178C74.9572 30.2465 74.6023 29.7042 74.4531 28.9908L75.6761 28.685C75.7926 29.1364 76.0128 29.4749 76.3367 29.7006C76.6643 29.9262 77.092 30.0391 77.6198 30.0391C78.2204 30.0391 78.6972 29.9117 79.0503 29.6569C79.407 29.3984 79.5854 29.089 79.5854 28.7287C79.5854 28.4375 79.4834 28.1936 79.2796 27.9971C79.0758 27.7969 78.7627 27.6476 78.3405 27.5494L76.9428 27.2218C76.1748 27.0398 75.6106 26.7577 75.2502 26.3755C74.8935 25.9897 74.7152 25.5074 74.7152 24.9286C74.7152 24.4554 74.848 24.0368 75.1137 23.6729C75.3831 23.3089 75.7489 23.0231 76.2112 22.8157C76.6771 22.6082 77.2049 22.5044 77.7945 22.5044C78.6244 22.5044 79.276 22.6864 79.7492 23.0504C80.226 23.4144 80.5645 23.8949 80.7647 24.4918ZM82.8572 31V22.6136H84.1457V31H82.8572ZM83.5124 21.2159C83.2612 21.2159 83.0446 21.1304 82.8626 20.9593C82.6843 20.7882 82.5951 20.5826 82.5951 20.3423C82.5951 20.1021 82.6843 19.8964 82.8626 19.7254C83.0446 19.5543 83.2612 19.4688 83.5124 19.4688C83.7635 19.4688 83.9783 19.5543 84.1566 19.7254C84.3386 19.8964 84.4296 20.1021 84.4296 20.3423C84.4296 20.5826 84.3386 20.7882 84.1566 20.9593C83.9783 21.1304 83.7635 21.2159 83.5124 21.2159ZM87.3356 34.1449C87.1173 34.1449 86.9225 34.1267 86.7514 34.0903C86.5804 34.0575 86.4621 34.0248 86.3966 33.992L86.7241 32.8564C87.0372 32.9364 87.3138 32.9656 87.554 32.9437C87.7943 32.9219 88.0072 32.8145 88.1928 32.6216C88.3821 32.4323 88.555 32.1247 88.7115 31.6989L88.9518 31.0437L85.8506 22.6136H87.2483L89.5633 29.2965H89.6506L91.9656 22.6136H93.3633L89.8035 32.223C89.6434 32.6562 89.445 33.0147 89.2084 33.2986C88.9718 33.5862 88.697 33.7991 88.3839 33.9374C88.0746 34.0757 87.7251 34.1449 87.3356 34.1449ZM97.2767 31.1966C96.7453 31.1966 96.263 31.0965 95.8298 30.8963C95.3967 30.6924 95.0527 30.3994 94.7979 30.0172C94.5431 29.6314 94.4157 29.1655 94.4157 28.6195C94.4157 28.139 94.5104 27.7496 94.6997 27.4511C94.8889 27.149 95.1419 26.9124 95.4586 26.7413C95.7752 26.5702 96.1247 26.4428 96.5069 26.3591C96.8927 26.2718 97.2804 26.2026 97.6698 26.1516C98.1794 26.0861 98.5925 26.037 98.9092 26.0042C99.2295 25.9678 99.4625 25.9078 99.6081 25.824C99.7573 25.7403 99.8319 25.5947 99.8319 25.3873V25.3436C99.8319 24.8049 99.6845 24.3863 99.3897 24.0878C99.0985 23.7893 98.6562 23.6401 98.0629 23.6401C97.4478 23.6401 96.9655 23.7748 96.6161 24.0441C96.2666 24.3135 96.0209 24.601 95.879 24.9068L94.656 24.47C94.8744 23.9604 95.1656 23.5637 95.5296 23.2797C95.8972 22.9922 96.2976 22.792 96.7307 22.6792C97.1675 22.5627 97.597 22.5044 98.0193 22.5044C98.2886 22.5044 98.598 22.5372 98.9474 22.6027C99.3005 22.6646 99.6408 22.7938 99.9684 22.9904C100.3 23.1869 100.574 23.4836 100.793 23.8803C101.011 24.2771 101.12 24.8085 101.12 25.4746V31H99.8319V29.8643H99.7664C99.6791 30.0463 99.5335 30.2411 99.3296 30.4486C99.1258 30.656 98.8546 30.8326 98.5161 30.9782C98.1776 31.1238 97.7645 31.1966 97.2767 31.1966ZM97.4733 30.0391C97.9829 30.0391 98.4124 29.939 98.7618 29.7388C99.1149 29.5386 99.3806 29.2801 99.5589 28.9635C99.7409 28.6468 99.8319 28.3137 99.8319 27.9643V26.785C99.7773 26.8505 99.6572 26.9106 99.4716 26.9652C99.2896 27.0161 99.0785 27.0616 98.8382 27.1017C98.6016 27.1381 98.3705 27.1708 98.1448 27.1999C97.9228 27.2254 97.7426 27.2472 97.6043 27.2654C97.2694 27.3091 96.9564 27.3801 96.6652 27.4784C96.3777 27.573 96.1447 27.7168 95.9663 27.9097C95.7916 28.099 95.7043 28.3574 95.7043 28.685C95.7043 29.1327 95.8699 29.4712 96.2011 29.7006C96.536 29.9262 96.96 30.0391 97.4733 30.0391ZM111.313 31.1747C110.505 31.1747 109.808 30.9964 109.222 30.6396C108.639 30.2793 108.19 29.777 107.873 29.1327C107.56 28.4848 107.403 27.7314 107.403 26.8723C107.403 26.0133 107.56 25.2562 107.873 24.601C108.19 23.9422 108.63 23.429 109.194 23.0613C109.762 22.6901 110.425 22.5044 111.182 22.5044C111.618 22.5044 112.05 22.5772 112.476 22.7228C112.902 22.8684 113.289 23.105 113.639 23.4326C113.988 23.7566 114.266 24.1861 114.474 24.7211C114.681 25.2562 114.785 25.915 114.785 26.6976V27.2436H108.321V26.1298H113.475C113.475 25.6566 113.38 25.2344 113.191 24.8631C113.005 24.4918 112.74 24.1988 112.394 23.9841C112.052 23.7693 111.648 23.6619 111.182 23.6619C110.668 23.6619 110.224 23.7893 109.849 24.0441C109.478 24.2953 109.192 24.6229 108.992 25.0269C108.792 25.4309 108.692 25.8641 108.692 26.3263V27.0689C108.692 27.7022 108.801 28.2391 109.02 28.6796C109.242 29.1163 109.549 29.4494 109.942 29.6787C110.335 29.9044 110.792 30.0172 111.313 30.0172C111.651 30.0172 111.957 29.9699 112.23 29.8753C112.507 29.777 112.745 29.6314 112.945 29.4385C113.145 29.2419 113.3 28.998 113.409 28.7069L114.654 29.0563C114.523 29.4785 114.303 29.8498 113.993 30.1701C113.684 30.4868 113.302 30.7343 112.847 30.9126C112.392 31.0874 111.881 31.1747 111.313 31.1747ZM120.392 22.6136V23.7056H116.046V22.6136H120.392ZM117.313 20.6044H118.602V28.5977C118.602 28.9616 118.654 29.2346 118.76 29.4166C118.869 29.595 119.007 29.7151 119.175 29.777C119.346 29.8352 119.526 29.8643 119.715 29.8643C119.857 29.8643 119.974 29.8571 120.065 29.8425C120.156 29.8243 120.229 29.8097 120.283 29.7988L120.545 30.9563C120.458 30.9891 120.336 31.0218 120.18 31.0546C120.023 31.091 119.825 31.1092 119.584 31.1092C119.22 31.1092 118.864 31.0309 118.514 30.8744C118.168 30.7179 117.881 30.4795 117.652 30.1592C117.426 29.8389 117.313 29.4348 117.313 28.9471V20.6044ZM122.331 31V22.6136H123.619V31H122.331ZM122.986 21.2159C122.735 21.2159 122.518 21.1304 122.336 20.9593C122.158 20.7882 122.069 20.5826 122.069 20.3423C122.069 20.1021 122.158 19.8964 122.336 19.7254C122.518 19.5543 122.735 19.4688 122.986 19.4688C123.237 19.4688 123.452 19.5543 123.63 19.7254C123.812 19.8964 123.903 20.1021 123.903 20.3423C123.903 20.5826 123.812 20.7882 123.63 20.9593C123.452 21.1304 123.237 21.2159 122.986 21.2159ZM127.268 19.8182V31H125.979V19.8182H127.268ZM132.096 31.1966C131.564 31.1966 131.082 31.0965 130.649 30.8963C130.216 30.6924 129.872 30.3994 129.617 30.0172C129.362 29.6314 129.235 29.1655 129.235 28.6195C129.235 28.139 129.329 27.7496 129.519 27.4511C129.708 27.149 129.961 26.9124 130.278 26.7413C130.594 26.5702 130.944 26.4428 131.326 26.3591C131.712 26.2718 132.099 26.2026 132.489 26.1516C132.998 26.0861 133.412 26.037 133.728 26.0042C134.048 25.9678 134.281 25.9078 134.427 25.824C134.576 25.7403 134.651 25.5947 134.651 25.3873V25.3436C134.651 24.8049 134.503 24.3863 134.209 24.0878C133.917 23.7893 133.475 23.6401 132.882 23.6401C132.267 23.6401 131.784 23.7748 131.435 24.0441C131.086 24.3135 130.84 24.601 130.698 24.9068L129.475 24.47C129.693 23.9604 129.985 23.5637 130.349 23.2797C130.716 22.9922 131.117 22.792 131.55 22.6792C131.986 22.5627 132.416 22.5044 132.838 22.5044C133.108 22.5044 133.417 22.5372 133.766 22.6027C134.119 22.6646 134.46 22.7938 134.787 22.9904C135.119 23.1869 135.393 23.4836 135.612 23.8803C135.83 24.2771 135.939 24.8085 135.939 25.4746V31H134.651V29.8643H134.585C134.498 30.0463 134.352 30.2411 134.149 30.4486C133.945 30.656 133.674 30.8326 133.335 30.9782C132.997 31.1238 132.583 31.1966 132.096 31.1966ZM132.292 30.0391C132.802 30.0391 133.231 29.939 133.581 29.7388C133.934 29.5386 134.2 29.2801 134.378 28.9635C134.56 28.6468 134.651 28.3137 134.651 27.9643V26.785C134.596 26.8505 134.476 26.9106 134.291 26.9652C134.109 27.0161 133.897 27.0616 133.657 27.1017C133.421 27.1381 133.189 27.1708 132.964 27.1999C132.742 27.2254 132.562 27.2472 132.423 27.2654C132.088 27.3091 131.775 27.3801 131.484 27.4784C131.197 27.573 130.964 27.7168 130.785 27.9097C130.611 28.099 130.523 28.3574 130.523 28.685C130.523 29.1327 130.689 29.4712 131.02 29.7006C131.355 29.9262 131.779 30.0391 132.292 30.0391ZM141.458 31.1747C140.759 31.1747 140.142 30.9982 139.607 30.6451C139.072 30.2884 138.653 29.7861 138.351 29.1382C138.049 28.4866 137.898 27.7168 137.898 26.8287C137.898 25.9478 138.049 25.1834 138.351 24.5355C138.653 23.8876 139.074 23.3871 139.613 23.034C140.151 22.681 140.774 22.5044 141.48 22.5044C142.026 22.5044 142.457 22.5954 142.774 22.7774C143.094 22.9558 143.338 23.1596 143.505 23.3889C143.677 23.6146 143.809 23.8002 143.904 23.9458H144.013V19.8182H145.302V31H144.057V29.7115H143.904C143.809 29.8643 143.675 30.0573 143.5 30.2902C143.325 30.5195 143.076 30.7252 142.752 30.9072C142.428 31.0855 141.997 31.1747 141.458 31.1747ZM141.633 30.0172C142.15 30.0172 142.586 29.8825 142.943 29.6132C143.3 29.3402 143.571 28.9635 143.757 28.483C143.942 27.9989 144.035 27.4402 144.035 26.8068C144.035 26.1808 143.944 25.6329 143.762 25.1634C143.58 24.6902 143.311 24.3226 142.954 24.0605C142.597 23.7948 142.157 23.6619 141.633 23.6619C141.087 23.6619 140.632 23.8021 140.268 24.0823C139.907 24.359 139.636 24.7357 139.454 25.2125C139.276 25.6857 139.187 26.2172 139.187 26.8068C139.187 27.4038 139.278 27.9461 139.46 28.4339C139.645 28.918 139.918 29.3038 140.279 29.5914C140.643 29.8753 141.094 30.0172 141.633 30.0172ZM147.841 31V22.6136H149.129V31H147.841ZM148.496 21.2159C148.245 21.2159 148.028 21.1304 147.846 20.9593C147.668 20.7882 147.579 20.5826 147.579 20.3423C147.579 20.1021 147.668 19.8964 147.846 19.7254C148.028 19.5543 148.245 19.4688 148.496 19.4688C148.747 19.4688 148.962 19.5543 149.14 19.7254C149.322 19.8964 149.413 20.1021 149.413 20.3423C149.413 20.5826 149.322 20.7882 149.14 20.9593C148.962 21.1304 148.747 21.2159 148.496 21.2159Z" fill="#525252"/>
</g>
</g>
<defs>
<filter id="filter0_d_6_2804" x="47.7427" y="18.4688" width="102.67" height="16.6761" filterUnits="userSpaceOnUse" color-interpolation-filters="sRGB">
<feFlood flood-opacity="0" result="BackgroundImageFix"/>
<feColorMatrix in="SourceAlpha" type="matrix" values="0 0 0 0 0 0 0 0 0 0 0 0 0 0 0 0 0 0 127 0" result="hardAlpha"/>
<feOffset/>
<feGaussianBlur stdDeviation="0.5"/>
<feComposite in2="hardAlpha" operator="out"/>
<feColorMatrix type="matrix" values="0 0 0 0 0 0 0 0 0 0 0 0 0 0 0 0 0 0 0.01 0"/>
<feBlend mode="normal" in2="BackgroundImageFix" result="effect1_dropShadow_6_2804"/>
<feBlend mode="normal" in="SourceGraphic" in2="effect1_dropShadow_6_2804" result="shape"/>
</filter>
<clipPath id="clip0_6_2804">
<rect width="102.81" height="20" fill="white" transform="translate(48 13)"/>
</clipPath>
</defs>
</svg>
