<svg width="26" height="25" viewBox="0 0 26 25" fill="none" xmlns="http://www.w3.org/2000/svg">
<path d="M21.4122 18.0931L17.2781 15.9564C16.6975 15.6544 15.9776 15.8171 15.5827 16.328L14.0731 18.2789C12.5867 17.4893 11.4719 16.7229 10.1713 15.4222C8.77774 14.0287 8.03462 12.8907 7.29137 11.4506L9.21909 9.9411C9.73006 9.54626 9.89256 8.82626 9.5907 8.24565L7.45398 4.13473C7.08233 3.41478 6.1534 3.18244 5.47974 3.62377L2.85524 5.38885C2.25141 5.80683 1.90295 6.50363 1.94945 7.22357C1.99594 7.96687 2.08877 8.919 2.27459 9.56932C3.04103 12.5189 4.87579 15.5614 7.47708 18.1395C10.0551 20.7175 13.0976 22.5523 16.0472 23.3419C16.6976 23.5046 17.6498 23.5974 18.4163 23.6671C19.1596 23.7136 19.8795 23.3651 20.2743 22.7381L21.993 20.0673C22.3643 19.3705 22.109 18.4647 21.4122 18.0931Z" fill="#2F322C"/>
<path d="M13.2343 10.0291C13.8266 10.1907 14.4189 10.5139 14.8766 10.999C15.3611 11.4838 15.6843 12.0498 15.8458 12.6425C15.9805 13.1274 16.4381 13.4508 16.9497 13.4237H17.0573C17.7572 13.3969 18.2688 12.7232 18.0804 12.0497C17.8111 11.0798 17.2997 10.1366 16.5189 9.38228C15.7382 8.60107 14.8227 8.08909 13.8535 7.81962C13.1805 7.63092 12.5073 8.14288 12.4805 8.84349V8.95115C12.4266 9.43623 12.7496 9.89438 13.2343 10.0291Z" fill="#2F322C"/>
<path d="M24.562 14.4079C24.1125 11.2078 22.6738 8.12758 20.2165 5.67525C17.7589 3.2228 14.6722 1.78735 11.4655 1.33886C10.7462 1.24916 10.0868 1.75754 10.057 2.50522V2.62475C10.0271 3.28269 10.5064 3.8209 11.1359 3.91062C13.8031 4.26943 16.3505 5.49567 18.3884 7.52941C20.4262 9.56292 21.6251 12.1349 22.0147 14.7668C22.1047 15.3949 22.6442 15.8732 23.3033 15.8434H23.4231C24.1126 15.7837 24.6519 15.1257 24.562 14.4079Z" fill="#2F322C"/>
</svg>
