<svg width="250" height="46" viewBox="0 0 250 46" fill="none" xmlns="http://www.w3.org/2000/svg">
<g clip-path="url(#clip0_6_2871)">
<g clip-path="url(#clip1_6_2871)">
<path d="M20.2359 17.0522L20.3399 17.0742C20.6161 17.1623 20.7686 17.4577 20.6805 17.7339C20.5405 18.1725 20.5045 18.6352 20.5794 19.099C20.7327 20.0442 21.1561 20.9264 21.7704 21.5853C21.9682 21.7973 21.9565 22.1295 21.7445 22.3273C21.5324 22.525 21.2002 22.5134 21.0025 22.3013C20.2443 21.4882 19.729 20.4147 19.5429 19.2667C19.4415 18.6386 19.4904 18.0093 19.6801 17.4147C19.7573 17.173 19.9931 17.0261 20.2359 17.0522Z" fill="#6B6B6B"/>
<path d="M17.0793 19.2985C17.6965 23.1177 20.3471 25.911 24.0385 26.2661L24.415 26.2828C25.619 26.3639 26.8313 26.7827 27.9844 27.4322C28.4415 27.6897 28.857 27.9656 29.2219 28.241L29.5369 28.4889C29.5899 28.5329 29.6314 28.5688 29.6607 28.5955C29.8681 28.784 30.1869 28.7763 30.3851 28.5782L33.601 25.3622C33.8061 25.1572 33.806 24.8247 33.601 24.6197C33.0271 24.046 32.5493 23.2653 32.1647 22.3279C31.8467 21.553 31.6102 20.7175 31.4445 19.8812C31.3452 19.3801 31.292 18.9931 31.2723 18.7789C30.8241 15.0409 27.7622 12.3191 24.0724 12.0065C19.8845 11.6526 16.4276 15.269 17.0793 19.2985ZM23.9838 13.0528C27.1944 13.3248 29.8432 15.6793 30.2282 18.8895L30.2623 19.1836C30.2937 19.418 30.3433 19.7257 30.4146 20.0853C30.5925 20.9836 30.847 21.8825 31.1933 22.7265L31.3613 23.115C31.6503 23.7497 31.9853 24.3193 32.371 24.8108L32.5045 24.9726L29.9785 27.4986L29.8543 27.4028C29.4538 27.1006 28.9997 26.799 28.4997 26.5173C27.2203 25.7967 25.8634 25.328 24.4724 25.2344L24.1109 25.219C20.9499 24.9141 18.6605 22.5016 18.1159 19.1309C17.5891 15.8741 20.3148 12.9196 23.7003 13.0359L23.9838 13.0528Z" fill="#6B6B6B"/>
<path d="M33.4205 26.311C33.5932 26.1322 33.8621 26.1025 34.0667 26.2245L34.1629 26.2982L35.6337 27.7191L35.7432 27.6571C35.9944 27.5248 36.2709 27.4409 36.5594 27.4127L36.7778 27.402C38.0048 27.402 38.9996 28.3971 38.9996 29.6245C38.9996 30.7792 38.1183 31.7285 36.9917 31.8362L36.8487 31.8426L36.8416 32.0092C36.7407 33.0659 35.9 33.9066 34.8434 34.0075L34.6293 34.0177C33.4023 34.0177 32.4075 33.0226 32.4075 31.7952C32.4075 31.387 32.5182 30.9966 32.7192 30.6589L32.7957 30.5436L30.2026 28.0301C30.0241 27.8571 29.9948 27.5882 30.1172 27.3838L30.191 27.2877C30.3639 27.1092 30.6328 27.0799 30.8373 27.2023L30.9333 27.2761L33.8834 30.1353C34.0769 30.3228 34.0935 30.6201 33.9387 30.8266L33.8619 30.909C33.6064 31.1305 33.4575 31.4498 33.4575 31.7952C33.4575 32.4428 33.9823 32.9677 34.6293 32.9677C35.277 32.9677 35.8018 32.4428 35.8018 31.7952C35.8018 31.705 35.7918 31.6169 35.7723 31.5319L35.7171 31.3409L35.7056 31.2311C35.7056 30.8105 36.0836 30.6425 36.386 30.7265L36.4317 30.7431L36.5223 30.7686C36.5637 30.7778 36.6057 30.7847 36.6483 30.7893L36.7778 30.7963C37.4247 30.7963 37.9496 30.2715 37.9496 29.6245C37.9496 28.9769 37.4248 28.452 36.7778 28.452C36.5293 28.452 36.2941 28.5291 36.0982 28.669L35.9592 28.7853C35.785 28.9553 35.522 28.9802 35.3218 28.8596L35.2277 28.7872L33.4333 27.0533C33.2247 26.8518 33.219 26.5195 33.4205 26.311Z" fill="#6B6B6B"/>
</g>
</g>
<g clip-path="url(#clip2_6_2871)">
<g filter="url(#filter0_d_6_2871)">
<path d="M55.5906 22.4773C55.524 21.915 55.2539 21.4785 54.7805 21.1678C54.307 20.8571 53.7262 20.7017 53.0382 20.7017C52.5351 20.7017 52.0949 20.7831 51.7176 20.9458C51.344 21.1086 51.0518 21.3324 50.8409 21.6172C50.6338 21.9021 50.5302 22.2257 50.5302 22.5882C50.5302 22.8916 50.6023 23.1524 50.7466 23.3706C50.8945 23.5852 51.0832 23.7646 51.3125 23.9088C51.5419 24.0494 51.7823 24.1659 52.0339 24.2584C52.2854 24.3472 52.5166 24.4193 52.7275 24.4748L53.8816 24.7855C54.1775 24.8632 54.5067 24.9705 54.8692 25.1073C55.2354 25.2442 55.585 25.431 55.9179 25.6677C56.2545 25.9008 56.532 26.2004 56.7502 26.5666C56.9685 26.9328 57.0776 27.3823 57.0776 27.915C57.0776 28.529 56.9167 29.0839 56.5949 29.5795C56.2767 30.0752 55.8107 30.4692 55.1966 30.7614C54.5862 31.0536 53.8446 31.1998 52.9716 31.1998C52.1578 31.1998 51.4531 31.0684 50.8576 30.8058C50.2657 30.5432 49.7996 30.177 49.4593 29.7072C49.1227 29.2374 48.9322 28.6918 48.8878 28.0703H50.3082C50.3452 28.4994 50.4895 28.8545 50.741 29.1357C50.9963 29.4131 51.3181 29.6202 51.7065 29.7571C52.0986 29.8903 52.5203 29.9569 52.9716 29.9569C53.4969 29.9569 53.9685 29.8718 54.3865 29.7016C54.8045 29.5278 55.1356 29.2873 55.3797 28.9803C55.6238 28.6696 55.7459 28.3071 55.7459 27.8928C55.7459 27.5154 55.6405 27.2084 55.4296 26.9717C55.2188 26.7349 54.9414 26.5426 54.5973 26.3946C54.2533 26.2467 53.8816 26.1172 53.4821 26.0062L52.0838 25.6067C51.196 25.3515 50.4932 24.9871 49.9753 24.5136C49.4574 24.0401 49.1985 23.4205 49.1985 22.6548C49.1985 22.0186 49.3705 21.4637 49.7145 20.9902C50.0622 20.5131 50.5283 20.1431 51.1128 19.8805C51.7009 19.6142 52.3575 19.481 53.0826 19.481C53.815 19.481 54.466 19.6123 55.0357 19.875C55.6054 20.1339 56.0566 20.489 56.3896 20.9403C56.7262 21.3916 56.9037 21.9039 56.9222 22.4773H55.5906ZM64.5336 27.5154V22.4773H65.8431V31H64.5336V29.5574H64.4448C64.2451 29.9901 63.9343 30.3582 63.5126 30.6615C63.0909 30.9612 62.5583 31.111 61.9146 31.111C61.382 31.111 60.9085 30.9945 60.4942 30.7614C60.0799 30.5247 59.7544 30.1696 59.5176 29.6961C59.2809 29.2189 59.1625 28.6178 59.1625 27.8928V22.4773H60.472V27.804C60.472 28.4254 60.6458 28.9211 60.9936 29.291C61.345 29.6609 61.7926 29.8459 62.3363 29.8459C62.6618 29.8459 62.9929 29.7627 63.3295 29.5962C63.6699 29.4297 63.9547 29.1745 64.184 28.8305C64.4171 28.4865 64.5336 28.0481 64.5336 27.5154ZM75.2106 22.4773L72.0589 31H70.7273L67.5756 22.4773H68.9961L71.3487 29.2688H71.4375L73.7901 22.4773H75.2106ZM78.2485 19.6364V31H76.939V19.6364H78.2485ZM80.6469 31V22.4773H81.9564V31H80.6469ZM81.3127 21.0568C81.0575 21.0568 80.8374 20.9699 80.6524 20.796C80.4712 20.6222 80.3805 20.4132 80.3805 20.169C80.3805 19.9249 80.4712 19.7159 80.6524 19.542C80.8374 19.3682 81.0575 19.2812 81.3127 19.2812C81.5679 19.2812 81.7862 19.3682 81.9675 19.542C82.1524 19.7159 82.2449 19.9249 82.2449 20.169C82.2449 20.4132 82.1524 20.6222 81.9675 20.796C81.7862 20.9699 81.5679 21.0568 81.3127 21.0568ZM92.4558 22.4773V23.587H88.0391V22.4773H92.4558ZM89.3263 20.4354H90.6358V28.5586C90.6358 28.9285 90.6895 29.2059 90.7967 29.3909C90.9077 29.5721 91.0483 29.6942 91.2184 29.7571C91.3923 29.8163 91.5754 29.8459 91.7678 29.8459C91.912 29.8459 92.0304 29.8385 92.1229 29.8237C92.2153 29.8052 92.2893 29.7904 92.3448 29.7793L92.6112 30.9556C92.5224 30.9889 92.3985 31.0222 92.2394 31.0555C92.0803 31.0925 91.8787 31.111 91.6346 31.111C91.2647 31.111 90.9022 31.0314 90.5471 30.8724C90.1956 30.7133 89.9034 30.471 89.6704 30.1455C89.441 29.82 89.3263 29.4094 89.3263 28.9137V20.4354ZM97.7964 31.1776C97.027 31.1776 96.3519 30.9945 95.7711 30.6282C95.194 30.262 94.7428 29.7497 94.4172 29.0913C94.0954 28.4328 93.9345 27.6634 93.9345 26.783C93.9345 25.8952 94.0954 25.1203 94.4172 24.4581C94.7428 23.796 95.194 23.2818 95.7711 22.9156C96.3519 22.5494 97.027 22.3663 97.7964 22.3663C98.5658 22.3663 99.239 22.5494 99.8161 22.9156C100.397 23.2818 100.848 23.796 101.17 24.4581C101.495 25.1203 101.658 25.8952 101.658 26.783C101.658 27.6634 101.495 28.4328 101.17 29.0913C100.848 29.7497 100.397 30.262 99.8161 30.6282C99.239 30.9945 98.5658 31.1776 97.7964 31.1776ZM97.7964 30.0012C98.3808 30.0012 98.8617 29.8514 99.239 29.5518C99.6163 29.2522 99.8956 28.8582 100.077 28.3699C100.258 27.8817 100.349 27.3527 100.349 26.783C100.349 26.2134 100.258 25.6825 100.077 25.1906C99.8956 24.6986 99.6163 24.3009 99.239 23.9976C98.8617 23.6943 98.3808 23.5426 97.7964 23.5426C97.2119 23.5426 96.731 23.6943 96.3537 23.9976C95.9764 24.3009 95.6971 24.6986 95.5159 25.1906C95.3346 25.6825 95.244 26.2134 95.244 26.783C95.244 27.3527 95.3346 27.8817 95.5159 28.3699C95.6971 28.8582 95.9764 29.2522 96.3537 29.5518C96.731 29.8514 97.2119 30.0012 97.7964 30.0012ZM110.321 22.4773L107.169 31H105.838L102.686 22.4773H104.107L106.459 29.2688H106.548L108.901 22.4773H110.321ZM117.421 27.5154V22.4773H118.73V31H117.421V29.5574H117.332C117.132 29.9901 116.821 30.3582 116.4 30.6615C115.978 30.9612 115.445 31.111 114.802 31.111C114.269 31.111 113.795 30.9945 113.381 30.7614C112.967 30.5247 112.641 30.1696 112.405 29.6961C112.168 29.2189 112.049 28.6178 112.049 27.8928V22.4773H113.359V27.804C113.359 28.4254 113.533 28.9211 113.881 29.291C114.232 29.6609 114.68 29.8459 115.223 29.8459C115.549 29.8459 115.88 29.7627 116.216 29.5962C116.557 29.4297 116.842 29.1745 117.071 28.8305C117.304 28.4865 117.421 28.0481 117.421 27.5154ZM126.943 34.196V29.6905H126.832C126.736 29.8459 126.599 30.0419 126.422 30.2787C126.244 30.5117 125.991 30.7207 125.662 30.9057C125.332 31.0869 124.894 31.1776 124.347 31.1776C123.636 31.1776 123.009 30.9982 122.466 30.6393C121.922 30.2768 121.497 29.7664 121.189 29.1079C120.882 28.4458 120.729 27.6634 120.729 26.7608C120.729 25.8656 120.882 25.0888 121.189 24.4304C121.497 23.772 121.924 23.2633 122.471 22.9045C123.019 22.5457 123.651 22.3663 124.369 22.3663C124.924 22.3663 125.362 22.4588 125.684 22.6437C126.009 22.825 126.257 23.0321 126.427 23.2652C126.601 23.4945 126.736 23.6832 126.832 23.8311H126.988V22.4773H128.253V34.196H126.943ZM124.524 30.0012C125.049 30.0012 125.493 29.8644 125.856 29.5906C126.218 29.3132 126.494 28.9304 126.683 28.4421C126.871 27.9501 126.966 27.3823 126.966 26.7386C126.966 26.1024 126.873 25.5457 126.688 25.0685C126.503 24.5876 126.229 24.214 125.867 23.9477C125.504 23.6776 125.057 23.5426 124.524 23.5426C123.969 23.5426 123.507 23.685 123.137 23.9699C122.771 24.251 122.495 24.6338 122.31 25.1184C122.129 25.5993 122.038 26.1394 122.038 26.7386C122.038 27.3453 122.131 27.8965 122.316 28.3921C122.505 28.8841 122.782 29.2762 123.148 29.5684C123.518 29.857 123.977 30.0012 124.524 30.0012Z" fill="#525252"/>
</g>
</g>
<defs>
<filter id="filter0_d_6_2871" x="47.8877" y="18.2812" width="81.3652" height="16.9148" filterUnits="userSpaceOnUse" color-interpolation-filters="sRGB">
<feFlood flood-opacity="0" result="BackgroundImageFix"/>
<feColorMatrix in="SourceAlpha" type="matrix" values="0 0 0 0 0 0 0 0 0 0 0 0 0 0 0 0 0 0 127 0" result="hardAlpha"/>
<feOffset/>
<feGaussianBlur stdDeviation="0.5"/>
<feComposite in2="hardAlpha" operator="out"/>
<feColorMatrix type="matrix" values="0 0 0 0 0 0 0 0 0 0 0 0 0 0 0 0 0 0 0.01 0"/>
<feBlend mode="normal" in2="BackgroundImageFix" result="effect1_dropShadow_6_2871"/>
<feBlend mode="normal" in="SourceGraphic" in2="effect1_dropShadow_6_2871" result="shape"/>
</filter>
<clipPath id="clip0_6_2871">
<rect width="24" height="24" fill="white" transform="translate(16 11)"/>
</clipPath>
<clipPath id="clip1_6_2871">
<rect width="24" height="24" fill="white" transform="translate(16 11)"/>
</clipPath>
<clipPath id="clip2_6_2871">
<rect width="81.94" height="20" fill="white" transform="translate(48 13)"/>
</clipPath>
</defs>
</svg>
